<?xml version="1.0" encoding="UTF-8"?>
<svg id="Layer_1" xmlns="http://www.w3.org/2000/svg" version="1.1" viewBox="0 0 610 475">
  <!-- Generator: Adobe Illustrator 29.1.0, SVG Export Plug-In . SVG Version: 2.1.0 Build 142)  -->
  <path d="M342.2,243.2v6.9c-.3.5-1.2,1.2-1.7,1.2h-46.2c-1,1.9-.9,4.8-.8,7,.8,15.6,9.5,29,26.8,25.3,6.4-1.4,11.8-5.1,16.7-9.2.5,0,.5.3.7.5.4.4,2.9,3.5,3,3.9s.2.5,0,.9-3.7,3.7-4.2,4.2c-19,16.5-53.2,11.6-61.9-13.6s-1-34,12.3-44c16-12,47.2-11.6,53.8,10.7l1.4,6.2h.1ZM295.1,243.5c6.9-.3,14.2.4,21.1,0s4.3-.3,5.2-.7c2.5-1.1,1.5-6,.8-8.1-1.4-4.1-5.3-7.7-9.8-8-9.5-.8-15.8,8.5-17.3,16.8h0Z"/>
  <path d="M51.4,187.3l31.7,78.9,31.1-78.9h40.3v5.6c-4.2,0-9.3.3-11.8,4.3s-2.1,7.7-2.2,10.5c-1.2,22.2.6,45.7.4,67.9,1.3,9.7,6.4,10.3,15.3,10.5v5.9h-51.5v-5.9c5.4-.1,12.1-.2,14.3-6.1s.9-5.5,1.3-8.3v-68.1l-37.3,89.8h-10.1l-37.6-89.8-.2,67.8c.5,3.6.3,7.3,2.3,10.5s8.8,4.1,13.4,4.3v5.9H8.3v-5.9c8.7-.3,14-.8,15.3-10.5-.3-22.2,1.5-45.5.4-67.6-.2-3.2-.7-8.3-2.4-11-2.5-3.9-7.7-4.2-11.9-4.1v-5.6h41.8,0Z"/>
  <path d="M186.1,218.6c27.5-2.3,52,19,43.6,47.6-9.5,32.2-57.5,36.8-73.7,7.6-13.5-24.3,3-52.9,30.1-55.2h0ZM188.9,226.7c-22.2,2.8-21.9,60.5,4,57.9,23.3-2.4,22.5-61.3-4-57.9Z"/>
  <path d="M258.3,203.2v16.5h15.6v7.8h-15.6v44.8c.5,3.9.7,10.1,5.2,11.6s8.6-.8,10.5-4.6c1.1,1.5,3.4,3.3,2.7,5.2-2,6.1-10.4,8.6-16.1,8.8-11.7.5-21.7-4.3-21.7-17.3v-48.5h-9.7v-6.5c9.7-2.3,17.6-9,22-17.8h7.1Z"/>
  <path d="M298.9,203.6l15.6-14.8c4.4-3.9,8.4-7.9,14.8-7.3s8.6,5.6,4.8,9.5c-5.1,5.4-19.8,8.4-26.4,12.6h-8.9.1Z"/>
</svg>