<?xml version="1.0" encoding="UTF-8"?>
<svg id="Layer_1" xmlns="http://www.w3.org/2000/svg" version="1.1" viewBox="0 0 44 44">
  <!-- Generator: Adobe Illustrator 29.1.0, SVG Export Plug-In . SVG Version: 2.1.0 Build 142)  -->
  <defs>
    <style>
      .st0 {
        fill-rule: evenodd;
      }
    </style>
  </defs>
  <path class="st0" d="M27.8.9v4.1c-1-.2-2.1-.4-3.1-.8h-2.3c-3.8,0-5.7.5-8.2,1.8l-1.5.5c-4.1,2.7-7.1,6.8-8.4,11.5,0,2-.2,4.1-.2,6.1.7-.2,1.3-.6,1.8-1h.5c0-.2.2-.3.3-.5h.5c0-.2.2-.3.2-.5l1-.3c0-.2.2-.3.3-.5h.5c0-.2.2-.3.2-.5l1-.3v-.3c.3,0,.5-.2.8-.3,0-.2.2-.3.2-.5l1-.3c0-.2.2-.3.3-.5h.5c0-.2.2-.3.2-.5h.5c0-.2.2-.3.3-.5h.5v-.3h.5c0-.2.2-.3.2-.5h.5c0-.2.2-.3.3-.5l1-.3v-.3c.2,0,.5-.2.8-.3,0-.2.2-.3.3-.5l1-.3v-.3l.8-.3c0-.2.2-.3.3-.5l1-.3c0-.2.2-.3.2-.5h.5c0-.2.2-.3.3-.5h.5c0-.2.2-.3.3-.5l1-.3v-.3c.2,0,.5-.2.8-.3,0-.2.2-.3.3-.5h.5v-.3h.5c0-.2.2-.3.2-.5h.5c0-.2.2-.3.3-.5h.5v-.3h.5c0-.2.2-.3.2-.5h.5c0-.2.2-.3.3-.5l1-.3v-.3c.2,0,.5-.2.8-.3,0-.2.2-.3.3-.5h.5c0-.2.2-.3.2-.5l1-.3c0-.2.2-.3.3-.5h.5c0-.2.2-.3.2-.5h.5v-.3c.3,0,.5-.2.8-.3v.3c1.7.8,5.6,5.2,5.9,7.4-11.1,6.9-22.1,13.8-33.1,20.7v.5c.3.2.6.4.8.8.5-.1.2,0,.5-.3.3,0,.5-.2.8-.3v-.3h.5v-.3h.5c0-.2.2-.3.2-.5h.5c0-.2.2-.3.3-.5h.5v-.3h.5c0-.2.2-.3.2-.5h.5c0-.2.2-.3.3-.5l1-.3c0-.2.2-.3.2-.5h.5c0-.2.2-.3.3-.5.2,0,.5-.2.8-.3v-.3l1-.3v-.3c.3,0,.5-.2.8-.3,0-.2.2-.3.2-.5l1-.3v-.3c.3,0,.5-.2.8-.3,0-.2.2-.3.2-.5h.5v-.3h.5c0-.2.2-.3.3-.5h.5c0-.2.2-.3.3-.5l1-.3c0-.2.2-.3.2-.5h.5c0-.2.2-.3.3-.5l1-.3c0-.2.2-.3.2-.5h.5c0-.2.2-.3.3-.5.2,0,.5-.2.8-.3v-.3l1-.3v-.3c.3,0,.5-.2.8-.3,0-.2.2-.3.2-.5h.5v-.3h.5c0-.2.2-.3.3-.5h.5c0-.2.2-.3.2-.5l1-.3c0-.2.2-.3.3-.5h.5c0-.2.2-.3.2-.5l1-.3c0-.2.2-.3.3-.5h.5c0-.2.2-.3.2-.5h.5c0-.2.2-.3.3-.5l1-.3c0-.2.2-.3.2-.5h.5c0-.2.2-.3.3-.5l1-.3c0-.2.2-.3.2-.5l2-1c.1.8.4,1.6.8,2.3v.8h.2v1.3h.3v1.5h.2c.2,1.6.1,3.3-.2,4.9,0,.9-.2,1.9-.3,2.8h-.2c0,.6-.2,1.2-.3,1.8h-.2c0,.4-.2.9-.3,1.3h-.2c0,.3-.2.7-.3,1h-.2l-.5,1.5-.5.3v.5h-.3v.5c-.2.2-.5.3-.8.5v.5c-.3.2-.5.3-.8.5v.5l-1,.8-1.5,1.8h-.5l-.5.8h-.5l-.5.8-1,.3c0,.2-.2.3-.2.5l-1,.3v.3l-1.5.5v.3h-.8v.3h-.5v.3h-1v.3h-.8v.3h-1.3c-1,.3-4.8,1-6.4.5v-.3h-1.8v-.3l-1.8-.3v-4.1c1,.2,2.1.4,3.1.8h2.3c3.8,0,5.7-.5,8.2-1.8l1.5-.5c0-.2.2-.3.3-.5h.5c0-.2.2-.3.2-.5h.5l.5-.8h.5c0-.2.2-.3.3-.5.6-.5,1.2-1,1.8-1.5v-.5l1-.8v-.5l.5-.3c0-.3.2-.7.3-1h.2v-.5h.3l.5-1.5h.2v-.8h.3v-.8h.2v-1h.3v-1.3h.2v-4.6c-.2,0-.5.2-.8.3v.3h-.5v.3h-.5c0,.2-.2.3-.3.5h-.5c0,.2-.2.3-.2.5h-.5v.3h-.5c0,.2-.2.3-.3.5h-.5c0,.2-.2.3-.2.5l-1,.3c0,.2-.2.3-.3.5h-.5c0,.2-.2.3-.2.5h-.5c0,.2-.2.3-.3.5l-1,.3v.3c-.2,0-.5.2-.8.3,0,.2-.2.3-.3.5h-.5v.3h-.5c0,.2-.2.3-.2.5h-.5c0,.2-.2.3-.3.5l-1,.3c0,.2-.2.3-.2.5h-.5c0,.2-.2.3-.3.5l-1,.3c0,.2-.2.3-.2.5h-.5c0,.2-.2.3-.3.5-.2,0-.5.2-.8.3v.3c-.4,0-.7.2-1,.3v.3c-.2,0-.5.2-.8.3,0,.2-.2.3-.3.5l-1,.3c0,.2-.2.3-.2.5h-.5c0,.2-.2.3-.3.5l-1,.3v.3c-.2,0-.5.2-.8.3,0,.2-.2.3-.3.5l-1,.3c0,.2-.2.3-.2.5h-.5c0,.2-.2.3-.3.5l-1,.3c0,.2-.2.3-.2.5h-.5c0,.2-.2.3-.3.5h-.5c0,.2-.2.3-.2.5l-1,.3c0,.2-.2.3-.3.5h-.5c0,.2-.2.3-.2.5l-1,.3c0,.2-.2.3-.3.5-.4,0,0-.1-.2-.3-1.9-1-5.6-5.1-6.1-7.4.6-.1,1.2-.4,1.8-.8,0-.2.2-.3.3-.5h.5c0-.2.2-.3.2-.5l1-.3c0-.2.2-.3.3-.5h.5c0-.2.2-.3.2-.5l1-.3c0-.2.2-.3.3-.5h.5c0-.2.2-.3.2-.5l1-.3v-.3c.3,0,.5-.2.8-.3,0-.2.2-.3.2-.5h.5v-.3h.5c0-.2.2-.3.3-.5h.5c0-.2.2-.3.2-.5l1-.3c0-.2.2-.3.3-.5h.5c0-.2.2-.3.2-.5h.5c0-.2.2-.3.3-.5h.5v-.3h.5c0-.2.2-.3.2-.5h.5c0-.2.2-.3.3-.5l1-.3v-.3c.2,0,.5-.2.8-.3,0-.2.2-.3.3-.5h.5v-.3h.5c0-.2.2-.3.2-.5h.5c0-.2.2-.3.3-.5l1-.3c0-.2.2-.3.3-.5h.5c0-.2.2-.3.2-.5.3,0,.5-.2.8-.3v-.3l1-.3v-.3c.2,0,.5-.2.8-.3,0-.2.2-.3.3-.5l1-.3v-.3c.2,0,.5-.2.8-.3,0-.2.2-.3.3-.5h.5v-.3h.5c0-.2.2-.3.2-.5h.5c0-.2.2-.3.3-.5l1-.3c0-.2.2-.3.2-.5h.5c0-.2.2-.3.3-.5h.5c0-.2.2-.3.2-.5h.5v-.3h.5c0-.2.2-.3.3-.5h.5v-.3h-.3c-.2-.8-.3-.9-1.3-1-.5.7-1.3.8-2,1.3,0,.2-.2.3-.3.5h-.5v.3h-.5c0,.2-.2.3-.2.5h-.5c0,.2-.2.3-.3.5l-1,.3c0,.2-.2.3-.2.5h-.5c0,.2-.2.3-.3.5h-.5c0,.2-.2.3-.2.5l-1,.3v.3c-.3,0-.5.2-.8.3,0,.2-.2.3-.2.5h-.5v.3h-.5c0,.2-.2.3-.3.5h-.5c0,.2-.2.3-.2.5-.4,0-.7.2-1,.3v.3c-.2,0-.5.2-.8.3,0,.2-.2.3-.3.5l-1,.3c0,.2-.2.3-.2.5h-.5c0,.2-.2.3-.3.5-.2,0-.5.2-.8.3v.3l-1,.3v.3c-.3,0-.5.2-.8.3,0,.2-.2.3-.2.5l-1,.3v.3c-.3,0-.5.2-.8.3,0,.2-.2.3-.2.5l-1,.3c0,.2-.2.3-.3.5h-.5c0,.2-.2.3-.2.5l-1,.3v.3c-.3,0-.5.2-.8.3,0,.2-.2.3-.2.5l-1,.3c0,.2-.2.3-.3.5h-.5c0,.2-.2.3-.2.5h-.5c0,.2-.2.3-.3.5l-1,.3v.3l-.8.3c0,.2-.2.3-.3.5l-1,.3c0,.2-.2.3-.2.5h-.5c0,.2-.2.3-.3.5l-1,.3c0,.2-.2.3-.2.5-.4,0,0-.1-.3-.3h-.2c0-.5-.2-1-.3-1.5h-.2v-.8c-1.5-4.4-1.3-9.2.5-13.5v-.8h.2l.5-1.5h.3c0-.3.2-.7.2-1l.5-.3c0-.3.2-.7.3-1,.2-.2.5-.3.8-.5v-.5l1-.8v-.5c.6-.5,1.2-1,1.8-1.5,0-.2.2-.3.2-.5h.5c.3-.3.5-.7.8-1h.5l.5-.8,1-.3c0-.2.2-.3.2-.5l1-.3v-.3l1.5-.5v-.3c.8-.2,1.5-.3,2.3-.5v-.3h.8v-.3h1.3c1-.3,4.8-1,6.4-.5v.3h1.8v.3l1.8.3Z"/>
</svg>