<?xml version="1.0" encoding="UTF-8"?>
<svg id="Layer_1" xmlns="http://www.w3.org/2000/svg" version="1.1" viewBox="0 0 44 44">
  <!-- Generator: Adobe Illustrator 29.1.0, SVG Export Plug-In . SVG Version: 2.1.0 Build 142)  -->
  <path d="M43.5,22.7v.9c0,0-.2.2-.2.2h-6c-.1.2-.1.6-.1.9,0,2,1.2,3.7,3.5,3.3s1.5-.7,2.2-1.2c0,0,0,0,0,0,0,0,.4.4.4.5s0,0,0,.1-.5.5-.5.5c-2.5,2.1-6.9,1.5-8-1.8s-.1-4.4,1.6-5.7,6.1-1.5,6.9,1.4l.2.8ZM37.4,22.8c.9,0,1.8,0,2.7,0s.6,0,.7,0c.3-.1.2-.8.1-1-.2-.5-.7-1-1.3-1-1.2-.1-2,1.1-2.2,2.2Z"/>
  <path d="M6,15.6l4.1,10.2,4-10.2h5.2v.7c-.5,0-1.2,0-1.5.5s-.3,1-.3,1.4c-.2,2.9,0,5.9,0,8.8.2,1.3.8,1.3,2,1.4v.8h-6.6v-.8c.7,0,1.6,0,1.8-.8s.1-.7.2-1.1v-8.8s-4.8,11.6-4.8,11.6h-1.3s-4.8-11.6-4.8-11.6v8.7c0,.5,0,.9.3,1.4s1.1.5,1.7.5v.8H.5v-.8c1.1,0,1.8-.1,2-1.4,0-2.9.2-5.9,0-8.7s0-1.1-.3-1.4c-.3-.5-1-.5-1.5-.5v-.7h5.4Z"/>
  <path d="M23.4,19.6c3.5-.3,6.7,2.5,5.6,6.1s-7.4,4.7-9.5,1c-1.7-3.1.4-6.8,3.9-7.1ZM23.8,20.6c-2.9.4-2.8,7.8.5,7.5s2.9-7.9-.5-7.5Z"/>
  <path d="M32.7,17.6v2.1h2v1h-2v5.8c0,.5,0,1.3.7,1.5s1.1-.1,1.4-.6c.1.2.4.4.4.7-.3.8-1.3,1.1-2.1,1.1-1.5,0-2.8-.6-2.8-2.2v-6.2s-1.2,0-1.2,0v-.8c1.2-.3,2.3-1.2,2.8-2.3h.9Z"/>
  <path d="M37.9,17.6l2-1.9c.6-.5,1.1-1,1.9-.9s1.1.7.6,1.2-2.6,1.1-3.4,1.6h-1.1Z"/>
</svg>