<?xml version="1.0" encoding="UTF-8"?>
<svg id="Layer_1" xmlns="http://www.w3.org/2000/svg" version="1.1" viewBox="0 0 100 100">
  <!-- Generator: Adobe Illustrator 29.1.0, SVG Export Plug-In . SVG Version: 2.1.0 Build 142)  -->
  <defs>
    <style>
      .st0 {
        fill: #fff;
      }
    </style>
  </defs>
  <path d="M-257.9,367.9c0-.2.8-.9,1-1,2.1-1,14,.3,14.5-.3-.3-7.4,5-12.5,12.2-13,6.5-.5,22.3-.8,28.4.1s10.9,6.8,10.4,12.9c.5.5,12.4-.7,14.5.3s1,.9,1,1v8.7c11.4-1.8,7.3,5.9,8,13.5,5.1-.6,12.4,2.8,13.8,8s.6,20.5.3,24.8c-.6,7-7.8,9.7-14,10.3-.5,2.4.7,10.9-.7,12.3l-7.4.6v8.7c0,0-.8.9-1,1-2.1,1-14-.3-14.5.3.5,5.5-3.7,11.4-9.1,12.6s-28.2.9-32.4.1-10.1-7.2-9.5-12.8h-14.7l-.7-.7v-9.2c-1.9-.2-6.2.6-7.5-.7s0-9.9-.5-12.2c-5.6-.3-13.3-3.4-14-9.8s-.5-17.7,0-23.5,7.9-10.2,14-9.7c.3-2.3-.7-11.7.6-12.9l7.4-.6v-8.7ZM-208.9,385.1c.5-.6-1.4-15-1.9-15.8-1.3-1.8-10.4-1.7-12,0s-1.7,15.1-2,18.2h1.5s.8-3.5.8-3.5l6.7.7c1.2.8-.9,4.1,2.7,3.8s-.4-3.8,1.8-4.8l2.5,1.3ZM-234.9,374.6h-1s-.5,1.3-.5,1.3l-1.5-.3c.8,1.7-1,2.1-1,2.3s1,2.6,1.1,2.7c.4.3,1.2,0,1.5.1.5.3.4,1,.6,1,1.5,0,3.7-2.3,3.8-3.8s-1.8-.5-1-2.3l-1.5.3-.5-1.3ZM-197.9,374.6c-1.8,0-.7,1.9-3,1.2v1.6c-2,.3-.4,1.1-.2,2s-.4,1.1-.3,1.2c0,0,1.1,0,1.6.1s1,.9,1.6.9.1-.7.6-1,1.2.2,1.5-.1,1.1-2.5,1.1-2.7-1.8-.5-1-2.3l-1.5.3-.5-1.3ZM-258.9,428.1l18.6-.6c7.7-3.1,10.5-10.6,6.1-17.8s-1.9-1.6-2.1-2.4c-.4-1.6,2.3-5.2.1-9.1s-3.4-3-4.5-3h-18.2v33ZM-205.9,395.1h-22l.2,32.5h21.3s0-6,0-6h-17v-8.5h17v-5h-15.5v-5.5h15.2c1.6-1.9.4-5.1.7-7.5ZM-194.2,395.1h-7.2v33h7.5v-20l12.2,19,6.2.5.5-32.2-5-.3c-.4,7,.8,14.1-.2,21l-14-21ZM-234.9,434.6c-1.5-1.5-.9,4.6-1,5l1-2h1.7s1.3,2,1.3,2v-5c-1.9-.5-.5,1.9-1.2,2-1.5.3-1.8-.8-1.8-2ZM-228.5,434.7c-1.9.6-2.1,4,.1,4.7,4.3,1.4,5.1-6.3-.1-4.7ZM-221.4,436.1c-.2-1.2-.7-1.7-2-1.5.2,1.6-.7,4.2,1,5l.3-2.5,1.7,1,1-1,1,2v-4.5c-1.6-.3-1.5.5-2.3,1.5h-.7ZM-212.9,434.6h-3.5s0,5,0,5h3.5s-2.5-2-2.5-2h2s-2-2-2-2l2.5-1ZM-207.6,434.7c-2.8,1-.4,6.5,2.9,4.4s.8-5.6-2.9-4.4ZM-197.9,434.6h-4s0,5,0,5c1.8.5.7-1.7,1-2h2.5s-2.5-2-2.5-2l3-1ZM-232.9,442.1c-1.5-.4-2.2-1-3.5.2-3.1,2.6,1.3,6.3,3.5,3.3h-2.9c-.6-1.1-.8-2.2.4-2.8s2.1.7,2.5-.7ZM-229.5,441.6c-3.9.8-2.1,6.2,1.8,4.8s1.4-5.5-1.8-4.8ZM-221.9,443.6c-.5.3-2.1-2.8-2.7-1.5l-.2,4.5c1.9.5.6-2,1-2.5l1.3,1,1.7-1c.4.6-.9,3,1,2.5l-.2-4.5c-.6-1.2-1.9,1-1.8,1.5ZM-214.4,442.6c-.5-1.4-2.3-.9-3.5-1v5c1.8.1.5-2.5,3-2l-2-2h2.5ZM-211,441.6c-3.3.6-2.4,6.1,1.8,4.8s1.3-5.4-1.8-4.8ZM-202.5,442.1c-1-.4-3-1.1-3.7,0l-.2,4.5c1.3.5,1.2-1.5,1.7-1.5s1.2,1.9,2.2,1.5v-4.4ZM-196.9,441.6h-4s1.5,1.3,1.5,1.3v3.7c1.8.4.6-2,1-3.2s1.9-.4,1.4-1.8ZM-216.3,453.5c-.3-.1-.3-1.5-1.1-1.4l-.5,1.3-1.5-.3c.8,1.7-1,2.1-1,2.3,0,1.5,2.3,3.7,3.8,3.8s.1-.7.6-1,1.2.2,1.5-.1,1.1-2.5,1.1-2.7-1.8-.5-1-2.3c-.1-.2-1.3.8-1.9.4Z"/>
  <path d="M-43.2,442.6c-5.2-.9-7-8.3-3.2-11.7-3-1.2.8-1.4,1-2v-1.2s-1.5.2-1.5.2c.6-1.5,2.1-1,1.5-3.2l-2-.2,2-.3v-2s-1.5.2-1.5.2c.3-1.5,2.1-.8,1.5-2.7-2.5,1.3-2.5-1.8,0-.5v-9c-2.8,1.4-2.5-2.8,0-.5v-4.7s-2-1.6-2-1.6l2,.2v-1.2s-2-1-2-1l1-1c-3.2-2.1-2.4-10.6,1.7-10.2s2.5,7.8-2.7,5c.6,4.4,1.5,5.7,4.9,2.1,36.8-1.2,74.1-.7,111-.2,3,3.2,4.7,2.7,4.6-1.9-9.1,2.6-4.2-9.3.3-3.5s1,5.2.6,6.7-2.8,1.9-2.9,3.1v28c.3,1.2,2.5,1.9,2.9,3.6s.3,4.6-.3,6-3.6,3.6-4.9,3.6H29.5l.8-1.4,38.8-.2c3.3-.7,3.2-4.9,1.1-3.9s-.5,2.1-2.3,1.5c-.3-3.5,2.6-3.7,5-2,.2-4.7-1.6-6.3-5.5-3.2l-107.7.3c-2.3.2-3.3-1.4-5-2.4-1.2.2-2.5,4.2-2.2,5.4,1.2,0,1.4-1,2.7-1s2.5,1.4,2.3,3c-1.9-.2-2.2-2.9-3.9-.3-.2,2.3,5.9,2.7,7.6,2.8,11.9.8,24.7-.6,36.8,0v1.5h-41.2ZM-42.1,398.2c-1.3.6-1.7,1.8-1.9,3.1-.7,6.1-.6,20.7,0,27s4.4,3.9,8.3,3.7c20.8-.6,41.7-.7,62.5-.5,12.5,0,26,1.7,38.5.5,1.5-.1,3.2-.5,4.1-1.9l-.4-30.9-1.4-1.1H-42.1Z"/>
  <path d="M206.4,414.1h7.5v-7.2c0-2.3,6-4.3,6.5,1s-.4,13.6-.1,19.9c-.9,3.1-6.4,2.1-6.4-.4v-8.2c-2.4-.7-5.1-.7-7.5,0v8.2c0,2.3-6,4.3-6.5-1-1-9.9.8-21.4,0-31.5.7-3.7,6.5-2.1,6.5-.5v19.7Z"/>
  <path d="M281.9,417.6v-11.2c0-.1.8-1.4,1-1.5l3.7.2.7,1.4c-.3,6.1.8,13.4.1,19.4s-1.1,4.2-3.7,4.1c-4.6-.2-8.3-11-11.8-13.8v7.2c0,.1-.4.9-.5,1.5-.1,1.1.3,2.3,0,3.4-.6,1.8-3.3,2.1-4.5.6s-1.2-16.6-.9-19.5,1.1-5.5,4.1-5.2,7.9,9.6,10.5,12.6.5,1,1.4.8Z"/>
  <path d="M224.1,427.4c-1.3-1.5-1.8-4.6.4-5.6,3.5-1.6,6,5.2,10.4,2.1,2.8-5.2-4.2-6.6-7.3-9.2-8.7-6.9-2.6-17.2,7.6-16.1,2.9.3,7.8,2.5,6.7,6.1-3.2,4.7-5.2-1-8.2-1.1s-3.5,1.2-3.7,2.7c0,3.4,11.3,6.1,12.4,12.6,1.7,10.1-12.6,14.7-18.2,8.5Z"/>
  <path d="M324.5,429c-.6-.6-.6-1.6-.4-2.4.6-2.6,6.9-17.8,8.4-20.2,2.1-3.4,5.1-2.7,6.9.5s7.1,15.6,7.8,18.7-1.2,4.5-4,4-2.2-3.9-3.6-4.4c-2,.2-8.2-.7-9.4.4s-1,3.2-2.2,3.8-2.7.3-3.4-.4ZM334.4,414.1l-2,5.7c.3,1.2,5.6,1.4,5.4-.4s-2.4-6.3-3.4-5.3Z"/>
  <path d="M256.3,405.2c2.2,6.2,6.3,12.9,8.2,19.1s-5.3,6.8-6.9.8h-9.3c-1.4,1.6-1.1,4.4-3.6,4.5s-3-1.2-2.5-3.5,7-18.1,8.2-19.8,3.8-2.6,6-1ZM253.4,414.1c-1.2-.9-3.3,5.5-3,6.5h5s-2-6.5-2-6.5Z"/>
  <path d="M162.1,403.5c-1.4-1.4-.3-4,1.6-4.4s14.8-.4,17.5,0,2.5,1.3,2.2,3.2c-.5,3-4.3,1.2-6.2,1.8l-.7.7c-.4,7.3.4,14.7-.5,21.9s-6.1,4-6.9-.1.6-20.8-.3-22.1l-6.7-1.1Z"/>
  <path d="M314.6,409.1c-.2,0-1.7.6-1.8.8.2,1.6-.5,3.6.8,4.7h7.5c1.6,0,1.6,4.5,0,4.5h-8.2v5.2c0,.3,1.1.8,1.2.8h7.5c1.9,0,1.8,3.8-.1,4.4s-8.3.3-9.9.1c-2.3-.3-4.8-1.2-5.2-3.8s-.8-11.3-.5-14.5,1.2-6.1,5.3-6.7,15.1-1.3,11,4.5c-2.4.2-5.2-.3-7.5,0Z"/>
  <path d="M188.4,414.6h8.2c1.6,0,1.6,4.5,0,4.5h-8.2c-3.5,9.6,7.5,4.1,9.5,6.7,4,5-9.4,4-11.7,3.7-3.4-.5-4.6-2.3-4.9-5.6s-.4-13.7.8-16.3c1.7-3.8,10.3-3.5,14-3s3.2,3.3,1.3,4.2c-3.4,1.7-11.9-2.8-9,5.7Z"/>
  <path d="M307.8,399.7c.8.8.8,3,0,3.8-1.1,1.1-4.5.4-6.1.7l-.7.7c-.9,6.6,1,15.4-.2,21.8s-5,3.9-6.4,1.7.6-18.3-.7-22.8c-.9-2.9-4.8-.5-6.6-1.9s-1-3.6.3-4.3,15.6-.5,17.8-.3,2,0,2.6.6Z"/>
  <path d="M-4,387.6c-2.2-2.3-3.5-4.1-3-7.5,1.8,1.7,2.4,7.4,5.2,7.5s1.5.3,1.3-.8c-2.3-1.7-4.5-4.2-4.5-7.2,1.8,1.6,2.5,4.2,4.3,5.9,3.2,2.9,6.5,2.7,10.2,3.8s1.2,0,1,1.2c-2.8.2-5.5-1.3-8.2-1.5-15.1-1.4-32.2,1.1-47.5,0-1.1,0-2.4,1.1-2.9,2.1-2,3.5-.2,14.9-.8,19.7s-.4,3.6,0,8c.5,6-.7,13.2,0,19s2.8,5.8,6,5.7l-.7,1.4c-9.6-2-6.2-13.7-6.2-20.6s-.4-7.1-1.5-8-2.4-.3-2-1.7c1.7-.2,2.7-1.1,3-2.8.9-5.6-1.4-16.6,1.1-21.4s7.7-2.8,10.9-2.8c-2.6-3.2,1.8-5.7,3.5-1.7,0,.3-2.5.3-2,1.7h12.7c.3,0,1.7-4,5.6-2.1s1.3.7,1.1,1.6c-1.4-.9-4.3-2.1-4.5.5H-4Z"/>
  <g>
    <path d="M-244.1,158c4.5.8,6.4,10,1.8,11.9v.8c4.4,2,5.2,9,2.5,12.7-4.6,6.4-17.5,4.5-16.4-4.5.4-3.2,3.4-4.4,3.5-4.9.4-1.6-.4-4-2-4.7-.2-1.1,1.9-1.1,2-1.6.3-1.4.6-8.7-2-8.1-.3-.3.8-1.6,1-1.6,2.6,0,7.2-.4,9.5,0ZM-248.6,165.5c-.4,1.9.2,4.1,2.5,3.9s2.9-4.4,2.5-6.4c-.8-4.2-5.3-1.9-3.9-.2l1.6.9c-.6,1.3-1.4,1.7-2.7,1.8ZM-244.5,183.2c3.3-3.3,1.4-11.9-2.7-10.8s0,3.2.3,4.6-.2,3-1.2,2.8-3.3-3.5-3.7.2,4.4,6.2,7.4,3.2Z"/>
    <path d="M-181.7,163.7c-.1-.4-1.1-1-1.6-1,0-2,2-1.4,3.2-1.8s3.2-3.4,5.1-1.2c.1,1-.9.3-1.6,1.2s-.8,2.2-.8,3.1c-.2,2.5-.4,11.2,0,13.5s2.3,1.7,2,2.4c-.6,1.3-4.9,1.2-6.1,1-2-.3-2.4-1.2-.6-2.3-2.6.4-4-.9-3.6-3.6l1.8.8c1.9-1.8-1.7-3.9-3-5.2v6.9c0,.4,1.3,1.9,2,1.8,0,1.9-2.3,1.3-3.5,1.8s-3.8,3.2-4.8,1.2,1.1-.9,1.5-1.6c1.1-1.7,1.2-13.4.8-15.8s-.3-1-.6-1.4c-.5-.7-1.5-.5-1.4-1.4.8-1.8,9.2-1.2,7.9.6-2.8.9-2.2,3-.8,5s3.9,4.2,4.4,3.8c.2-.5-.4-.9-.4-1,0-1.5.3-5.6,0-6.7Z"/>
    <path d="M-158.9,169.4c1.9.5-1.2,3.4-1.3,3.8-.3.9,0,2.1-.1,3.1-1.2,6.7-10.9,7.1-13.2,1s-.9-10.5-.6-13.3,1.6-4.2,3.5-5.2c4.1-2.3,6.3.8,10-.9.2,1-.4,2-.4,2.9s.8,1.7.7,2.8c-.2,3.6-4.6,5.1-5.9,1.4,4.3-1.6,0-7.3-2.2-2.4s-1.1,12.2,0,14.4c1.9,4.3,5.9-1.4,3.9-4.3l-2.8,1c-.4-1,.9-4.4,1.8-4.4h6.7Z"/>
    <path d="M-203.1,179.3c1.1-3.9,7.1-3,8.1.4,1.7,5.5-4.5,8.1-9.1,7.5s-9-6-12-6.3-1.6.7-2.1-.2c-.1-1.4,1.8-2,2.2-2.6s.3-13.3-.3-14.4-2-1-1.3-1.9,7.4-1.1,7.7.2c0,.9-1.1,1-1.5,1.6-.6,1-.7,12-.4,13.8s.2,1.2.6,1.8c.8,1.2,6.8,4.5,8.3,4.4,3.3-.2,3.8-5.8-.2-4.3Z"/>
    <path d="M-222.9,161.9c.4,1.2-1,.6-1.4,1.2s.8,5.6,1.1,6.9,1.9,8.4,2.8,9.1,2.2.1,1.8,1c-.7,1.4-5.4,1.1-6.7.8s-1.8-.5-1.6-1.2c0-.2,1.9-.8,1.6-2.4s-1.8.5-2.3.2-1.8-3.9-2.4.2c-.5,1.2,1.7,1.9,1,2.6s-2.7.6-3.8,1-4.2,3.7-5.2.6c1.9,0,2.7-1.2,3.4-2.8,1-2.6,2.9-10.6,3.3-13.4s.3-1.7,0-2.5l-1.4-.6c1-2.2,9-1.6,9.9-.6ZM-226.5,173.4c.1-.2-.7-3.9-.9-4.4s-.1-1.2-.7-1.1l-.8,5.2c.9-.4,1.6,0,2.4.4Z"/>
    <path d="M-202.4,161.2c2.5-.4,6.6.7,7.5,3.4s.4,5.8,0,6.9c-1.2,4.7-11.3,4.9-12.5-.8s.2-8.7,5-9.5ZM-199.2,164.4c-1.3-1.3-4.6-.3-4.3,1.9,1.7-.8,3.3-.8,4.8.4,0-.7,0-1.8-.5-2.3ZM-198.7,169.8l-1.8.8c-.6-.1-.3-2.6-1.6-2.4s-1.2,1.1-1.3,1.5c-1.3,4.5,5.7,5.1,4.7.1Z"/>
  </g>
  <path d="M50,387.6c-1.1-2.4-3-1.2-5-1,.7-1.9,3.3-1.9,4.9-1.1s1.1,1.9,2.4,2.1c5.6,1.1,14.5-.9,20.5,0s4.5,3,4.8,6.2-1,17.1,1,19.5,2.8.7,2.5,2.2c-2.4,0-3.1,1.1-3.5,3.3-.8,5.5,1.6,20.1-1.8,23.7s-4.1,2.6-5,2.5c-2.8-.4,2.1-2,2.4-2.1,5.6-3,2.8-14,2.8-19.1s1.5-6.9,1.5-8.9-.9-2.9-1-4.5c-.3-5.2.6-11.5,0-16.5s-1.6-4.5-3.7-4.8c-6.4-.8-16.2,0-23,0s-15.1-.7-23,0-7.9,1.8-9.4,1.4-.9-.5-.9-.9c3.9-.4,7.9-1.3,11-3.8s3.2-4.2,5-6.2c.2,2.2-1.7,4.4-3,6.1s-3.2,2.4-.3,1.8,3.6-4.3,4.3-6.2-.4-1.4,1.1-1.2l-.2,3.5-2.8,4h18.5Z"/>
  <path d="M14,356.2c.5,3.4,1.5,1.9,3.2,2.1s.9.9,1.5.8.9-.9,1.1-.9c.4,0,.8,1.5,1.2,1.8s1.2-.3,1.7-.3,2.6,2.2,2.8,2.3c.4.3,1.4-.4,1.5-.3-.4,2,1,1.2,1.4,1.6s-.4,1.7,1.5,1.4c-.3,2.8.9,1.6,1.4,2.1,1.3,1.2,2.1,5.2,3.6,7.1,2.1,2.8,7,5.6,10.5,4s3-3.7.3-3.3-.5,1.9-1.8,1.5l.2-2.5,3.7-.4c2.9,6.2-4.6,7.8-9.1,5.8s-6.3-7.8-9.1-11.4c-7-9-20.4-10.6-29.2-3.2-5,4.1-5.9,11.9-12.3,14.6-2.9,1.2-7.9,1.3-9.3-2.1-2.2-5.2,7-5.3,3.9-.9l-1.5-2-1.2,1.3c0,2.8,4,3,6.2,2.6,3.9-.6,8.7-5.9,8.3-9.9h1.5s-.5-2-.5-2l2,.5-.5-2c1.5.3,1.6-.8,2.2-1.3,1.1-.9,2.6-2.1,3.8-2.9s1.1.3,1.5,0c.7-.5,0-1.9,2.2-.8l.8-1.5h.9c0,0,.3,1,.3,1,.7,0,1-.7,1.6-.9,2.2-.5,1.1,1.1,2.7-1.8s.4-.4,1-.3Z"/>
  <path d="M22.4,385v-1.3c6.4-.5,8.5-7.6,6-12.8-4.5-9.4-19.9-10.9-26.9-3.6-5.7,6-4.7,15.9,4.5,16.7l-.4.9,1.4,1.6c-4.1,1.1-9.3-3.9-10.3-7.5-3.1-12.1,11.7-20.8,22-17.5,7,2.2,13.5,8.3,12.2,16.2s-6.5,11.1-11,8l2.4-.8Z"/>
  <g>
    <path d="M379.7,210.8c1.5,1.8-1.1,3-1.4,4.7s-.4,6.9,2.7,4.3c.6-.6-.7-1-.9-1.6-.6-2.2,4.5-2.4,5.9-2.2s1.7.6,2.6.9c.3,1.4.1,2.7-1.2,3.4s-2,.3-2.4,1.1c3,0,6.9,2.9,5.8,6.2s-9.7,1.9-10.3,0,1.3-2.7,1.1-3.8-1.5-2-2.5-2c-2.5,1.8,1.9,3.6.9,5.7s-9.4,2.1-10.4,0,1.1-2.4,1.4-3.8.2-7.7,0-8.8c-.5-2.7-6.3-1.8-6.1,1.2s5.6-.9,5.8,3.1-5.2,5.9-7.5,2.4-.7-8.6,2.9-10.4,12.2-2.2,13.8-.3Z"/>
    <path d="M373,241.2c-.4,1,.9,1.9,1.7,2.1,2.3.5,5.4-2.5,5.9,1.8.8,7.1-7.5,7.5-9.8.3s-.6-4.1-1-4.2c-1-.2-.8,2.9-.8,3.5.2,1.9,2.6,2.6,1.3,4.9-1,1.3-8.6,1.2-9.9.1s.8-3.3,1-4.5.1-8.1-.2-9-3.2-3.3.2-4.5,11.6-.6,14.3.1c7,1.9,3.7,9.8-2.6,9.2ZM369.6,234.2c-.6.2-1.2,4.6.5,4.5,2.7-.2,2.1-5.4-.5-4.5Z"/>
    <path d="M448.9,216.7c-.9-.9-1.4-3-2.8-3.4-6.1-1.9-4.8,12.4.4,14.2,2.3.8,3.4-2.5,2.2-4s-4.1-2-2.2-3.9,9.7-1.4,10.5.2c1.1,1.9-1,3-1.3,3.9-.5,1.7.7,3.1-1.3,4.8s-9.7,2.4-12.8,1.6c-8.4-2.3-9.3-14.2-1.5-18s9.4-1.8,12.2,0c3.3,2.1.1,7.9-3.2,4.6Z"/>
    <path d="M420.4,218.6c.9.6,2.1-1.3,2.9-1.7,2.8-1.6,7.8-1.5,8.9,2s.1,3.6.4,5.1,3.1,3.6,0,4.7-8.8.9-9.2-1.6,2-2.7,1.9-5.5c-.2-6.5-5.4-1.8-4.2,2.4s2.6,2.4,1.2,4-9.3,1.5-10.2-.5c-1-2.1,2.7-3.2,1.4-6.3s-2.5-2.4-1.1-4,6-1.2,7.3,0,.7,1.4.8,1.5Z"/>
    <path d="M389.8,237.7c4.2-.5,10.8.5,11.3,5.6s-.3,4.6-2.4,6.1c-3.9,2.7-15.2,2.5-16.2-3.4s2.3-7.7,7.2-8.3ZM393.4,248.2c1.7-1.8-.4-8.8-2.8-8.1s.5,10.5,2.8,8.1Z"/>
    <path d="M393.6,217.8c1.8-2.3,11-2.5,13.5-1s1.4,4.3,1.7,6.5,2.3,2.5,1.4,4.4-4.9,1.3-6.3.8-1.1-1-1.7-1.1c-1,0-1.5,1.3-2.8,1.5-2.2.4-6.7.3-7.1-2.7-.6-5.2,10.9-2.1,8.8-7.9-2.4-1-2.7,2.7-4.3,3.4-2.7,1.2-4.7-2.3-3.3-4ZM401.5,222.9c-.7-.2-.5.2-.7.4-2,2.3-.1,5.2.6,2.4s.1-1.8.1-2.8Z"/>
    <path d="M410.9,245.4c.7,4.2,5.7.4,6.1.8-1.4,4.7-7.1,6.3-11,3.5s-2.4-5.5-2.5-8.8c-.3-.9-1.9.1-1.8-1.9s1.5-.9,2.5-1.8,1-2.3,1.3-2.5,4.3-.8,4.9-.6l.5.5c-1.2,6,6,1.2,6.1,5.8,0,3.4-4,2.1-5.4.2l-.6.3c.2,1.4-.2,3.3,0,4.6Z"/>
    <path d="M422.5,238c1.3-.1,6-.1,6.6,1.1,1,2.1-1.2,3-1.4,4.4-.4,3,2.2,3.3,1.5,5.8s-9.4,1.8-10.2.2,1-2.9,1.3-3.9c1-3.2-2.2-3.8-1.4-6.3s2.6-1.2,3.5-1.3Z"/>
    <path d="M419.3,235.7c-1.4-1.7.4-3.8,2.3-4.1s8.2-.6,7.7,3.1c-.4,3.1-8.4,3-10,1Z"/>
  </g>
  <path d="M32.8,357.8c.3.3,2.9,2.9,3.2,3.2,1.6,2,2.9,5,4,7.4,3,.6,5.6-.3,8.5,1s1.2,0,1,1.2l-10-.7c-3.2-7.1-7.5-12.5-14.9-15.6s-9-3.1-10.9-3.1-9.3,2.5-11.2,3.3c-7.3,3.1-11.3,8.5-14.5,15.5l-10,.7c-.2-1.3.2-.9,1-1.2,2.9-1.3,5.5-.4,8.5-1,3.1-8.5,9.5-13.7,18-16.5,3.3-1.1,6.4-.2,8.3-4.2,1,3.9,4.4,3,7.5,4s8.6,3.6,11.6,6.1Z"/>
  <g>
    <path d="M174.5,201.5c1.2-11,9.7-21.7,19.8-25.9,21.9-9,44.4,6.1,45.8,29.4.6,10.5-.3,21.6-.2,32.1,0,.2-.8.9-.9.9h-63.8l-.7-.7v-35.9ZM206,175.5c-1.1-.3-7.8.5-7.9,1.5l2.6,9.5,5.3-1.1v-10ZM208.2,175.5v10l5.3,1.1,2.6-9.5c-.2-1.3-6.6-1.6-7.8-1.5ZM196.2,177.8c-.9-.9-6.6,2.9-7.5,3.8l6,9,4.2-2.7-2.7-10.2ZM220.1,190.1l5.3-8.6c-.2-.9-5.5-3.8-6.8-3.8-.6.2-3.1,8.5-3,9.5s4,3.1,4.4,2.9ZM180.7,191l9.1,4.8,2.8-3.3-5.9-9.5c-1.1.8-6.6,7-6,7.9ZM223.7,195.4l9.7-5.1c-1.4-2.8-3.7-5.1-6-7.3l-5.8,8.8,2.1,3.5ZM212.8,209.5l7.2,6.8c1.3.2,3.2-4.1,3.6-5.2,5.2-15.5-11.8-28.8-25.6-20.2s-10.9,18-3.8,25.9l11.3-11.3c-.9-1.4-7.4-6.2-6.2-7.7s1.1-.3,1.3-.2c1.3.6,5.1,6,6.4,6,2.1-.5,5.6-7,7.8-5.6s.3,1.1,0,1.7c-.9,1.5-5.3,4.7-5.7,5.9l3.7,4ZM237,200.3c.6-.6-1.7-7.3-2.5-7.5l-9.1,4.7,1.2,3.7,10.3-.9ZM188.6,197.7l-9-4.5c-1,.3-2.4,6.2-2.5,7.5l10.4.8,1.1-3.9ZM237.4,202.6l-10.2,1.1-.4,3.5,10.4,3.8c1.4-.1.3-7.1.2-8.4ZM176.7,203.7v7.1l.9.5,10-3.6-.6-3.4c-.4-.3-8.4-1.1-9.5-1.1s-.6,0-.9.5ZM200.6,235.8v-11.3c0-.1,1.1-1.9,1.3-2.2,2.6-3.5,8-3.4,10.4.3s.4,8.8,1.3,12.8c.6.9,4.7.5,5.7,0s7.7-7.5,7.8-8.2l-19.3-19.3-1.1-.2-19.9,19.5c4.4,3.6,7.1,10.1,13.7,8.6ZM237.9,222.1v-8.2c-2.2-1.1-8.7-3.8-10.9-3.7s-.7,0-.8.4l-1.1,3.3,11.3,7.8,1.6.4ZM176.7,214.3v7.8c.7.2,1-.3,1.5-.5,1.7-.9,8.8-5.6,10-6.8s.4-2.2,0-4.1c-.5-.4-11.2,2.9-11.5,3.7ZM176.7,225.4v8.2l15.5-15.3-2-2.4-13.6,9.5ZM237.9,233.6v-7.8c0-1-12.1-8.4-13.7-9.8l-2.2,2.3,15.9,15.3ZM203.3,235.8h7.3l.7-.7v-9.7c0-2.8-5.2-4.8-7.3-2s0,8.7-.7,12.4ZM178.9,235.8h12.4c.2-.7,0-.8-.3-1.3s-5.7-5.4-6-5.3c-1.6,1.7-4,3.5-5.4,5.3s-.9.6-.7,1.3ZM235.7,235.8c.2-.8-.3-.9-.7-1.3-.6-.8-5.2-5.3-5.8-5.3l-6.2,5.8.4.9h12.2Z"/>
    <g>
      <path d="M209.8,266.1c0,.3.7.9.4,1.5h-3.1s0-19,0-19h3.1c-.8,1.9.3,4.1,1.8,5.3l-.4-5.3h3.5c-.5.7-.8,1-.9,2-.5,3.6-.1,10.3,0,14.2s.5,1.9.5,2.9h-3.1s.5-6.8.5-6.8l-1.8-1c1.8-2.1,2-5.2-.4-6.9.3,4.2-.4,8.9,0,13.1Z"/>
      <path d="M216.8,248.3c2.4-.7,5.9,0,6.3,2.8s.3,11.8,0,13.6c-.8,3.4-5.9,4.3-7,.5,1.8-5,.2-10.8.2-16.1l.5-.8ZM220.4,249.6l-1.3.2c.6,2.3-.7,11.4,0,12.7s1.4.4.9,2.1l-2.2-.3-.4,2c2.7.2,3,0,3.4-2.6s.3-13.8-.4-14.2Z"/>
      <path d="M230.1,249.2c.5.5.9,2,1,2.7.3,2.5.3,9.9,0,12.4-.7,4.3-5.7,4.3-6.5.8-.5-2.1-.3-13.4.6-15.2s3.5-2.2,5-.8ZM228.9,253.1c.2-1.5-.7-4.7-2.7-3.3s2.4,3.6,2.7,3.3ZM227.7,254.3c-.3-.2.1-.9-.6-.7.6,4.3-1.8,9,.7,12.8,1.3,0,1.1-10.5,1.1-11.7-.1-.4-.8-.1-1.2-.4Z"/>
      <path d="M235.5,266.6c0,.1.5.3.3.7-.5.7-3.1.7-3.2-.2v-18.2s.6-.6.6-.6h2.8c0,0-.4,9.2-.4,9.2l-1.5-.4-.5.9c2.4,2.7,4.5-1.5,4.6-3.8s-1.3-4.1,1.1-5.9c1.7,0-.3,1.8-.2,2.8s.9,2.1.9,3.6c0,2.6-2,3.3-2.3,5.5l1.7.6c-.8,2.4-.4,4.6.6,6.9l-2.5-.4-.6-6.9-1.4-.3c0,2.1,0,4.3,0,6.4Z"/>
      <path d="M202.2,248.3c1.4-.3,3,.7,3.5,2.1s.4,12.6,0,14.3c-.8,3.8-5.4,4.1-6.3.3s-.4-12,.4-14.3,1.2-2.3,2.4-2.5ZM201.9,254.4c-.3.5,0,9.7,0,11.3s1.6.3,1.8-1.7.4-10.6,0-12.9-4.6-1.6-2.7,1.4l2.2.8c-.2,1.1-1.3,1-1.3,1.1Z"/>
      <path d="M184.2,249.2c1.6-1.6,3.8-1.1,4.8.9,1.5,2.9.4,6,.3,9s.8,3.5,0,6.1-5.5,3.2-6.1.1-.3-10.9,0-13.3.5-2.3,1-2.7ZM187.2,253.5c.2-2.3.2-4.3-2.7-4l.2,1.8,2.4,2.2ZM187.2,254.4l-1.8-.9v11.7c0,0,1.2,1.2,1.3,1.1-.1-.5.4-1,.4-1.1v-10.9Z"/>
      <path d="M194.3,267.7h-3.1s0-18.8,0-18.8c.3-1.4,4.4-.6,5.5.2,2.3,1.7,2,8.4-.2,10s-2.3.6-2.6,1.4l.4,7.2ZM195.6,250c-1-.2-1.6-.8-1.8.7s1.4,6.3.9,6.9c-1.3.4-.5-1.1-1.5-.9-2.4.4-.8,3.4,1.7,1.8s.7-1,.7-1.1v-7.3Z"/>
      <path d="M180.9,249.2c1.3,1.2,1.2,6.5.7,8.2-.8,2.6-4,2.3-4.2,3,.2,2.2-.6,4.7.9,6.6-.8,1.1-2.3.6-3.5.7.7-2,1-3.4.9-5.6s-.9-3.4-.9-4.9.9-5,.9-6.7-1-1.1-.8-2c1.7-.3,4.7-.8,6.1.6ZM179.2,253.5c.5,2.6-2.1,2.5-3.5,3.8,3.8,5.8,6-6.9,2.2-7.8v4.9s1.3-.9,1.3-.9Z"/>
    </g>
  </g>
  <path d="M-8,459c3.9,8.8,12.8,11.2,21.3,13.5,6.7-1.6,13.5-2.9,18.5-8s2.4-3.4,3.6-4.9.4-1.4,1.2-.4c-1.5,5.5-7.6,9.9-12.7,11.7s-8.1.7-10,4.5c-2.9-4-8-3.4-12.2-5.2s-9.3-6.3-10.5-11l1-.3Z"/>
  <path d="M-29.5,381.6l-5.3-4.9c-2.4-2.4-9-1.8-7.3,2.3s6.2,1,8.6,4.1c-.6-3.3-3.9-4.9-7-4-.4-3.9,2.8-2.4,4.8-1.1s4.3,5.1,5.7,8.1c-1-.1-2.3.2-3.2,0-1.3-.5-.5-4-5.1-3.5s-1.7,3.5-4.2,4c-.7-1.3,1.6-4.2,1.5-4.7s-5.2-3.5-1.2-6.8,12.5,1.4,12.7,6.5Z"/>
  <g>
    <path d="M-9.5,243.1c-5.1,5.4-13.5,5.1-20.3,6.5.5-.9.8-1.5.9-2.5.2-2.1.3-11.8-.4-13.3s-1.6-1.8-1.5-1.9c1.1,0,1.6,0,1.8-1.1.3-1.7.2-8.5,0-10.5s-.3-1.6-.9-2.3l.4-.5c5.1-.3,10.8-3.3,15.6-1.1,3.8,1.7,4.1,5.9,2.1,9.3,7.1,3.7,7.3,11.8,2.1,17.3ZM-22.9,226c7.9.7,9.8-7.2.4-4.8l-.4,4.8ZM-22.9,243.3c4.4.7,11.1-2.6,11.3-7.5s-7.7-6.7-11.3-4v11.6Z"/>
    <path d="M17,207l-5.9.9c.4-3.4,1-8.6.5-12-.2-1.1-.9-1.6-1-2.2s.8,0,1-.9c.4-3,0-7.7-.5-10.7,5.3-.4,13.2-4,17.3,1.1,3.9,5,0,11.1-4.5,14.2-.3,1,3.7,7.2,4.7,8.3,2.6,2.9,5.1,3.7,9.1,3.2s4.7-2.7,4.2.1c-.8,4.8-8.2,4.6-11.7,3.3-5.8-2.2-8.2-8-11.1-12.9-3.7-3.3-3.7,5.9-2,7.7ZM16.1,185.9v8.6c0,1.2,5.3-.3,6.1-.7,2.5-1.3,3.8-4.5,2.7-7.1s-6.7-2.5-8.7-.8Z"/>
    <path d="M5.2,231.5c4.4-1,9.4-.7,13.2-3.6,0,1.2-.2,2.6,0,3.8s1.3,1.5,1.3,2.6l-21.3,3.2c1.5-4,1.6-10.2-.5-14.1H-.7c.1-3.4,1.1-7.8-1.3-10.4l21.8-3.6c-1.9,2-1.4,3.9-.9,6.3-4.6-1.1-8.8,0-13.3.9l-.3,5.9c5-4.6,10.1,2.3,14.3-2.3.5,1.8-3.4,5.4-5.1,5.8-3.4.8-6-1.1-9.2-.8v6.4Z"/>
    <path d="M-15.2,196.5c0,.1,1.1.2,1.5.5,4.4,3.2,3.5,8.7.3,12.4s-10.7,4.7-16.3,5.7c.4-2.5,1.1-10.7.2-12.7s-1-.8-1.1-1.4l1.4-.3-.3-11.1c4.1-.5,10.1-3.5,13.7-.4,2.5,2.2.3,6.7.7,7.2ZM-24.7,196.1c2.7.3,6.4-.1,5.3-3.7-.7-1-3.6,0-4.7.1l-.6,3.5ZM-24.3,200.2c.2,1.3-.4,2.6-.5,3.8s0,2.6,0,4.1c-.2,4.3,7.6.7,8.8-2.2,2.4-5.9-3.8-7.2-8.3-5.8Z"/>
    <path d="M-29.7,277.3c.4-3.4,1-8.6.5-12s-.9-1.6-1-2.2.8,0,1-.9c.4-3,0-7.7-.5-10.7,4.2-.6,10.2-2.1,14,.3,7.1,4.4,6.1,14,1.2,19.7-4.1,4.8-9.3,5.4-15.2,5.9ZM-24.3,254.6v17.7c5,.4,11.1-6.6,7.7-11.1,2.9-1.1-1.7-6.1-3.5-6.5-1.3-.3-2.9,0-4.2,0Z"/>
    <path d="M17,253.7c1.1.3.8-.3,1-.6,1.3-1.5,4.9-5.9,5.7-7.4s0-1.7.5-2.7l6.4-.9-8.9,13.2,8.7,12.5c.3,1.3-5,1.1-6.2,1.4v-2.1c.1,0-5.7-7.4-5.7-7.4-2.7,1-1.8,8.6-.7,10.9l-5.9.5c1.5-2.1.5-3.7.4-5.6,0-2.9.6-6.2-.9-8.6,2.4-.9.9-2.5.9-4.5s.8-4.7-.4-7l5.9-.9c.3.8-.9,1.7-.9,2v7.5Z"/>
    <path d="M8.9,250.5c-4-1-8.2.2-12.2,1,0,.8-.3,4.4.6,4.5,3-2.9,5.8,0,8.2,0s2-1.2,3-.6c-1.5,2.5-3.1,4-6.1,3.9s-4.3-1.5-5.3-.3l-.4,10.5,12.3-2.5.5,5-17.7,2.3c.7-3.7.8-7.8.4-11.5s-.8-1.9-.7-2.3,1.1-.8,1.1-1.7c0-1.6,0-6.8-.4-8.3s-1-1.2-.9-2.1l18.2-2.7c-.4,1.8-1.1,3.1-.5,5Z"/>
    <path d="M3,183.8l-1.3,3.3,4,13.9,1.8-.9c-1.7,3.2-.4,5.6.9,8.6l-5.9.9v-4.5c-1.7.2-5.3-2-6.6-.5s-1.6,5.2-.7,6.4l-6.4.9c.6-1,1.2-2,1.6-3.2.5-1.7,1.8-6.4,2-8s-.6-3.7-.4-3.8,1.1.3,1.4-.3,2.1-7.5,2.2-8.2c.1-1.5-.6-1.9-.8-3.3l8.2-1.4ZM.7,200.6c.3-.2-1.3-4.7-1.6-5.4s0-1-.7-.9l-1.4,6.8,3.6-.5Z"/>
    <path d="M19.8,237.4c-3.9,8.8-14.6,3.5-21.8,6.8,3.5-6.2,10.4-4.1,16.1-5,2.2-.4,3.7-1,5.7-1.8Z"/>
  </g>
  <path d="M70,386.6h-1.5c.7-3.4-2.6-5-5.5-3.7s-1.2,4.6-5.5,3.2c1.2-3.1,3.4-7.2,6.6-8.7,4.7-2.2,4.3,2.1,2.7,2.1-1.8-3-6.9,3.4-6.3,4.1,2.2-3.6,9.9-1.1,9.4-6.1s-7-1.5-9.1.2-2.8,3.9-3.1,3.9c-2.8.9.4-3.4,1-4,2.5-2.6,8.8-5.5,11.6-2s-1.5,5.2-1.7,6.4,2.1,3.3,1.4,4.7Z"/>
  <path d="M32,449.1c-3.1,19.3-32.2,19.8-36.5.8l1.5-.3c2.6,14,22.1,17.6,30.7,6.5s1.9-3.9,3-6,0-1.2,1.3-1Z"/>
  <g>
    <path d="M-392.1,193c8.6.7,12.2,6.3,11.3,14.7s-6.7,10.3-13,10c6.1,3.5,7.7,10.8,11.2,16.2,1.1,1.7,3.3,4.9,5.5,3.1s2.4-3.1,1.8-1.1c-1.5,5.2-8.4,2.2-10.9-.9-3-3.9-7.2-14.2-11-16.5s-3-.5-3.7-1.7h7.2c2.9,0,6.9-3.5,8-6.1,4.2-9.1-2.5-18-12.3-16.9.9,2.1,5.6,11.4,7.3,11.8s1.1-.8,2-.7c.1.7-.5,1.1-1.1,1.3-6.2,2-8.2-11.7-13.4-12.8l.2-.7c.3,0,.6.4.7.4,3.2,0,6.9-.3,10,0Z"/>
    <path d="M-396.3,214.5h-5.8c-4.7,0-9.4,4.6-10.1,9.2-1.3,9.2,4.4,14.3,13.3,14.2.2-.2-.8-2.1-1-2.5-.8-1.5-4.2-7.8-5.1-8.6-2.1-1.9-3.3.5-3.5.3.3-1.9,1.8-2.1,3.4-1.8,4.8.9,6.4,11.4,11.4,13.1-2,.3-4.1.3-6.1.2s-7.6-.3-9.9-1.2c-8.5-3.3-8.4-18.6-.2-22.3s4.4-1,6.6-1.5c-5.6-3.4-7.2-10-10.4-15.2s-5.1-7-7.6-1.7c-.2-4.8,5.2-4.5,8.3-2.4,5.1,3.5,8.5,15.9,13.3,18.7s2.7.5,3.5,1.5Z"/>
    <path d="M-385,251.6c2.5.5,2.7,4.8.2,5.6v.5c1,1.2,3.2,5,4.9,4.7l4.9-11.1c.6,0,3.6,9.6,4.6,10.9s1,.2,1.5.2l-3.5.4-1.6-3.7h-3.4s-.8,2.7-.8,2.7l.8.9c-2-.2-4.5.6-6.1-.7s-1.8-2.8-2.6-3.4c-2.5-1.9-1.5,2.2-1.7,3.5l1.1.6h-4.1c-.1-.6.7-.4.9-.7.4-.6.5-9.3-.6-10.4,1.6.2,3.9-.3,5.4,0ZM-387.8,257.6c4.1.6,4.2-5.8,0-5.2v5.2ZM-374.1,258.3l-1.3-3.7-1.3,3.7h2.6Z"/>
    <path d="M-399.8,251.4c9.1-.1,7.5,12.6-.8,11.7s-7.2-11.6.8-11.7ZM-397.2,253.2c-1.2-1.1-3.8-1.3-5.1-.3-3.5,2.6-.7,11.3,4.4,9.2,2.7-1.1,2.6-7.1.7-8.9Z"/>
    <path d="M-442.2,251.6c1,.2,2,1.7,2,2.8,0,1.8-2,2.6-1.8,3.6,1.6,1.5,2.7,4.5,5.2,4.3,0,.6-1.7.4-2.1.4-3.7-.5-2.9-4.9-6.5-4.5.1.9-.3,3.1.2,3.7s1.4,0,1.3.7h-4.1c-.2-.6.7-.2.8-.6s.4-3.2.4-4c0-2.2-.2-4.4-.8-6.5,1.6.2,3.9-.3,5.4,0ZM-445.3,252.4v4.6c0,0,.6.6.6.6,4.2.4,3.5-5.9-.6-5.2Z"/>
    <path d="M-348.5,262.4c0,.6-.5.3-.9.4-.9,0-1.9,0-2.8,0-.3-2.7-.5-4.1-3.6-3.7s-2.1,2-2,3.2.9,0,.8.6h-3.3s1.5-.9,1.5-.9l4.3-10.5c.7,0,3.5,8.9,4.3,10.1s.9,1,1.8,1ZM-353.7,258.3c.1-.1-.8-3.6-1.5-3.7l-1.1,3.7h2.6Z"/>
    <path d="M-429.4,251.6v1.5c-1.3-.5-2.2-1-3.7-.7v4.1s3.3,0,3.3,0v1.5c-1-.9-2-.8-3.3-.7v4.2c.4,1.1,3.3.8,4.1-.1v1.4c0,0-7,0-7,0,0-.6.6-.2.9-.8.4-.9.4-7.8.2-9s-.6-.8-.7-1.3h6.3Z"/>
    <path d="M-361.8,251.6v2.2c-.6,0-.4-.7-.9-1.1-1.1-.9-3.2-.7-3.2.9,0,2,4.6,3,4.5,6.3-.1,3.2-3.8,3.7-6.2,2.8v-2.9c.6.1.3,1.2.9,1.8,1.1,1.4,3.5.9,3.9-.9-.6-2.7-4.5-3.4-4.5-6.3,0-3.3,3.2-3.1,5.6-2.8Z"/>
    <path d="M-407.5,251.6v1.9c-1.2-.9-2.9-1.8-4.1-.6v8.5c0,1.1,1.3.6,1.5,1.3h-4.5c-.1-.7,1.1-.3,1.1-.4v-10c-1,0-2-.1-3,.2s-.4.9-1.1,1l.6-1.9h9.5Z"/>
    <path d="M-420.1,251.6v1.8c-1-1.7-3.8-2.1-4,.2.2,1.9,5.6,3.4,4.4,7.3s-7.1,3.4-6.2-.5c1.1-.2.9,1.2,1.9,1.7s3-.3,3-1.8c-.1-2.3-5.4-3.4-4.3-6.9s3.5-2.2,5.4-1.8Z"/>
  </g>
  <path d="M-.5,450.6c3.6,10.2,18.4,12.8,25.5,4.8s3.3-5.5,4-4.7c-3.4,11.7-20,14.2-27.8,5.3-.6-.6-4.3-5.7-1.7-5.3Z"/>
  <path d="M45.9,444.2l.4.9,2.2-1c0,1.4-.9,2.5-2.3,2.5s-.6-1-1-1-5.2.5-5.8.6c-2.8.6-5.3,3.2-8.9,1.4.7-4.8,7.6-2.3,10.7-2.5s3-.8,4.6-.9Z"/>
  <path d="M49.5,381.1h2c1.9,1.6-5.8,1.9-6.1,2s-.2,1-1.1,1c-1.9.1-2.6-1.1-3.8-2.3l4.1-.4c4.9-1.3,6.3-4,4.9-8.9,2.4.2,2.3,3.9,1.8,5.5s-1.8,1.7-1.8,3Z"/>
  <path d="M-22,373.2c-3,4.3,2.1,8.2,6.3,8.5s2.7-1.2,2.5.4c-1.2,1.4-2.3,2.5-4.4,2s-.3-.9-.7-1c-1.6-.4-4.2.3-5.6-1.3l2-.7c.5-.5-3.6-3.9-1.9-7.1s.8-1,1.9-.9Z"/>
  <path d="M55.5,444.1c-3.7,5.9-5.2,15.6-14,8.7,1.3-.5,2.7.3,4.2.3,5-.2,5.1-5.5,7.8-8.2s.7-1.1,1.9-.8Z"/>
  <path d="M-3,447.5c-3.6,1.9-6.2-.8-8.9-1.4s-6.3-1-6.4.4c-1.6.2-2.9-.8-2.7-2.5.3-.4,7.1,1,8.2,1,3,0,9.1-2.3,9.7,2.4ZM-4,447.1c-1.1-2-3.6-1.5-5.5-1.5,1.1,2,3.6,1.5,5.5,1.5Z"/>
  <path d="M-14,452.6c-7.7,7.3-11-2.6-14-8.5,3.6,1,4.1,6.4,7,8.2s4.5.5,7,.3Z"/>
  <path d="M4.5,434.6c0,2-.5,3.9,1,5.5l-2-.5c-.3,3.8,5.1,1.7,2.9-1.2s-1.6-.6-1.4-1.3l1-.3-.5-2.2,1.5.3c.2,2.8,2.5,8-2,7.7v5.5s-1.5,0-1.5,0c.3-1.5.8-3.2.5-4.8s-2.1-1.1-1.8-3.3,1.2-.7,1.3-1.7-.3-2.5-.5-3.8h1.5Z"/>
  <path d="M26.5,450.6c.2,2.8-2.4,2.8-4.1,3.5s-.2,1-1.1,1c-2.1.1-4.5-1.7-4.8-3.8s0-.9.8-.7l1.7,2,.5-2.5c1.6,1.2,2.3,2.6,4.6,1.9s1.2-1.6,2.3-1.4Z"/>
  <path d="M8,450.6l.8,1.5,1.7-1.5c.4,3.3-2.6,4.7-5.5,4.5l.5-1c-1.9.2-5.1-1.4-4.3-3.5,2.3,2.6,4.2,1.2,6.7,0Z"/>
  <path d="M-27,373.6c-2.5,5.1,0,7.5,4,10.2-1.2,1.7-1.6-1.1-3-.7v3.5c-1.5.2-.8-.4-1-1.2-.8-3.3-1.9-6.3-2.9-9.5.2-1.8,1.2-2.5,2.9-2.2Z"/>
  <path d="M54.5,386.6c-1.7.3-1.4-2.4-1.5-3.5-1,.2-1.4,2.3-2.5.7,3.7-2.5,6.3-5.3,4-10,0-.5,2.1-.5,2.4.6,1.2,3.8-3.7,8-2.4,12.2Z"/>
  <path d="M-40,444.1c.8.7,1.4,3.1,3.5,3.8s3-.8,4.3-.8c2.7,0,1,4.6,2.7,6-2.3.3-2.8-2-2-3.7l-.7-.7c-2.7,2.5-8.4-.7-8.8-3.8s.6-1.1,1-.7Z"/>
  <path d="M36,378.6c.5,1.3,1,3.3,1.8,4.5,1.3,1.8,1.1.1,2.7,0l1.5,3.5c-1.4.9-4-1.4-4.3-1.4-.4,0-1.5,2-2.7,1.4,1-2.6.9-5.1,0-7.7l1-.3Z"/>
  <path d="M-7.5,378.6c-.8,2.8-1.7,5.2,0,8-1.8.3-1.9-.1-2.7-1.5-1.1,1.3-2.6,1.7-4.2,1.5l1.5-3.5,1.7,1c1.5-1.1,1.7-3,2.5-4.5s0-1.2,1.3-1Z"/>
  <path d="M68.5,444.1c-.5,4.5-5.6,6.5-9.5,4.5.5,2,.9,4.7-2,4.5,1.7-1.4.3-4.4,1.7-5.5s2.3.4,3.6.6,3.6-1.2,4.6-2.1.1-2.2,1.6-1.9Z"/>
  <path d="M40,453.1c-.5,2.7,1.9,7.2,4.3,8.4s4.7.7,3.7,2.1c-1.8,2.3-8.3-3.9-8.9-6.9s-.8-4.2.9-3.6Z"/>
  <path d="M-20.5,463.5c0-1.9,2.3-1.3,3.7-2.1,3.3-1.7,3.8-5.3,4.6-8.4,4.1,3.6-6.2,13.1-8.2,10.5Z"/>
  <path d="M19,456.1c-1.2,3.2-9.3,3-10.5.7s4.5.2,4.8.2c2.1,0,3.6-2,5.7-1Z"/>
  <path d="M13,445.1c2.1-.3,2.4-1.6,1-3l1.5.2c1.5,1.2-.5,2.7-.4,3.4s1.3,1.3.9,2.3l-3-2.5v2.5s-1.5,0-1.5,0c-.1-2,1-3.7,0-5.7,2.9-2.5,1.1,2.3,1.5,2.7Z"/>
  <path d="M4.4,370.3c1.9,1.7,1,5.1,1.2,7.3-1.3-.5-1.4-2-2.2-3s-4-2.3-1.5-3l2.3,1.5-1.5-3.5c.7,0,1.3.2,1.8.7Z"/>
  <path d="M25,369.7l-2,4c.4-1.3,5.2-3.2,3.4-.6s-1.4.3-1.9.8c-1,.9-1.3,2.6-2.5,3.2-.7-3.1-1.1-7.1,3-7.5Z"/>
  <path d="M59.5,444.1c-.7,3.1-3.8,3.6-3.2,7.5-3.8-2.2-.4-7.3,3.2-7.5Z"/>
  <path d="M-14,455.6c-.8,3.9-6.6,7-10,4.2,1.1-1.5,2.6-.2,4.1-.3s3-1.1,3.7-1.9.1-2.5,2.2-2Z"/>
  <path d="M15.5,434.6v2s1-.5,1-.5l2,4.5c-2,.5-1.7-1.7-3.2-2l.2,2h-1.5s0-6,0-6h1.5Z"/>
  <path d="M51,459c-1.1,5.4-10.9-2-9.5-3.5,2.2.7,2.5,2.9,5.1,3.7s2.7-.1,4.4-.2Z"/>
  <path d="M13,386.6l1.5-6.5-2.5-.2c7.2-3.5,3.6,4.3,1,6.7Z"/>
  <path d="M-29,451.1c1-3.6-2.5-4.2-3-7,3.1,0,7.3,5.6,3,7Z"/>
  <path d="M-25.5,451.6c1.2,3.8,4.3,5.2,8,5.2-2.5,3.4-9.2-2.2-9-5l1-.3Z"/>
  <path d="M45,456.6c3.7.5,6.9-1.4,8-5l1,.8c.3,2-7.3,8.3-9,4.2Z"/>
  <path d="M-22.6,444.7l5.2,5.3c-2.3,1.1-6.3-3.5-7-5.2s1.4-.5,1.8,0Z"/>
  <path d="M52,444.1c-1.7,2.4-3.8,7.8-7.5,5.2,3.7-.4,4.3-4.8,7.5-5.2Z"/>
  <path d="M4,379.6c-2.6.9-6.3-2.3-2-2.2l-2-2.7c1.2-1,4.9,3.4,4,5Z"/>
  <path d="M-21.2,391.2c3-1,3.9,4,.4,4s-1.7-3.6-.4-4Z"/>
  <path d="M27.5,374.6l-2.5,2.7c0,1.8,1.3,0,2-.3.2,2.3-1.6,2.7-3.5,2.5-.3-2.5,1.1-5.3,4-5Z"/>
  <path d="M25,449.6l.3-3-3.2-2.3.7-2.1c0,2.5,3.2,2.3,3.7,3.8s0,3.1-1.4,3.6Z"/>
  <path d="M16.5,370.1c-.3,1.9,1.5,4.1-.2,5.5l-2.7-2.2,3-3.2Z"/>
  <path d="M9.2,443.9c.1.3,1.1-.2.8.9-1.7.4-.9,1.8-1,3.3h-1.5c.2-1.7-.4-4.1,0-5.7.7-2.5,1.5,1.3,1.6,1.5Z"/>
  <path d="M24.5,440.6c-1.7,1.3-3.3-4.5-3.5-5.5l-1.2,1-.3-1.5c3.9-.9,3.3,3.7,5,6Z"/>
  <path d="M49,439.1v-3.5l2.5.2c1.4,2.4.1,3.7-2.5,3.3Z"/>
  <path d="M64.6,387c-.2-.1-.4-1.3-2.1-1.1,2.3-4.8,7,1.3,2.7,1.3-.3.1-.4,0-.6-.2Z"/>
  <path d="M18,441.6c.3.3-.3,4.1,0,5.2s1.5.5,1.4,1.3c-4.6,1.2-3-8.2-1.5-6.5Z"/>
  <path d="M11.5,374.1l1.5,1h-3s1.5-3.2,1.5-3.2l-1.5-.3c-1.5-1.9,5.9-2.1,1.5,2.5Z"/>
  <path d="M65.5,444.1c.3,3.9-7,2.9-4.2-.5,1.4,1.8,2.5,2,4.2.5Z"/>
  <polygon points="60 439.1 58 438.1 57 439.1 57 435.6 59.8 436.1 60 439.1"/>
  <path d="M-33,444.1c.2,3.6-5.1,3.3-5,0,2.1,1.8,2.8.3,5,0Z"/>
  <path d="M10,434.6c.2,1.2-.6,2.4-.4,3.6s1.5,1.3,1.9,2.4l-2.3-.4c-1.3-1-.5-4-.7-5.5h1.5Z"/>
  <path d="M18.5,376.6c0,2.2-4.3.9-6.3,1s-2.1.5-3.2.5v-1.5c3.2.8,6.3.5,9.5,0Z"/>
  <path d="M59,376.1c-1.8.4-.6-1.7-1.2-3s-2.1-.5-1.8-2c3.2-.3,3.9,2.4,3,5Z"/>
  <polygon points="44 392.6 45 391.1 45 394.6 42.5 393.1 42 394.6 42 391.1 44 392.6"/>
  <path d="M57.5,395.1l-1-2-2,1.5v-3c1.6-.4.5,1.3,1.7,1l.7-1.3,1,.5-.5,3.3Z"/>
  <path d="M11,455.5c-.9-3.3,3.6-5.6,2.3-1.5s-1,1.7-2.3,1.5Z"/>
  <path d="M-15,391.1l1,4c-1.6.4-.5-1.5-2.3-1s0,1.2-.7,1c-.4-.7,1-5,2-4Z"/>
  <path d="M-28.5,371.2c.2,1.5-1.7,1.2-2.2,2.5s0,1.8-.5,2.5c-1.9-2,0-5.6,2.7-5Z"/>
  <path d="M-29.9,392.1c.9.5,1.7-1.2,2-.9.3.9-.8,1.2-.8,1.7s1.1,1.3.8,2.2l-1-1.5-2,1,.2-3c1.1-1.3.6.3.8.4Z"/>
  <path d="M46.5,435.6l1,3.5c-1.7-.3-1.4-1.5-3,0,0-1.4.2-3.5,2-3.5Z"/>
  <path d="M52,391.1c0,2-2.2,0-1.5,3,1.5.4.7-.9,1.3-1,1.4-.4,1,2.4-.9,1.9s-1.6-4.4,1.2-3.9Z"/>
  <path d="M40.5,435.6l.3,1.5,1.7-1.5v3.5s-1.7-1.5-1.7-1.5l-1.2,1.5c.3-1.1-.9-3.9,1-3.5Z"/>
  <path d="M-20,435.6l1,3.5c-1.6.4-.5-1.5-2.3-1s0,1.2-.7,1l.5-3.5h1.5Z"/>
  <path d="M-5.5,451.6c-.7,1.3,0,2.3.5,3.5h-2.5c.4-2.1-1.4-3,2-3.5Z"/>
  <path d="M-24,391.1l-1,1.5,1,.5c-.7,0-1.2-.2-1,.7s1.5-.2,1,1.2h-2s0-4,0-4h2Z"/>
  <path d="M33.5,392.1c.7.6,1.7-1.2,2-.9.3.9-.8,1.2-.8,1.7s1.2,1.3.8,2.3l-1-1.5h-1s-.5,1.5-.5,1.5c.4-1.4-.9-3.1.2-4l.3.9Z"/>
  <path d="M14.5,455.5l-.5-3.5c.8-.8,4.6,3.9.5,3.5Z"/>
  <path d="M39.5,391.1l-1,1.5,1,.5c-.7,0-1.2-.2-1,.7s1.5-.2,1,1.2h-2s0-4,0-4h2Z"/>
  <path class="st0" d="M-258.9,428.1v-33h18.2c1.1,0,3.9,2,4.5,3,2.2,3.9-.6,7.5-.1,9.1s1.6,1.6,2.1,2.4c4.4,7.2,1.6,14.8-6.1,17.8l-18.6.6ZM-242,400.7c-1.3-1.2-7.1-.4-9.1-.5-1.2.4-.8,2.4-.8,3.4,1.9-.5,9.3,1,10-.4s.4-2-.1-2.5ZM-253.9,411.1c.3,3.3-1.7,7.5.2,10.5h10c1.4,0,3.7-3.7,3.8-5.2s-2.3-5.3-4.3-5.3h-9.7Z"/>
  <path class="st0" d="M-194.2,395.1l14,21c1-6.9-.1-13.9.2-21l5,.3-.5,32.2-6.2-.5-12.2-19v20h-7.5v-33h7.2Z"/>
  <path class="st0" d="M-205.9,395.1c-.3,2.4.8,5.6-.7,7.5h-15.2v5.5h15.5v5h-17v8.5h17v6s-21.3,0-21.3,0l-.2-32.5h22Z"/>
  <path class="st0" d="M-208.9,385.1l-2.5-1.3c-2.2,1,.9,4.6-1.8,4.8s-1.5-3-2.7-3.8l-6.7-.7-.8,3.5h-1.5c.3-3.1.4-16.5,2-18.2s10.7-1.9,12,0,2.4,15.1,1.9,15.8ZM-215.9,379.6c-.3-2.5,1-5.8-1.3-7.5-1.1,0-.8,6.3-1.3,7.5h2.5ZM-222.4,380.1l1.5-1.2v-6.2c-.7-.1-.8.9-.9,1.4-.3,2-.4,4.1-.6,6.1Z"/>
  <path class="st0" d="M-197.9,374.6l.5,1.3,1.5-.3c-.8,1.7,1,2.1,1,2.3s-1,2.6-1.1,2.7c-.4.3-1.2,0-1.5.1-.5.3-.4,1-.6,1-.6,0-1-.6-1.6-.9s-1.5,0-1.6-.1.4-.8.3-1.2c-.2-.9-1.8-1.7,0-2v-1.6c2.4.6,1.3-1.2,3.1-1.2Z"/>
  <path class="st0" d="M-234.9,374.6l.5,1.3,1.5-.3c-.8,1.7,1,2.1,1,2.3,0,1.5-2.3,3.7-3.8,3.8s-.1-.7-.6-1-1.2.2-1.5-.1-1.1-2.5-1.1-2.7,1.8-.5,1-2.3l1.5.3.5-1.3h1Z"/>
  <path class="st0" d="M-216.3,453.5c.6.4,1.8-.6,1.9-.4-.8,1.7,1,2.1,1,2.3s-1,2.6-1.1,2.7c-.4.3-1.2,0-1.5.1-.5.3-.4,1-.6,1-1.5,0-3.7-2.3-3.8-3.8s1.8-.5,1-2.3l1.5.3.5-1.3c.8,0,.8,1.3,1.1,1.4Z"/>
  <path class="st0" d="M-202.5,442.1v4.4c-1,.4-1.9-1.5-2.2-1.5-.6,0-.4,2-1.7,1.5l.2-4.5c.7-1,2.8-.3,3.7,0Z"/>
  <path class="st0" d="M-221.4,436.1h.7c.8-1,.6-1.8,2.3-1.5v4.5s-1-2-1-2l-1,1-1.7-1-.3,2.5c-1.7-.8-.8-3.4-1-5,1.3-.2,1.8.2,2,1.5Z"/>
  <path class="st0" d="M-221.9,443.6c-.1-.5,1.1-2.7,1.8-1.5l.2,4.5c-1.9.5-.6-1.9-1-2.5l-1.7,1-1.3-1c-.4.5.9,3-1,2.5l.2-4.5c.7-1.3,2.3,1.8,2.7,1.5Z"/>
  <path class="st0" d="M-207.6,434.7c3.6-1.3,5.6,2.6,2.9,4.4s-5.7-3.4-2.9-4.4ZM-205,435.6h-2.4c0,0,.8,2.9.8,2.9,1.6.5,2.5-1.7,1.7-2.9Z"/>
  <path class="st0" d="M-229.5,441.6c3.2-.6,4.1,4.1,1.8,4.8-3.9,1.3-5.7-4.1-1.8-4.8ZM-227.9,445.5c1-.7.1-3.4-1.7-2.9s-.2,4.3,1.7,2.9Z"/>
  <path class="st0" d="M-211,441.6c3.1-.6,4.4,4,1.8,4.8-4.2,1.3-5.1-4.2-1.8-4.8ZM-209.4,445.5c1.7-1.2-1.2-4.1-2.4-2.4s1.1,3.3,2.4,2.4Z"/>
  <path class="st0" d="M-228.5,434.7c5.2-1.6,4.4,6.1.1,4.7s-2-4.1-.1-4.7ZM-228.1,435.6c-1.7.5-.3,3.1.9,2.9s1.9-3.8-.9-2.9Z"/>
  <polygon class="st0" points="-212.9 434.6 -215.4 435.6 -213.4 437.6 -215.4 437.6 -212.9 439.6 -216.4 439.6 -216.4 434.6 -212.9 434.6"/>
  <path class="st0" d="M-234.9,434.6c0,1.2.2,2.3,1.8,2s-.6-2.5,1.2-2v5s-1.3-2-1.3-2h-1.7s-1,2-1,2c0-.4-.5-6.5,1-5Z"/>
  <path class="st0" d="M-232.9,442.1c-.4,1.4-1.6.3-2.5.7s-1,1.7-.4,2.7h2.9c-2.2,3.1-6.6-.6-3.5-3.2s2-.6,3.5-.2Z"/>
  <path class="st0" d="M-197.9,434.6l-3,1,2.5,2h-2.5c-.3.3.8,2.5-1,2v-5s4,0,4,0Z"/>
  <path class="st0" d="M-214.4,442.6h-2.5s2,2,2,2c-2.5-.5-1.2,2.1-3,2v-5c1.2,0,3-.4,3.5,1Z"/>
  <path class="st0" d="M-196.9,441.6c.4,1.4-1.1.9-1.4,1.8s.7,3.6-1.1,3.2v-3.7s-1.5-1.3-1.5-1.3h4Z"/>
  <path d="M-253.9,411.1h9.7c2,0,4.3,3.3,4.3,5.3s-2.3,5.2-3.8,5.2h-10c-1.9-3,0-7.2-.2-10.5Z"/>
  <path d="M-242,400.7c.5.5.4,2,.1,2.5-.7,1.4-8.1-.1-10,.4,0-1.1-.4-3,.8-3.4,2,.1,7.8-.7,9.1.5Z"/>
  <path d="M-215.9,379.6h-2.5c.5-1.2.2-7.5,1.3-7.5,2.2,1.7.9,5,1.3,7.5Z"/>
  <path d="M-222.4,380.1c.2-2,.3-4.2.6-6.1s.2-1.5.9-1.4v6.2s-1.5,1.2-1.5,1.2Z"/>
  <path d="M-205,435.6c.8,1.2-.1,3.4-1.7,2.9l-.8-3h2.4Z"/>
  <path d="M-227.9,445.5c-1.9,1.4-3.6-2.4-1.7-2.9s2.7,2.2,1.7,2.9Z"/>
  <path d="M-209.4,445.5c-1.3.9-3.3-1.1-2.4-2.4s4.1,1.2,2.4,2.4Z"/>
  <path d="M-228.1,435.6c2.8-.9,2.6,2.6.9,2.9s-2.6-2.4-.9-2.9Z"/>
  <path d="M37.5,426.3c.2,1.3,1.8.9,1.5,2.2h-4.5s0-27.5,0-27.5h5.5c-.5,1-.5,1.5-.3,2.5s3.3,8.9,4.1,10.5.5,1.4,1.2,1.5v-13.2c0-.2-1.1-.7-1-1.2h4.5c-.7,1.1-.9,1.9-1,3.2-.5,5.5-.4,15,0,20.5s.4,3.8,2.5,2.5,2.6-7.7,2.5-9-1.6-2.8-1.4-3.5,1.1-.7,1.5-1.2c2.1-2.8,3.5-9.2,2.5-12.6h7c-.2.9-.5,1.6-.4,2.6.4,4.5,2.8,15.6,4.1,20s1.5,3,2.4,4.9h-7.5c-.3-.9.7-1.2.9-1.9.6-2.5-.4-5.7-1.1-8.1-2,1.1-2.9,2-5.2,1-.1,1.7-1.3,4.2-1.3,5.8s1.2,2,1.3,3.2h-12c-.2-1,.9-1.2.8-2-.3-3.4-4.7-9.2-5.3-13-.2-.1-1,.7-1,.7,0,3.4-.5,9,0,12ZM57.5,405.6c.7,2.3-4,11.5.7,11s.6-7.2.3-9.3,0-1.5-1-1.8Z"/>
  <path d="M-34.5,401.1c-.4,4.9.9,10.5,1.8,15.5,1.2.4.6-1.2.7-1.8.7-4.4,2-9.4,1.5-13.7h6s-1,1.7-1,1.7l2,14.3c.9-.2.9-1,1.1-1.7.8-2.4,2.1-8.7,2.3-11.2s-.1-1.9-.4-3.1h4.5c-1,3-2.4,7.6-2.5,10.8s.9,2.5.7,3.2-1.4,2.5-1.8,3.7c-1,3.1-2.1,6.5-1,9.8h-6.5c-.2-.9.7-1.2.9-1.9.8-2.9-2.2-11.1-2.1-14.6-1.5,5.3-3.5,11-2.3,16.5h-5.5c0-1.2,1-1.3,1-2.7,0-3.1-3.5-9.9-3.5-11.1s.9-1.2,1-2c.5-3.3-.7-8.6-2-11.7h5Z"/>
  <path d="M26.5,428.6c1.1-3.5-.2-6.5-.5-10-2.3.9-3.3,2.2-6,1-.4,1.9-1.2,3.7-1.1,5.8s.8,1.9,1,3.2c-1.6,0-3.2.1-4.8,0-2.7-.2-.2-1.3.5-3s1.8-6.6,1.3-8.3-1.1-1.9-1-2.4,1.7-1.6,2.2-2.4c1.7-2.5,2.7-8.5,1.8-11.4h7.2c.5.4-.6.8-.6,1.6s2.6,10.6,3.2,11.3,1.6,1.1,2.2,1.8c.2.3-1.9.4-2,2s1.3,7.3,1.6,7.9c.5,1.2,1.9,1.5,1.9,2.9h-7ZM23,405.1c.4,2.7-4.6,12.4.7,11.5s1.3-1,1.3-2.2l-2-9.3Z"/>
  <path d="M-4.5,401.1l-.9,1.6c2.9,8.4,2.4,17.9,6.4,25.8-1.1-.1-7,.5-7-.7,1.6-.5.2-9.3-.3-9.2-2.4,1.7-3.1,1.4-5.7.5.1,2.1-1.4,4.2-1.3,6.3s1.2,1.9,1.3,3.2h-6c-.1-1.4,1-1,1.8-2.5,1.8-3.7,2.2-8.3.3-12,1.9-.5,3.4-3,3.9-4.9s1.1-6.1,1.1-6.4c0-.8-.8-1.1-1-1.7h7.5ZM-9,405.6c-.2,3.3-4.8,13,1.8,10.5l-1.8-10.5Z"/>
  <path d="M16,402.1c.4,1.8-1.2,1.6-2.2,3s-1.2,3.9-2.5,5.5c-2.1-2.1,1.8-5-1.1-6.9s-5.9,3.2-5.7,6.2,1.5,3.3,1.4,3.9-1,1.9-1.2,2.8c-.7,3.3.7,10.3,5.3,8.3s0-5.7.5-8.2h1.5c-.6,3.2.9,4.4,2.5,6.7-5.4,10.1-13.7,2.2-14.9-6.1-.7-5.3.4-14.1,6.3-16,5-1.6,5.7,2.1,10.1.9Z"/>
  <g>
    <path d="M45.9,3.4c26.3-2.6,45.2,25,32.1,48.3-11.9,21.1-42.1,22-55.5,1.9-13.3-19.9-.3-47.9,23.4-50.2ZM29.2,59.2c16.3,14.7,43.6,6.8,50.1-13.9C86.8,21.1,64.7-1,40.6,6.2c-23.4,7-29.5,36.7-11.5,52.9Z"/>
    <path d="M1.6,86.1c.3-1.8,2.7-4.4,4.5-4.7,10.2-2.1,10.5,13.3.3,11.8-1.2-.2-1.8-.9-2.9-1.1v4.6s-1.9,0-1.9,0c.4-3.2-.5-7.5,0-10.6ZM6.5,83.3c-5.7,1.3-2,10.8,3.3,7.6,4.2-2.5,2.1-8.8-3.3-7.6Z"/>
    <path d="M27.9,85.7c.7-3.9,6.1-5.6,9.4-3.6,5.9,3.7,2.2,12.8-5.3,11.1s-1.3-1.1-2.2-1.1v4.6s-1.9,0-1.9,0c.4-3.3-.6-7.9,0-11ZM32.4,83.3c-4.6,1.2-2.5,9,2.1,8.2,5.8-1,4.6-9.9-2.1-8.2Z"/>
    <path d="M85.8,94h-1.9s0-1.2,0-1.2c-3,1.5-7,2-9.2-1-4.7-6.4,3.8-13.4,9.2-8.4.4.4,2,2.8,2,3.1v7.5ZM82.6,84.9c-3.5-3.4-9.4.9-6.6,5.3,3.4,5.4,11.1-1,6.6-5.3Z"/>
    <path d="M64.9,82.2c10.4-1.9,10.3,12.7,1.1,11.9-6.9-.6-7-10.8-1.1-11.9ZM66.4,83.7c-6.9.6-3.5,11.5,2.4,7.8,3.8-2.4,1.8-8.2-2.4-7.8Z"/>
    <path d="M45.1,82.2c10.1-2.1,10.5,12.7,1.1,11.9-6.8-.6-7.1-10.6-1.1-11.9ZM49.8,91.2c3.6-3.4-.4-9.5-5-6.8-5.1,3,.8,10.8,5,6.8Z"/>
    <path d="M18.9,82.2c9.8-2,10.7,11.5,2.2,11.9-7.9.3-8.4-10.6-2.2-11.9ZM20.4,83.7c-5.9.5-4.6,9.8,1.8,8.3s3.5-8.8-1.8-8.3Z"/>
    <path d="M98.6,94h-1.5v-6.8c0-1.6-2.5-3.6-4.1-3.6s-4.4,1.7-4.4,3.3v7.1h-1.9v-7.5c0-.6,1.6-2.8,2.1-3.3,2.4-2,6.6-1.8,8.7.6s1.2,1.8,1.2,1.9v8.3Z"/>
    <path d="M53.8,82.3c.4-1.6,2.7,0,1.9,1.7h3.1s0,1.9,0,1.9h-3.1c-.3,3.1.9,6,4.3,6.4v1.7c-2.5.8-6.2-3.1-6.2-5.2s-.3-5.5,0-6.6Z"/>
    <path d="M67.4,58.7c-17.7,14.4-45.1,2-46.9-20.4-1.2-15.2,10.2-30.1,25.7-31.5,29.8-2.5,44.4,33,21.2,51.9ZM44.7,8.4l-.6.9c2,5.4,9.2,5.4,11.2,0,0-.7-.4-.8-1-.9-.9-.2-8.9-.2-9.6,0ZM41,9.5c-11,3.3-19.1,14.3-18.9,25.9l18.9-25.9ZM77.3,35.4c0-11.5-8.1-22.9-19.3-25.9l19.3,25.9ZM23.2,36.9h7.1c1-.9.4-2.4.6-3.6.6-3.6,2.8-8.3,5.4-10.8s5.2-3.2,5.8-4.2,2.1-5.2,2.1-5.5c0-.5-1.4-1.8-1.6-2.5l-19.5,26.6ZM76.2,36.9l-19.5-26.6c-.2,0-1.6,2.1-1.6,2.5s1.7,4.7,2,5.2c.9,1.5,3,2.1,4.5,3.3,4.4,3.5,7.2,9.3,7,15l.5.6h7.1ZM49.1,14.9l-3.4-1-1.5,4.1,4.7-.9.3-2.1ZM55.3,18l-1.8-4.2c-1.8.8-4.4.7-2.9,3.3l4.6.9ZM46.7,18.9c-21.7,2.9-17.3,38.5,6.4,34.2,21-3.9,17.3-37.4-6.4-34.2ZM31,38.4h-8.9l.8,3.9h8.9l-.8-3.9ZM76.5,42.3l.7-3.3-.5-.6h-8.3c0,.6-1.4,3.9-.2,3.9h8.3ZM31.9,43.5h-8.7l1.2,3.9h10c-.4-1-1.5-3.7-2.5-3.9ZM65,47.3h9.5l1.7-3.3-.6-.6h-7.7c-1.4,0-3.1,3.7-2.9,3.9ZM35.8,48.9h-10.2c.5,1.7,1.9,3.7,3.3,4.6h12.9c.2-1-.2-.6-.6-.8-1.1-.7-5.1-3.7-5.4-3.8ZM73.8,48.9h-10.2c-.3,0-4.3,3.2-5.4,3.8s-.8-.2-.6.8h12.9l3.3-4.6ZM69.2,54.7H29.8l5.6,4.6c8.9-.7,19.1.9,27.8,0,.5,0,.8,0,1.3-.2s5.3-3.9,4.7-4.4ZM60.7,60.8h-22c.3.7,1.8.9,2.5,1.2,5.1,1.6,11.2,1.7,16.4.2s2.6-.6,3.1-1.4Z"/>
    <path d="M47.5,21.2c14.8-1.8,24.3,15.6,12.6,25.7-11.4,9.8-29.4-.2-25.4-15s7-10.1,12.8-10.8ZM56.5,30.3c.5-1.6,0-2.7,0-4.1s.7-1.4-.4-2.3c-2.6-1.9-7.8-1.5-10.8-1-.2.9.2.6.5.9,3,2.4,7.5,4.2,10.7,6.5ZM48.3,27.6c.2-.3-4.5-3.7-5.8-3.3-2.6.8-6.4,6.3-6.6,9.1l12.4-5.8ZM58,38.8c1.2-.3,5.7-3,5.8-4,.2-2.8-2.7-6.9-4.6-8.9s-.5-.7-1.2-.6v13.5ZM56.4,32c-2.4-.9-5-4.1-7.5-3.3s-6.2,3.1-6.3,4.1l.5,7.2,6.5,3.8c1.4-1.3,6.5-2.7,6.8-4.4s.1-7.1,0-7.4ZM41.4,46.2v-13.5c-1.4,1-5.8,2.2-5.8,4,0,2.9,2.6,8.8,5.8,9.5ZM63.8,37.7l-11.9,6.5-.5.9c2,.6,4,2.9,6.1,2,3.2-1.4,5.6-6.1,6.3-9.4ZM54.1,48.9c.7-.6-3.3-2.7-3.7-3-1-.6-7.3-4.3-7.8-3.9v5.2c3.2,2.8,7.8,2.3,11.6,1.7Z"/>
  </g>
</svg>