<?xml version="1.0" encoding="UTF-8"?>
<svg id="Layer_1" xmlns="http://www.w3.org/2000/svg" version="1.1" viewBox="0 0 100 100">
  <!-- Generator: Adobe Illustrator 29.1.0, SVG Export Plug-In . SVG Version: 2.1.0 Build 142)  -->
  <defs>
    <style>
      .st0 {
        fill: #fff;
      }
    </style>
  </defs>
  <path d="M-257.9,367.9c0-.2.8-.9,1-1,2.1-1,14,.3,14.5-.3-.3-7.4,5-12.5,12.2-13,6.5-.5,22.3-.8,28.4.1s10.9,6.8,10.4,12.9c.5.5,12.4-.7,14.5.3s1,.9,1,1v8.7c11.4-1.8,7.3,5.9,8,13.5,5.1-.6,12.4,2.8,13.8,8s.6,20.5.3,24.8c-.6,7-7.8,9.7-14,10.3-.5,2.4.7,10.9-.7,12.3l-7.4.6v8.7c0,0-.8.9-1,1-2.1,1-14-.3-14.5.3.5,5.5-3.7,11.4-9.1,12.6s-28.2.9-32.4.1-10.1-7.2-9.5-12.8h-14.7l-.7-.7v-9.2c-1.9-.2-6.2.6-7.5-.7s0-9.9-.5-12.2c-5.6-.3-13.3-3.4-14-9.8s-.5-17.7,0-23.5,7.9-10.2,14-9.7c.3-2.3-.7-11.7.6-12.9l7.4-.6v-8.7ZM-208.9,385.1c.5-.6-1.4-15-1.9-15.8-1.3-1.8-10.4-1.7-12,0s-1.7,15.1-2,18.2h1.5s.8-3.5.8-3.5l6.7.7c1.2.8-.9,4.1,2.7,3.8s-.4-3.8,1.8-4.8l2.5,1.3ZM-234.9,374.6h-1s-.5,1.3-.5,1.3l-1.5-.3c.8,1.7-1,2.1-1,2.3s1,2.6,1.1,2.7c.4.3,1.2,0,1.5.1.5.3.4,1,.6,1,1.5,0,3.7-2.3,3.8-3.8s-1.8-.5-1-2.3l-1.5.3-.5-1.3ZM-197.9,374.6c-1.8,0-.7,1.9-3,1.2v1.6c-2,.3-.4,1.1-.2,2s-.4,1.1-.3,1.2c0,0,1.1,0,1.6.1s1,.9,1.6.9.1-.7.6-1,1.2.2,1.5-.1,1.1-2.5,1.1-2.7-1.8-.5-1-2.3l-1.5.3-.5-1.3ZM-258.9,428.1l18.6-.6c7.7-3.1,10.5-10.6,6.1-17.8s-1.9-1.6-2.1-2.4c-.4-1.6,2.3-5.2.1-9.1s-3.4-3-4.5-3h-18.2v33ZM-205.9,395.1h-22l.2,32.5h21.3s0-6,0-6h-17v-8.5h17v-5h-15.5v-5.5h15.2c1.6-1.9.4-5.1.7-7.5ZM-194.2,395.1h-7.2v33h7.5v-20l12.2,19,6.2.5.5-32.2-5-.3c-.4,7,.8,14.1-.2,21l-14-21ZM-234.9,434.6c-1.5-1.5-.9,4.6-1,5l1-2h1.7s1.3,2,1.3,2v-5c-1.9-.5-.5,1.9-1.2,2-1.5.3-1.8-.8-1.8-2ZM-228.5,434.7c-1.9.6-2.1,4,.1,4.7,4.3,1.4,5.1-6.3-.1-4.7ZM-221.4,436.1c-.2-1.2-.7-1.7-2-1.5.2,1.6-.7,4.2,1,5l.3-2.5,1.7,1,1-1,1,2v-4.5c-1.6-.3-1.5.5-2.3,1.5h-.7ZM-212.9,434.6h-3.5s0,5,0,5h3.5s-2.5-2-2.5-2h2s-2-2-2-2l2.5-1ZM-207.6,434.7c-2.8,1-.4,6.5,2.9,4.4s.8-5.6-2.9-4.4ZM-197.9,434.6h-4s0,5,0,5c1.8.5.7-1.7,1-2h2.5s-2.5-2-2.5-2l3-1ZM-232.9,442.1c-1.5-.4-2.2-1-3.5.2-3.1,2.6,1.3,6.3,3.5,3.3h-2.9c-.6-1.1-.8-2.2.4-2.8s2.1.7,2.5-.7ZM-229.5,441.6c-3.9.8-2.1,6.2,1.8,4.8s1.4-5.5-1.8-4.8ZM-221.9,443.6c-.5.3-2.1-2.8-2.7-1.5l-.2,4.5c1.9.5.6-2,1-2.5l1.3,1,1.7-1c.4.6-.9,3,1,2.5l-.2-4.5c-.6-1.2-1.9,1-1.8,1.5ZM-214.4,442.6c-.5-1.4-2.3-.9-3.5-1v5c1.8.1.5-2.5,3-2l-2-2h2.5ZM-211,441.6c-3.3.6-2.4,6.1,1.8,4.8s1.3-5.4-1.8-4.8ZM-202.5,442.1c-1-.4-3-1.1-3.7,0l-.2,4.5c1.3.5,1.2-1.5,1.7-1.5s1.2,1.9,2.2,1.5v-4.4ZM-196.9,441.6h-4s1.5,1.3,1.5,1.3v3.7c1.8.4.6-2,1-3.2s1.9-.4,1.4-1.8ZM-216.3,453.5c-.3-.1-.3-1.5-1.1-1.4l-.5,1.3-1.5-.3c.8,1.7-1,2.1-1,2.3,0,1.5,2.3,3.7,3.8,3.8s.1-.7.6-1,1.2.2,1.5-.1,1.1-2.5,1.1-2.7-1.8-.5-1-2.3c-.1-.2-1.3.8-1.9.4Z"/>
  <path d="M194.6,206.6c1.3-12.4,10.9-24.5,22.3-29.1,24.7-10.2,50.1,6.9,51.7,33.1.7,11.9-.4,24.3-.3,36.2-.1.2-.9,1-1,1h-72l-.7-.7v-40.5ZM230.1,177.4c-1.3-.3-8.8.5-8.9,1.7l2.9,10.7,6-1.2v-11.2ZM232.6,177.4v11.2l6,1.2,2.9-10.7c-.2-1.5-7.4-1.9-8.8-1.7ZM219.1,179.9c-1-1-7.5,3.3-8.5,4.3l6.7,10.2,4.7-3-3-11.5ZM246.1,193.8l6-9.6c-.2-1-6.2-4.3-7.6-4.3-.7.2-3.5,9.6-3.3,10.7s4.5,3.5,5,3.2ZM201.6,194.8l10.2,5.4,3.2-3.7-6.7-10.7c-1.3.9-7.4,7.9-6.7,8.9ZM250.2,199.8l10.9-5.7c-1.6-3.2-4.2-5.7-6.7-8.2l-6.5,10,2.3,4ZM237.8,215.6l8.1,7.7c1.4.3,3.7-4.7,4-5.8,5.9-17.5-13.3-32.4-28.8-22.8s-12.3,20.3-4.3,29.2l12.7-12.7c-1-1.5-8.3-7-7-8.7s1.2-.4,1.5-.3c1.5.6,5.7,6.8,7.2,6.8,2.3-.6,6.3-7.9,8.8-6.3s.3,1.3,0,1.9c-1,1.7-6,5.3-6.5,6.6l4.2,4.5ZM265.1,205.3c.6-.7-1.9-8.2-2.8-8.5l-10.2,5.3,1.4,4.2,11.7-1ZM210.6,202.4l-10.1-5c-1.2.4-2.6,7-2.8,8.5l11.7.9,1.3-4.4ZM265.6,207.8l-11.5,1.2-.4,4,11.7,4.3c1.6-.1.3-8,.2-9.5ZM197.1,209.1v8l1,.6,11.3-4-.6-3.8c-.4-.3-9.5-1.2-10.7-1.2s-.6,0-1,.5ZM224.1,245.3v-12.7c0-.1,1.2-2.1,1.5-2.5,3-3.9,9-3.8,11.7.3s.5,9.9,1.5,14.5c.7,1,5.2.5,6.5,0s8.7-8.4,8.8-9.2l-21.8-21.7-1.3-.3-22.4,22c5,4,8,11.4,15.5,9.7ZM266.1,229.8v-9.2c-2.5-1.2-9.8-4.3-12.3-4.2s-.7,0-1,.5l-1.3,3.7,12.7,8.8,1.8.5ZM197.1,221.1v8.7c.8.2,1.1-.3,1.6-.6,1.9-1,9.9-6.3,11.3-7.7s.5-2.5,0-4.7c-.6-.4-12.7,3.3-12.9,4.2ZM197.1,233.6v9.2l17.5-17.2-2.2-2.7-15.3,10.7ZM266.1,242.8v-8.7c0-1.1-13.7-9.4-15.5-11l-2.4,2.6,17.9,17.2ZM227.1,245.3h8.2l.7-.7v-11c0-3.2-5.9-5.4-8.2-2.2s0,9.8-.8,14ZM199.6,245.3h14c.2-.8,0-1-.4-1.5s-6.4-6.1-6.8-6c-1.8,1.9-4.5,3.9-6.1,6s-1,.6-.7,1.5ZM263.6,245.3c.2-.9-.4-1-.7-1.5-.7-.9-5.8-6-6.5-6l-7,6.5.5,1h13.7Z"/>
  <path d="M408.2,196c2.4,2.9-1.9,4.9-2.3,7.6s-.6,11.2,4.5,7c1.1-.9-1.2-1.6-1.4-2.6-.9-3.6,7.3-3.9,9.6-3.6s2.8,1,4.2,1.5c.4,2.3.2,4.4-2,5.6s-3.3.4-4,1.8c4.9,0,11.3,4.7,9.4,10.2s-15.8,3-16.8,0,2.1-4.4,1.8-6.3-2.5-3.2-4.1-3.3c-4.1,2.9,3.1,5.8,1.4,9.4s-15.4,3.4-17,0,1.8-4,2.2-6.3.4-12.7,0-14.4c-.9-4.4-10.3-2.9-10,1.9s9.2-1.4,9.4,5c.2,5.9-8.4,9.6-12.3,3.9s-1.2-14.1,4.7-17.1,19.9-3.6,22.5-.4Z"/>
  <path d="M397.3,245.8c-.7,1.7,1.4,3.1,2.9,3.4,3.8.8,8.8-4,9.6,2.9,1.3,11.5-12.2,12.2-16,.5-.5-1.5-1-6.7-1.7-6.8-1.7-.4-1.4,4.7-1.3,5.8.4,3,4.2,4.2,2.1,8-1.7,2.2-14,2-16.2.2s1.3-5.4,1.6-7.3.2-13.2-.2-14.7-5.2-5.4.3-7.3,18.9-1,23.3.2c11.5,3.1,6.1,16-4.3,15.1ZM391.7,234.4c-1,.4-2,7.6.9,7.4,4.4-.2,3.4-8.9-.9-7.4Z"/>
  <path d="M-43.2,442.6c-5.2-.9-7-8.3-3.2-11.7-3-1.2.8-1.4,1-2v-1.2s-1.5.2-1.5.2c.6-1.5,2.1-1,1.5-3.2l-2-.2,2-.3v-2s-1.5.2-1.5.2c.3-1.5,2.1-.8,1.5-2.7-2.5,1.3-2.5-1.8,0-.5v-9c-2.8,1.4-2.5-2.8,0-.5v-4.7s-2-1.6-2-1.6l2,.2v-1.2s-2-1-2-1l1-1c-3.2-2.1-2.4-10.6,1.7-10.2s2.5,7.8-2.7,5c.6,4.4,1.5,5.7,4.9,2.1,36.8-1.2,74.1-.7,111-.2,3,3.2,4.7,2.7,4.6-1.9-9.1,2.6-4.2-9.3.3-3.5s1,5.2.6,6.7-2.8,1.9-2.9,3.1v28c.3,1.2,2.5,1.9,2.9,3.6s.3,4.6-.3,6-3.6,3.6-4.9,3.6H29.5l.8-1.4,38.8-.2c3.3-.7,3.2-4.9,1.1-3.9s-.5,2.1-2.3,1.5c-.3-3.5,2.6-3.7,5-2,.2-4.7-1.6-6.3-5.5-3.2l-107.7.3c-2.3.2-3.3-1.4-5-2.4-1.2.2-2.5,4.2-2.2,5.4,1.2,0,1.4-1,2.7-1s2.5,1.4,2.3,3c-1.9-.2-2.2-2.9-3.9-.3-.2,2.3,5.9,2.7,7.6,2.8,11.9.8,24.7-.6,36.8,0v1.5h-41.2ZM-42.1,398.2c-1.3.6-1.7,1.8-1.9,3.1-.7,6.1-.6,20.7,0,27s4.4,3.9,8.3,3.7c20.8-.6,41.7-.7,62.5-.5,12.5,0,26,1.7,38.5.5,1.5-.1,3.2-.5,4.1-1.9l-.4-30.9-1.4-1.1H-42.1Z"/>
  <path d="M521.5,205.7c-1.5-1.5-2.3-4.8-4.6-5.6-9.9-3.2-7.9,20.2.7,23.3s5.5-4.1,3.5-6.6-6.7-3.3-3.7-6.3c2-2,15.8-2.2,17.1.4,1.8,3.1-1.7,4.9-2.2,6.4-.8,2.8,1.1,5.1-2.1,7.9-4.2,3.5-15.9,3.9-21,2.5-13.7-3.8-15.3-23.3-2.4-29.4s15.4-2.9,19.9,0,.2,13-5.3,7.5Z"/>
  <path d="M8.3,243.6c-5.6,5.9-14.9,5.6-22.3,7.2.5-.9.9-1.6,1-2.7.2-2.3.3-12.9-.4-14.6s-1.8-2-1.6-2.1c1.2,0,1.8,0,2-1.2.4-1.8.2-9.4,0-11.5s-.3-1.7-1-2.5l.5-.5c5.6-.3,11.9-3.6,17.2-1.2,4.1,1.9,4.5,6.5,2.4,10.2,7.9,4,8,13,2.3,19ZM-6.5,224.8c8.7.7,10.8-8,.5-5.3l-.5,5.3ZM-6.5,243.8c4.9.8,12.2-2.9,12.5-8.3s-8.5-7.4-12.5-4.5v12.7Z"/>
  <path d="M474.9,208.8c1.5.9,3.4-2.1,4.8-2.8,4.5-2.6,12.7-2.5,14.5,3.3s.2,5.9.7,8.3,5.1,6,0,7.6-14.5,1.5-15-2.6,3.2-4.4,3-9c-.4-10.7-8.9-3-6.9,3.9s4.2,3.9,1.9,6.6-15.2,2.5-16.7-.8c-1.6-3.4,4.3-5.2,2.4-10.3s-4.1-4-1.8-6.6,9.8-2,12,0,1.2,2.4,1.3,2.4Z"/>
  <path d="M-430.4,346.8c34.1-3.3,58.5,32.3,41.5,62.4s-54.4,28.5-71.8,2.5c-17.2-25.7-.4-62,30.3-64.9ZM-452.1,418.9c21,19,56.4,8.9,64.8-18,9.7-31.2-18.8-59.7-50-50.5-30.2,9-38.2,47.5-14.8,68.5Z"/>
  <path d="M424.7,239.9c6.8-.8,17.6.8,18.5,9.2.4,4.1-.5,7.5-4,9.9-6.4,4.4-24.9,4.1-26.4-5.5-1.4-8.6,3.8-12.7,11.9-13.6ZM430.7,257.2c2.8-2.9-.7-14.4-4.5-13.3s.8,17.2,4.5,13.3Z"/>
  <path d="M-261.1,209.8c5.7,1,8.1,12.6,2.3,15v1c5.6,2.5,6.5,11.3,3.2,16-5.8,8.1-22.1,5.6-20.7-5.7s4.3-5.5,4.5-6.1c.6-2-.6-5-2.5-5.9-.2-1.4,2.4-1.4,2.5-2.1.4-1.7.8-10.9-2.5-10.2-.4-.4,1-2,1.3-2,3.3,0,9.1-.5,12,0ZM-266.8,219.4c-.5,2.4.2,5.2,3.1,4.9s3.7-5.5,3.2-8.1c-1-5.3-6.7-2.4-4.9-.2l2,1.1c-.7,1.6-1.7,2.2-3.4,2.3ZM-261.5,241.6c4.2-4.2,1.8-15-3.3-13.6s0,4,.3,5.8-.3,3.8-1.5,3.5-4.1-4.4-4.7.3,5.5,7.8,9.3,4Z"/>
  <path d="M431,207.5c3-3.7,17.9-4,22-1.6s2.3,7.1,2.8,10.6,3.8,4,2.2,7.3-8.1,2.2-10.2,1.2-1.9-1.7-2.8-1.8c-1.6-.2-2.4,2.2-4.5,2.5-3.7.6-11,.5-11.6-4.3-1-8.6,17.8-3.4,14.4-12.9-3.9-1.6-4.4,4.4-7,5.5-4.4,1.9-7.7-3.8-5.3-6.6ZM443.8,215.8c-1.2-.3-.8.3-1.1.6-3.3,3.7-.2,8.5.9,3.9.4-1.5.2-3,.2-4.5Z"/>
  <path d="M37.5,203.8l-6.5,1c.4-3.8,1-9.5.5-13.3s-1-1.8-1-2.5.9,0,1.1-1c.4-3.3,0-8.4-.5-11.8,5.8-.5,14.6-4.4,19,1.2s-.1,12.2-4.9,15.6c-.3,1.1,4.1,8,5.2,9.1,2.9,3.2,5.7,4.1,10,3.5s5.2-2.9,4.7.1c-.9,5.3-9,5.1-12.9,3.6-6.4-2.4-9-8.8-12.2-14.2-4.1-3.6-4,6.4-2.3,8.5ZM36.5,180.6v9.5c0,1.4,5.8-.3,6.7-.8,2.7-1.4,4.2-4.9,2.9-7.8s-7.4-2.7-9.6-.9Z"/>
  <path d="M206.4,414.1h7.5v-7.2c0-2.3,6-4.3,6.5,1s-.4,13.6-.1,19.9c-.9,3.1-6.4,2.1-6.4-.4v-8.2c-2.4-.7-5.1-.7-7.5,0v8.2c0,2.3-6,4.3-6.5-1-1-9.9.8-21.4,0-31.5.7-3.7,6.5-2.1,6.5-.5v19.7Z"/>
  <path d="M24.5,230.8c4.9-1.1,10.4-.8,14.5-4,0,1.3-.2,2.8.1,4.1s1.4,1.7,1.4,2.8l-23.5,3.5c1.7-4.4,1.7-11.2-.5-15.5h1.5c.1-3.7,1.2-8.6-1.5-11.5l24-4c-2.1,2.2-1.6,4.3-1,7-5.1-1.2-9.7,0-14.7,1l-.3,6.5c5.5-5.1,11.1,2.5,15.7-2.5.5,2-3.7,6-5.6,6.4-3.7.8-6.6-1.2-10.1-.9v7Z"/>
  <path d="M459.3,252.5c1.2,6.8,9.4.7,10,1.3-2.3,7.7-11.5,10.3-18,5.7s-3.9-9-4.1-14.4c-.5-1.5-3.2.2-3-3.1s2.4-1.5,4.1-3,1.7-3.8,2.1-4.1,7.1-1.4,8.1-1l.8.7c-2,9.8,9.8,2,9.9,9.5,0,5.6-6.6,3.5-8.8.4l-1,.5c.3,2.3-.4,5.3,0,7.5Z"/>
  <path d="M281.9,417.6v-11.2c0-.1.8-1.4,1-1.5l3.7.2.7,1.4c-.3,6.1.8,13.4.1,19.4s-1.1,4.2-3.7,4.1c-4.6-.2-8.3-11-11.8-13.8v7.2c0,.1-.4.9-.5,1.5-.1,1.1.3,2.3,0,3.4-.6,1.8-3.3,2.1-4.5.6s-1.2-16.6-.9-19.5,1.1-5.5,4.1-5.2,7.9,9.6,10.5,12.6.5,1,1.4.8Z"/>
  <path d="M2,192.3c0,.1,1.2.3,1.6.6,4.8,3.5,3.9,9.5.3,13.7s-11.7,5.2-18,6.2c.4-2.7,1.2-11.8.2-14s-1.1-.8-1.2-1.5l1.5-.3-.3-12.2c4.5-.6,11.2-3.9,15-.5s.3,7.4.8,8ZM-8.5,191.9c3,.3,7-.1,5.8-4-.8-1.1-3.9,0-5.2.1l-.6,3.9ZM-8,196.4c.2,1.5-.5,2.9-.5,4.2s0,2.9,0,4.5c-.2,4.7,8.3.8,9.6-2.4,2.7-6.5-4.2-7.9-9.1-6.3Z"/>
  <path d="M-182.4,217.1c-.1-.5-1.4-1.2-2-1.3,0-2.5,2.5-1.7,4-2.2s4.1-4.3,6.5-1.5c.2,1.2-1.1.4-2,1.5s-1,2.8-1.1,3.9c-.3,3.2-.5,14.2,0,17s2.9,2.1,2.5,3c-.7,1.6-6.2,1.5-7.7,1.2-2.5-.4-3.1-1.6-.8-3-3.3.5-5-1.2-4.5-4.5l2.2,1c2.4-2.3-2.1-4.9-3.7-6.5v8.7c0,.6,1.6,2.4,2.5,2.3,0,2.3-2.9,1.7-4.5,2.3s-4.8,4.1-6,1.5,1.3-1.1,1.9-2.1c1.4-2.2,1.5-16.9,1-19.9s-.3-1.2-.7-1.8c-.7-.9-1.9-.7-1.7-1.7,1-2.3,11.5-1.5,10,.7-3.5,1.2-2.7,3.8-1,6.2s5,5.2,5.5,4.7c.2-.6-.5-1.1-.5-1.2,0-1.9.4-7.1,0-8.5Z"/>
  <path d="M224.1,427.4c-1.3-1.5-1.8-4.6.4-5.6,3.5-1.6,6,5.2,10.4,2.1,2.8-5.2-4.2-6.6-7.3-9.2-8.7-6.9-2.6-17.2,7.6-16.1,2.9.3,7.8,2.5,6.7,6.1-3.2,4.7-5.2-1-8.2-1.1s-3.5,1.2-3.7,2.7c0,3.4,11.3,6.1,12.4,12.6,1.7,10.1-12.6,14.7-18.2,8.5Z"/>
  <path d="M-153.7,224.3c2.4.7-1.5,4.3-1.7,4.8-.3,1.2,0,2.6-.1,3.9-1.5,8.5-13.8,9-16.7,1.3s-1.1-13.3-.8-16.7,2-5.3,4.4-6.6c5.1-2.9,8,1,12.6-1.1.3,1.3-.5,2.6-.5,3.7s1,2.2.9,3.5c-.2,4.5-5.8,6.4-7.5,1.8,5.4-2,0-9.2-2.8-3s-1.3,15.3-.1,18.1c2.4,5.4,7.4-1.8,4.9-5.4l-3.5,1.3c-.5-1.2,1.2-5.5,2.2-5.5h8.5Z"/>
  <path d="M-14,281.3c.4-3.8,1-9.5.5-13.3s-1-1.8-1-2.5.9,0,1.1-1c.4-3.3,0-8.4-.5-11.8,4.6-.6,11.2-2.3,15.4.3,7.8,4.9,6.7,15.4,1.3,21.7-4.5,5.3-10.2,6-16.7,6.5ZM-8,256.3v19.5c5.5.4,12.2-7.2,8.5-12.2,3.2-1.2-1.9-6.7-3.9-7.1s-3.1,0-4.6-.1Z"/>
  <path d="M37.5,255.3c1.2.3.8-.3,1.1-.6,1.4-1.6,5.4-6.5,6.3-8.2s0-1.8.5-2.9l7-1-9.8,14.5,9.6,13.7c.4,1.5-5.5,1.2-6.8,1.5v-2.3c.1,0-6.2-8.1-6.2-8.1-2.9,1.1-1.9,9.5-.8,12l-6.5.5c1.7-2.3.5-4,.5-6.2,0-3.2.7-6.8-1-9.5,2.6-1,1-2.8,1-5s.8-5.1-.5-7.7l6.5-1c.3.9-1,1.8-1,2.2v8.2Z"/>
  <path d="M28.5,251.8c-4.5-1.1-9,.3-13.4,1.1,0,.9-.4,4.9.7,4.9,3.3-3.2,6.4,0,9,0s2.2-1.3,3.3-.7c-1.6,2.8-3.4,4.4-6.7,4.2s-4.8-1.7-5.8-.3l-.5,11.5,13.5-2.7.5,5.5-19.5,2.5c.8-4.1.8-8.6.5-12.7s-.9-2.1-.8-2.5,1.2-.8,1.2-1.9c0-1.8,0-7.5-.4-9.1s-1.1-1.3-1-2.3l20-3c-.4,2-1.2,3.4-.5,5.5Z"/>
  <path d="M-209.4,236.8c1.4-5,8.9-3.8,10.3.5,2.2,7-5.6,10.3-11.5,9.5s-11.4-7.6-15.1-8-2,.9-2.7-.3c-.1-1.8,2.3-2.5,2.7-3.2s.4-16.8-.3-18.1-2.5-1.2-1.7-2.4,9.4-1.3,9.8.3c0,1.1-1.4,1.2-1.9,2-.8,1.3-.8,15.1-.6,17.4s.2,1.5.8,2.2c1.1,1.5,8.6,5.6,10.5,5.5,4.2-.3,4.8-7.4-.2-5.5Z"/>
  <path d="M324.5,429c-.6-.6-.6-1.6-.4-2.4.6-2.6,6.9-17.8,8.4-20.2,2.1-3.4,5.1-2.7,6.9.5s7.1,15.6,7.8,18.7-1.2,4.5-4,4-2.2-3.9-3.6-4.4c-2,.2-8.2-.7-9.4.4s-1,3.2-2.2,3.8-2.7.3-3.4-.4ZM334.4,414.1l-2,5.7c.3,1.2,5.6,1.4,5.4-.4s-2.4-6.3-3.4-5.3Z"/>
  <path d="M256.3,405.2c2.2,6.2,6.3,12.9,8.2,19.1s-5.3,6.8-6.9.8h-9.3c-1.4,1.6-1.1,4.4-3.6,4.5s-3-1.2-2.5-3.5,7-18.1,8.2-19.8,3.8-2.6,6-1ZM253.4,414.1c-1.2-.9-3.3,5.5-3,6.5h5s-2-6.5-2-6.5Z"/>
  <path d="M22,178.4l-1.4,3.6,4.4,15.3,2-1c-1.9,3.5-.4,6.2,1,9.5l-6.5,1v-5c-1.9.2-5.9-2.2-7.3-.5s-1.7,5.7-.7,7l-7,1c.7-1.1,1.4-2.2,1.7-3.5.6-1.9,2-7,2.2-8.8s-.6-4.1-.5-4.2,1.2.3,1.5-.3,2.3-8.3,2.4-9.1c.1-1.7-.7-2.1-.9-3.6l9-1.5ZM19.5,196.9c.3-.3-1.4-5.2-1.8-6s0-1.1-.7-1l-1.5,7.5,4-.5Z"/>
  <path d="M478.2,240.5c2.1-.2,9.8-.2,10.9,1.8,1.7,3.4-2,4.9-2.3,7.2-.7,4.9,3.6,5.5,2.4,9.4s-15.4,2.9-16.7.4,1.7-4.8,2.2-6.4c1.6-5.2-3.6-6.2-2.3-10.3s4.3-2,5.8-2.2Z"/>
  <path d="M-234.4,214.8c.5,1.6-1.3.7-1.8,1.4s1.1,7,1.4,8.6,2.4,10.6,3.6,11.4,2.8.1,2.3,1.2c-.8,1.8-6.7,1.4-8.5,1s-2.3-.7-2-1.5c0-.3,2.4-1,2-3s-2.3.6-2.9.2-2.3-5-3.1.3c-.7,1.5,2.1,2.3,1.3,3.3s-3.4.8-4.7,1.3-5.3,4.7-6.5.7c2.4,0,3.4-1.5,4.2-3.5,1.3-3.2,3.7-13.4,4.1-16.8s.4-2.1,0-3.2l-1.8-.7c1.2-2.7,11.3-2,12.5-.7ZM-238.9,229.3c.2-.2-.9-4.9-1.1-5.6s-.1-1.5-.8-1.4l-1,6.5c1.1-.5,2,0,3,.5Z"/>
  <path d="M162.1,403.5c-1.4-1.4-.3-4,1.6-4.4s14.8-.4,17.5,0,2.5,1.3,2.2,3.2c-.5,3-4.3,1.2-6.2,1.8l-.7.7c-.4,7.3.4,14.7-.5,21.9s-6.1,4-6.9-.1.6-20.8-.3-22.1l-6.7-1.1Z"/>
  <path d="M314.6,409.1c-.2,0-1.7.6-1.8.8.2,1.6-.5,3.6.8,4.7h7.5c1.6,0,1.6,4.5,0,4.5h-8.2v5.2c0,.3,1.1.8,1.2.8h7.5c1.9,0,1.8,3.8-.1,4.4s-8.3.3-9.9.1c-2.3-.3-4.8-1.2-5.2-3.8s-.8-11.3-.5-14.5,1.2-6.1,5.3-6.7,15.1-1.3,11,4.5c-2.4.2-5.2-.3-7.5,0Z"/>
  <path d="M188.4,414.6h8.2c1.6,0,1.6,4.5,0,4.5h-8.2c-3.5,9.6,7.5,4.1,9.5,6.7,4,5-9.4,4-11.7,3.7-3.4-.5-4.6-2.3-4.9-5.6s-.4-13.7.8-16.3c1.7-3.8,10.3-3.5,14-3s3.2,3.3,1.3,4.2c-3.4,1.7-11.9-2.8-9,5.7Z"/>
  <path d="M307.8,399.7c.8.8.8,3,0,3.8-1.1,1.1-4.5.4-6.1.7l-.7.7c-.9,6.6,1,15.4-.2,21.8s-5,3.9-6.4,1.7.6-18.3-.7-22.8c-.9-2.9-4.8-.5-6.6-1.9s-1-3.6.3-4.3,15.6-.5,17.8-.3,2,0,2.6.6Z"/>
  <path d="M-4,387.6c-2.2-2.3-3.5-4.1-3-7.5,1.8,1.7,2.4,7.4,5.2,7.5s1.5.3,1.3-.8c-2.3-1.7-4.5-4.2-4.5-7.2,1.8,1.6,2.5,4.2,4.3,5.9,3.2,2.9,6.5,2.7,10.2,3.8s1.2,0,1,1.2c-2.8.2-5.5-1.3-8.2-1.5-15.1-1.4-32.2,1.1-47.5,0-1.1,0-2.4,1.1-2.9,2.1-2,3.5-.2,14.9-.8,19.7s-.4,3.6,0,8c.5,6-.7,13.2,0,19s2.8,5.8,6,5.7l-.7,1.4c-9.6-2-6.2-13.7-6.2-20.6s-.4-7.1-1.5-8-2.4-.3-2-1.7c1.7-.2,2.7-1.1,3-2.8.9-5.6-1.4-16.6,1.1-21.4s7.7-2.8,10.9-2.8c-2.6-3.2,1.8-5.7,3.5-1.7,0,.3-2.5.3-2,1.7h12.7c.3,0,1.7-4,5.6-2.1s1.3.7,1.1,1.6c-1.4-.9-4.3-2.1-4.5.5H-4Z"/>
  <path d="M-208.5,214c3.2-.5,8.4.9,9.4,4.3s.5,7.3.1,8.6c-1.5,5.9-14.3,6.2-15.8-1s.2-11,6.2-12ZM-204.5,217.9c-1.6-1.6-5.8-.4-5.4,2.4,2.1-1.1,4.1-1,6,.5,0-.8,0-2.3-.6-2.9ZM-203.9,224.8l-2.2,1c-.8-.2-.4-3.3-2-3s-1.6,1.4-1.7,1.8c-1.7,5.6,7.1,6.4,5.9.1Z"/>
  <path d="M50,387.6c-1.1-2.4-3-1.2-5-1,.7-1.9,3.3-1.9,4.9-1.1s1.1,1.9,2.4,2.1c5.6,1.1,14.5-.9,20.5,0s4.5,3,4.8,6.2-1,17.1,1,19.5,2.8.7,2.5,2.2c-2.4,0-3.1,1.1-3.5,3.3-.8,5.5,1.6,20.1-1.8,23.7s-4.1,2.6-5,2.5c-2.8-.4,2.1-2,2.4-2.1,5.6-3,2.8-14,2.8-19.1s1.5-6.9,1.5-8.9-.9-2.9-1-4.5c-.3-5.2.6-11.5,0-16.5s-1.6-4.5-3.7-4.8c-6.4-.8-16.2,0-23,0s-15.1-.7-23,0-7.9,1.8-9.4,1.4-.9-.5-.9-.9c3.9-.4,7.9-1.3,11-3.8s3.2-4.2,5-6.2c.2,2.2-1.7,4.4-3,6.1s-3.2,2.4-.3,1.8,3.6-4.3,4.3-6.2-.4-1.4,1.1-1.2l-.2,3.5-2.8,4h18.5Z"/>
  <path d="M14,356.2c.5,3.4,1.5,1.9,3.2,2.1s.9.9,1.5.8.9-.9,1.1-.9c.4,0,.8,1.5,1.2,1.8s1.2-.3,1.7-.3,2.6,2.2,2.8,2.3c.4.3,1.4-.4,1.5-.3-.4,2,1,1.2,1.4,1.6s-.4,1.7,1.5,1.4c-.3,2.8.9,1.6,1.4,2.1,1.3,1.2,2.1,5.2,3.6,7.1,2.1,2.8,7,5.6,10.5,4s3-3.7.3-3.3-.5,1.9-1.8,1.5l.2-2.5,3.7-.4c2.9,6.2-4.6,7.8-9.1,5.8s-6.3-7.8-9.1-11.4c-7-9-20.4-10.6-29.2-3.2-5,4.1-5.9,11.9-12.3,14.6-2.9,1.2-7.9,1.3-9.3-2.1-2.2-5.2,7-5.3,3.9-.9l-1.5-2-1.2,1.3c0,2.8,4,3,6.2,2.6,3.9-.6,8.7-5.9,8.3-9.9h1.5s-.5-2-.5-2l2,.5-.5-2c1.5.3,1.6-.8,2.2-1.3,1.1-.9,2.6-2.1,3.8-2.9s1.1.3,1.5,0c.7-.5,0-1.9,2.2-.8l.8-1.5h.9c0,0,.3,1,.3,1,.7,0,1-.7,1.6-.9,2.2-.5,1.1,1.1,2.7-1.8s.4-.4,1-.3Z"/>
  <path d="M22.4,385v-1.3c6.4-.5,8.5-7.6,6-12.8-4.5-9.4-19.9-10.9-26.9-3.6-5.7,6-4.7,15.9,4.5,16.7l-.4.9,1.4,1.6c-4.1,1.1-9.3-3.9-10.3-7.5-3.1-12.1,11.7-20.8,22-17.5,7,2.2,13.5,8.3,12.2,16.2s-6.5,11.1-11,8l2.4-.8Z"/>
  <path d="M473,236.7c-2.3-2.9.6-6.2,3.7-6.7s13.4-.9,12.6,5.1-13.7,4.9-16.3,1.7Z"/>
  <path d="M-487.8,453.8c.4-2.3,3.5-5.6,5.9-6.1,13.1-2.7,13.6,17.2.4,15.3-1.6-.2-2.4-1.1-3.8-1.4v6s-2.5,0-2.5,0c.5-4.2-.7-9.8,0-13.7ZM-481.4,450.2c-7.4,1.7-2.6,13.9,4.3,9.8s2.7-11.4-4.3-9.8Z"/>
  <path d="M-453.8,453.3c.9-5.1,7.9-7.3,12.2-4.7,7.7,4.7,2.9,16.5-6.8,14.3s-1.7-1.4-2.9-1.4v6s-2.5,0-2.5,0c.5-4.3-.7-10.2,0-14.2ZM-447.9,450.2c-5.9,1.5-3.2,11.6,2.7,10.7s5.9-12.9-2.7-10.7Z"/>
  <path d="M32.8,357.8c.3.3,2.9,2.9,3.2,3.2,1.6,2,2.9,5,4,7.4,3,.6,5.6-.3,8.5,1s1.2,0,1,1.2l-10-.7c-3.2-7.1-7.5-12.5-14.9-15.6s-9-3.1-10.9-3.1-9.3,2.5-11.2,3.3c-7.3,3.1-11.3,8.5-14.5,15.5l-10,.7c-.2-1.3.2-.9,1-1.2,2.9-1.3,5.5-.4,8.5-1,3.1-8.5,9.5-13.7,18-16.5,3.3-1.1,6.4-.2,8.3-4.2,1,3.9,4.4,3,7.5,4s8.6,3.6,11.6,6.1Z"/>
  <path d="M-378.8,464h-2.5c0,0,0-1.5,0-1.5-3.8,2-9,2.6-11.9-1.3-6.1-8.2,4.9-17.3,11.9-10.9s2.5,3.6,2.5,4v9.7ZM-383,452.2c-4.5-4.3-12.1,1.1-8.6,6.8s14.3-1.3,8.6-6.8Z"/>
  <path d="M-405.9,448.7c13.4-2.5,13.3,16.4,1.4,15.4-9-.8-9.1-14-1.4-15.4ZM-403.9,450.7c-8.9.8-4.6,14.9,3.1,10.1,4.9-3.1,2.3-10.6-3.1-10.1Z"/>
  <path d="M-431.4,448.7c13.1-2.7,13.6,16.4,1.4,15.4s-9.2-13.8-1.4-15.4ZM-425.5,460.4c4.7-4.4-.5-12.3-6.5-8.7-6.6,3.9,1,14,6.5,8.7Z"/>
  <path d="M-465.4,448.7c12.7-2.6,13.9,14.9,2.9,15.4s-10.8-13.8-2.9-15.4ZM-463.4,450.7c-7.6.7-5.9,12.6,2.3,10.8,5.5-1.3,4.6-11.4-2.3-10.8Z"/>
  <g>
    <path d="M234.5,279.5c0,.3.8,1,.5,1.7h-3.5s0-21.5,0-21.5h3.5c-1,2.1.3,4.6,2,6l-.5-6h4c-.5.8-.9,1.1-1,2.2-.5,4.1-.1,11.6,0,16s.5,2.1.5,3.2h-3.5s.5-7.7.5-7.7l-2-1.1c2.1-2.3,2.3-5.9-.5-7.7.4,4.7-.5,10.1,0,14.7Z"/>
    <path d="M242.3,259.4c2.7-.8,6.6,0,7.1,3.2s.4,13.3,0,15.3c-.9,3.8-6.6,4.8-7.9.6,2-5.7.2-12.2.2-18.2l.6-.9ZM246.4,260.8l-1.5.3c.6,2.6-.8,12.9,0,14.3s1.6.4,1,2.4l-2.5-.3-.5,2.3c3.1.3,3.4,0,3.9-2.9s.4-15.6-.4-16.1Z"/>
    <path d="M257.3,260.4c.6.5,1.1,2.3,1.2,3.1.3,2.9.4,11.2,0,14-.7,4.9-6.5,4.9-7.4.9s-.3-15.1.7-17.1,4-2.5,5.6-.9ZM256,264.8c.2-1.7-.8-5.3-3-3.8s2.7,4.1,3,3.8ZM254.6,266.1c-.4-.2.1-1-.7-.8.7,4.8-2,10.1.7,14.5,1.5,0,1.3-11.9,1.3-13.2-.1-.5-.9-.2-1.4-.4Z"/>
    <path d="M263.5,280c0,.1.6.4.3.8-.6.8-3.5.8-3.7-.2v-20.5s.7-.7.7-.7h3.2c0,0-.5,10.4-.5,10.4l-1.7-.5-.5,1c2.8,3,5.1-1.7,5.2-4.3s-1.4-4.7,1.3-6.7c1.9,0-.3,2.1-.3,3.2s1.1,2.4,1,4.1c0,3-2.3,3.7-2.5,6.2l1.9.7c-.9,2.7-.4,5.2.6,7.8l-2.8-.5-.7-7.7-1.5-.3c0,2.4,0,4.8,0,7.2Z"/>
    <path d="M225.9,259.4c1.6-.3,3.4.8,3.9,2.4s.5,14.2.1,16.1c-.9,4.3-6.1,4.6-7.1.4s-.5-13.5.4-16.1,1.3-2.5,2.7-2.8ZM225.5,266.3c-.3.6,0,10.9,0,12.7s1.8.4,2-2,.4-12,0-14.5-5.2-1.8-3,1.5l2.5.9c-.2,1.2-1.4,1.2-1.5,1.3Z"/>
    <path d="M205.6,260.4c1.8-1.8,4.3-1.2,5.5,1,1.6,3.2.5,6.7.4,10.1s.9,3.9-.1,6.8-6.2,3.6-6.9.1-.3-12.3,0-15,.6-2.5,1.2-3.1ZM209,265.3c.2-2.6.2-4.9-3-4.5l.2,2,2.8,2.5ZM209,266.3l-2-1v13.2c0,0,1.3,1.4,1.5,1.2-.2-.5.5-1.1.5-1.2v-12.2Z"/>
    <path d="M217,281.3h-3.5s0-21.2,0-21.2c.4-1.6,5-.7,6.2.2,2.6,2,2.2,9.4-.3,11.2s-2.6.6-2.9,1.6l.4,8.2ZM218.5,261.3c-1.1-.2-1.8-.9-2,.8s1.5,7.1,1,7.7c-1.5.5-.6-1.2-1.7-1-2.7.4-.9,3.8,1.9,2s.8-1.1.8-1.3v-8.2Z"/>
    <path d="M201.9,260.4c1.5,1.4,1.4,7.3.8,9.3-.9,3-4.5,2.6-4.7,3.4.2,2.5-.7,5.3,1,7.4-.9,1.2-2.6.7-4,.7.7-2.2,1.1-3.9,1-6.3s-1-3.9-1-5.5,1.1-5.7,1-7.5-1.2-1.2-1-2.2c2-.3,5.3-.9,6.9.6ZM200,265.3c.6,2.9-2.3,2.9-4,4.2,4.3,6.6,6.7-7.8,2.5-8.7v5.5s1.5-1,1.5-1Z"/>
  </g>
  <path d="M-362.3,464h-2v-8.7c0-2-3.2-4.6-5.3-4.7s-5.7,2.2-5.7,4.2v9.2h-2.5v-9.7c0-.7,2-3.7,2.7-4.3,3.2-2.6,8.5-2.3,11.3.7s1.5,2.4,1.5,2.5v10.7Z"/>
  <path d="M-8,459c3.9,8.8,12.8,11.2,21.3,13.5,6.7-1.6,13.5-2.9,18.5-8s2.4-3.4,3.6-4.9.4-1.4,1.2-.4c-1.5,5.5-7.6,9.9-12.7,11.7s-8.1.7-10,4.5c-2.9-4-8-3.4-12.2-5.2s-9.3-6.3-10.5-11l1-.3Z"/>
  <path d="M-29.5,381.6l-5.3-4.9c-2.4-2.4-9-1.8-7.3,2.3s6.2,1,8.6,4.1c-.6-3.3-3.9-4.9-7-4-.4-3.9,2.8-2.4,4.8-1.1s4.3,5.1,5.7,8.1c-1-.1-2.3.2-3.2,0-1.3-.5-.5-4-5.1-3.5s-1.7,3.5-4.2,4c-.7-1.3,1.6-4.2,1.5-4.7s-5.2-3.5-1.2-6.8,12.5,1.4,12.7,6.5Z"/>
  <path d="M40.5,237.3c-4.2,9.7-16.1,3.9-24,7.5,3.8-6.8,11.4-4.5,17.7-5.6s4.1-1.1,6.3-1.9Z"/>
  <path d="M70,386.6h-1.5c.7-3.4-2.6-5-5.5-3.7s-1.2,4.6-5.5,3.2c1.2-3.1,3.4-7.2,6.6-8.7,4.7-2.2,4.3,2.1,2.7,2.1-1.8-3-6.9,3.4-6.3,4.1,2.2-3.6,9.9-1.1,9.4-6.1s-7-1.5-9.1.2-2.8,3.9-3.1,3.9c-2.8.9.4-3.4,1-4,2.5-2.6,8.8-5.5,11.6-2s-1.5,5.2-1.7,6.4,2.1,3.3,1.4,4.7Z"/>
  <path d="M32,449.1c-3.1,19.3-32.2,19.8-36.5.8l1.5-.3c2.6,14,22.1,17.6,30.7,6.5s1.9-3.9,3-6,0-1.2,1.3-1Z"/>
  <path d="M-420.3,448.8c.6-2.1,3.5,0,2.5,2.2h4s0,2.5,0,2.5h-4c-.3,4.1,1.1,7.7,5.5,8.3v2.2c-3.2,1-8-4-8-6.7s-.4-7.1,0-8.5Z"/>
  <g>
    <path d="M56.1,15.1c8.6.7,12.2,6.3,11.3,14.7s-6.7,10.3-13,10c6.1,3.5,7.7,10.8,11.2,16.2,1.1,1.7,3.3,4.9,5.5,3.1s2.4-3.1,1.8-1.1c-1.5,5.2-8.4,2.2-10.9-.9-3-3.9-7.2-14.2-11-16.5s-3-.5-3.7-1.7h7.2c2.9,0,6.9-3.5,8-6.1,4.2-9.1-2.5-18-12.3-16.9.9,2.1,5.6,11.4,7.3,11.8s1.1-.8,2-.7c.1.7-.5,1.1-1.1,1.3-6.2,2-8.2-11.7-13.4-12.8l.2-.7c.3,0,.6.4.7.4,3.2,0,6.9-.3,10,0Z"/>
    <path d="M51.9,36.6h-5.8c-4.7,0-9.4,4.6-10.1,9.2-1.3,9.2,4.4,14.3,13.3,14.2.2-.2-.8-2.1-1-2.5-.8-1.5-4.2-7.8-5.1-8.6-2.1-1.9-3.3.5-3.5.3.3-1.9,1.8-2.1,3.4-1.8,4.8.9,6.4,11.4,11.4,13.1-2,.3-4.1.3-6.1.2s-7.6-.3-9.9-1.2c-8.5-3.3-8.4-18.6-.2-22.3s4.4-1,6.6-1.5c-5.6-3.4-7.2-10-10.4-15.2s-5.1-7-7.6-1.7c-.2-4.8,5.2-4.5,8.3-2.4,5.1,3.5,8.5,15.9,13.3,18.7s2.7.5,3.5,1.5Z"/>
    <path d="M63.2,73.7c2.5.5,2.7,4.8.2,5.6v.5c1,1.2,3.2,5,4.9,4.7l4.9-11.1c.6,0,3.6,9.6,4.6,10.9s1,.2,1.5.2l-3.5.4-1.6-3.7h-3.4s-.8,2.7-.8,2.7l.8.9c-2-.2-4.5.6-6.1-.7s-1.8-2.8-2.6-3.4c-2.5-1.9-1.5,2.2-1.7,3.5l1.1.6h-4.1c-.1-.6.7-.4.9-.7.4-.6.5-9.3-.6-10.4,1.6.2,3.9-.3,5.4,0ZM60.4,79.6c4.1.6,4.2-5.8,0-5.2v5.2ZM74.1,80.4l-1.3-3.7-1.3,3.7h2.6Z"/>
    <path d="M48.4,73.5c9.1-.1,7.5,12.6-.8,11.7-7-.7-7.2-11.6.8-11.7ZM51,75.3c-1.2-1.1-3.8-1.3-5.1-.3-3.5,2.6-.7,11.3,4.4,9.2s2.6-7.1.7-8.9Z"/>
    <path d="M6,73.7c1,.2,2,1.7,2,2.8,0,1.8-2,2.6-1.8,3.6,1.6,1.5,2.7,4.5,5.2,4.3,0,.6-1.7.4-2.1.4-3.7-.5-2.9-4.9-6.5-4.5.1.9-.3,3.1.2,3.7s1.4,0,1.3.7H.3c-.2-.6.7-.2.8-.6s.4-3.2.4-4c0-2.2-.2-4.4-.8-6.5,1.6.2,3.9-.3,5.4,0ZM2.9,74.4v4.6c0,0,.6.6.6.6,4.2.4,3.5-5.9-.6-5.2Z"/>
    <path d="M99.7,84.5c0,.6-.5.3-.9.4-.9,0-1.9,0-2.8,0-.3-2.7-.5-4.1-3.6-3.7s-2.1,2-2,3.2.9,0,.8.6h-3.3s1.5-.9,1.5-.9l4.3-10.5c.7,0,3.5,8.9,4.3,10.1s.9,1,1.8,1ZM94.5,80.4c.1-.1-.8-3.6-1.5-3.7l-1.1,3.7h2.6Z"/>
    <path d="M18.8,73.7v1.5c-1.3-.5-2.2-1-3.7-.7v4.1s3.3,0,3.3,0v1.5c-1-.9-2-.8-3.3-.7v4.2c.4,1.1,3.3.8,4.1-.1v1.4c0,0-7,0-7,0,0-.6.6-.2.9-.8.4-.9.4-7.8.2-9s-.6-.8-.7-1.3h6.3Z"/>
    <path d="M86.4,73.7v2.2c-.6,0-.4-.7-.9-1.1-1.1-.9-3.2-.7-3.2.9,0,2,4.6,3,4.5,6.3-.1,3.2-3.8,3.7-6.2,2.8v-2.9c.6.1.3,1.2.9,1.8,1.1,1.4,3.5.9,3.9-.9-.6-2.7-4.5-3.4-4.5-6.3,0-3.3,3.2-3.1,5.6-2.8Z"/>
    <path d="M40.7,73.7v1.9c-1.2-.9-2.9-1.8-4.1-.6v8.5c0,1.1,1.3.6,1.5,1.3h-4.5c-.1-.7,1.1-.3,1.1-.4v-10c-1,0-2-.1-3,.2s-.4.9-1.1,1l.6-1.9h9.5Z"/>
    <path d="M28.1,73.7v1.8c-1-1.7-3.8-2.1-4,.2.2,1.9,5.6,3.4,4.4,7.3s-7.1,3.4-6.2-.5c1.1-.2.9,1.2,1.9,1.7s3-.3,3-1.8c-.1-2.3-5.4-3.4-4.3-6.9s3.5-2.2,5.4-1.8Z"/>
  </g>
  <path d="M-.5,450.6c3.6,10.2,18.4,12.8,25.5,4.8s3.3-5.5,4-4.7c-3.4,11.7-20,14.2-27.8,5.3-.6-.6-4.3-5.7-1.7-5.3Z"/>
  <path d="M45.9,444.2l.4.9,2.2-1c0,1.4-.9,2.5-2.3,2.5s-.6-1-1-1-5.2.5-5.8.6c-2.8.6-5.3,3.2-8.9,1.4.7-4.8,7.6-2.3,10.7-2.5s3-.8,4.6-.9Z"/>
  <path d="M49.5,381.1h2c1.9,1.6-5.8,1.9-6.1,2s-.2,1-1.1,1c-1.9.1-2.6-1.1-3.8-2.3l4.1-.4c4.9-1.3,6.3-4,4.9-8.9,2.4.2,2.3,3.9,1.8,5.5s-1.8,1.7-1.8,3Z"/>
  <path d="M-22,373.2c-3,4.3,2.1,8.2,6.3,8.5s2.7-1.2,2.5.4c-1.2,1.4-2.3,2.5-4.4,2s-.3-.9-.7-1c-1.6-.4-4.2.3-5.6-1.3l2-.7c.5-.5-3.6-3.9-1.9-7.1s.8-1,1.9-.9Z"/>
  <path d="M55.5,444.1c-3.7,5.9-5.2,15.6-14,8.7,1.3-.5,2.7.3,4.2.3,5-.2,5.1-5.5,7.8-8.2s.7-1.1,1.9-.8Z"/>
  <path d="M-3,447.5c-3.6,1.9-6.2-.8-8.9-1.4s-6.3-1-6.4.4c-1.6.2-2.9-.8-2.7-2.5.3-.4,7.1,1,8.2,1,3,0,9.1-2.3,9.7,2.4ZM-4,447.1c-1.1-2-3.6-1.5-5.5-1.5,1.1,2,3.6,1.5,5.5,1.5Z"/>
  <path d="M-14,452.6c-7.7,7.3-11-2.6-14-8.5,3.6,1,4.1,6.4,7,8.2s4.5.5,7,.3Z"/>
  <path d="M4.5,434.6c0,2-.5,3.9,1,5.5l-2-.5c-.3,3.8,5.1,1.7,2.9-1.2s-1.6-.6-1.4-1.3l1-.3-.5-2.2,1.5.3c.2,2.8,2.5,8-2,7.7v5.5s-1.5,0-1.5,0c.3-1.5.8-3.2.5-4.8s-2.1-1.1-1.8-3.3,1.2-.7,1.3-1.7-.3-2.5-.5-3.8h1.5Z"/>
  <path d="M26.5,450.6c.2,2.8-2.4,2.8-4.1,3.5s-.2,1-1.1,1c-2.1.1-4.5-1.7-4.8-3.8s0-.9.8-.7l1.7,2,.5-2.5c1.6,1.2,2.3,2.6,4.6,1.9s1.2-1.6,2.3-1.4Z"/>
  <path d="M8,450.6l.8,1.5,1.7-1.5c.4,3.3-2.6,4.7-5.5,4.5l.5-1c-1.9.2-5.1-1.4-4.3-3.5,2.3,2.6,4.2,1.2,6.7,0Z"/>
  <path d="M-27,373.6c-2.5,5.1,0,7.5,4,10.2-1.2,1.7-1.6-1.1-3-.7v3.5c-1.5.2-.8-.4-1-1.2-.8-3.3-1.9-6.3-2.9-9.5.2-1.8,1.2-2.5,2.9-2.2Z"/>
  <path d="M54.5,386.6c-1.7.3-1.4-2.4-1.5-3.5-1,.2-1.4,2.3-2.5.7,3.7-2.5,6.3-5.3,4-10,0-.5,2.1-.5,2.4.6,1.2,3.8-3.7,8-2.4,12.2Z"/>
  <path d="M-40,444.1c.8.7,1.4,3.1,3.5,3.8s3-.8,4.3-.8c2.7,0,1,4.6,2.7,6-2.3.3-2.8-2-2-3.7l-.7-.7c-2.7,2.5-8.4-.7-8.8-3.8s.6-1.1,1-.7Z"/>
  <path d="M36,378.6c.5,1.3,1,3.3,1.8,4.5,1.3,1.8,1.1.1,2.7,0l1.5,3.5c-1.4.9-4-1.4-4.3-1.4-.4,0-1.5,2-2.7,1.4,1-2.6.9-5.1,0-7.7l1-.3Z"/>
  <path d="M-7.5,378.6c-.8,2.8-1.7,5.2,0,8-1.8.3-1.9-.1-2.7-1.5-1.1,1.3-2.6,1.7-4.2,1.5l1.5-3.5,1.7,1c1.5-1.1,1.7-3,2.5-4.5s0-1.2,1.3-1Z"/>
  <path d="M68.5,444.1c-.5,4.5-5.6,6.5-9.5,4.5.5,2,.9,4.7-2,4.5,1.7-1.4.3-4.4,1.7-5.5s2.3.4,3.6.6,3.6-1.2,4.6-2.1.1-2.2,1.6-1.9Z"/>
  <path d="M40,453.1c-.5,2.7,1.9,7.2,4.3,8.4s4.7.7,3.7,2.1c-1.8,2.3-8.3-3.9-8.9-6.9s-.8-4.2.9-3.6Z"/>
  <path d="M-20.5,463.5c0-1.9,2.3-1.3,3.7-2.1,3.3-1.7,3.8-5.3,4.6-8.4,4.1,3.6-6.2,13.1-8.2,10.5Z"/>
  <path d="M19,456.1c-1.2,3.2-9.3,3-10.5.7s4.5.2,4.8.2c2.1,0,3.6-2,5.7-1Z"/>
  <path d="M13,445.1c2.1-.3,2.4-1.6,1-3l1.5.2c1.5,1.2-.5,2.7-.4,3.4s1.3,1.3.9,2.3l-3-2.5v2.5s-1.5,0-1.5,0c-.1-2,1-3.7,0-5.7,2.9-2.5,1.1,2.3,1.5,2.7Z"/>
  <path d="M4.4,370.3c1.9,1.7,1,5.1,1.2,7.3-1.3-.5-1.4-2-2.2-3s-4-2.3-1.5-3l2.3,1.5-1.5-3.5c.7,0,1.3.2,1.8.7Z"/>
  <path d="M25,369.7l-2,4c.4-1.3,5.2-3.2,3.4-.6s-1.4.3-1.9.8c-1,.9-1.3,2.6-2.5,3.2-.7-3.1-1.1-7.1,3-7.5Z"/>
  <path d="M59.5,444.1c-.7,3.1-3.8,3.6-3.2,7.5-3.8-2.2-.4-7.3,3.2-7.5Z"/>
  <path d="M-14,455.6c-.8,3.9-6.6,7-10,4.2,1.1-1.5,2.6-.2,4.1-.3s3-1.1,3.7-1.9.1-2.5,2.2-2Z"/>
  <path d="M15.5,434.6v2s1-.5,1-.5l2,4.5c-2,.5-1.7-1.7-3.2-2l.2,2h-1.5s0-6,0-6h1.5Z"/>
  <path d="M51,459c-1.1,5.4-10.9-2-9.5-3.5,2.2.7,2.5,2.9,5.1,3.7s2.7-.1,4.4-.2Z"/>
  <path d="M13,386.6l1.5-6.5-2.5-.2c7.2-3.5,3.6,4.3,1,6.7Z"/>
  <path d="M-29,451.1c1-3.6-2.5-4.2-3-7,3.1,0,7.3,5.6,3,7Z"/>
  <path d="M-25.5,451.6c1.2,3.8,4.3,5.2,8,5.2-2.5,3.4-9.2-2.2-9-5l1-.3Z"/>
  <path d="M45,456.6c3.7.5,6.9-1.4,8-5l1,.8c.3,2-7.3,8.3-9,4.2Z"/>
  <path d="M-22.6,444.7l5.2,5.3c-2.3,1.1-6.3-3.5-7-5.2s1.4-.5,1.8,0Z"/>
  <path d="M52,444.1c-1.7,2.4-3.8,7.8-7.5,5.2,3.7-.4,4.3-4.8,7.5-5.2Z"/>
  <path d="M4,379.6c-2.6.9-6.3-2.3-2-2.2l-2-2.7c1.2-1,4.9,3.4,4,5Z"/>
  <path d="M-21.2,391.2c3-1,3.9,4,.4,4s-1.7-3.6-.4-4Z"/>
  <path d="M27.5,374.6l-2.5,2.7c0,1.8,1.3,0,2-.3.2,2.3-1.6,2.7-3.5,2.5-.3-2.5,1.1-5.3,4-5Z"/>
  <path d="M25,449.6l.3-3-3.2-2.3.7-2.1c0,2.5,3.2,2.3,3.7,3.8s0,3.1-1.4,3.6Z"/>
  <path d="M16.5,370.1c-.3,1.9,1.5,4.1-.2,5.5l-2.7-2.2,3-3.2Z"/>
  <path d="M9.2,443.9c.1.3,1.1-.2.8.9-1.7.4-.9,1.8-1,3.3h-1.5c.2-1.7-.4-4.1,0-5.7.7-2.5,1.5,1.3,1.6,1.5Z"/>
  <path d="M24.5,440.6c-1.7,1.3-3.3-4.5-3.5-5.5l-1.2,1-.3-1.5c3.9-.9,3.3,3.7,5,6Z"/>
  <path d="M49,439.1v-3.5l2.5.2c1.4,2.4.1,3.7-2.5,3.3Z"/>
  <path d="M64.6,387c-.2-.1-.4-1.3-2.1-1.1,2.3-4.8,7,1.3,2.7,1.3-.3.1-.4,0-.6-.2Z"/>
  <path d="M18,441.6c.3.3-.3,4.1,0,5.2s1.5.5,1.4,1.3c-4.6,1.2-3-8.2-1.5-6.5Z"/>
  <path d="M11.5,374.1l1.5,1h-3s1.5-3.2,1.5-3.2l-1.5-.3c-1.5-1.9,5.9-2.1,1.5,2.5Z"/>
  <path d="M65.5,444.1c.3,3.9-7,2.9-4.2-.5,1.4,1.8,2.5,2,4.2.5Z"/>
  <polygon points="60 439.1 58 438.1 57 439.1 57 435.6 59.8 436.1 60 439.1"/>
  <path d="M-33,444.1c.2,3.6-5.1,3.3-5,0,2.1,1.8,2.8.3,5,0Z"/>
  <path d="M10,434.6c.2,1.2-.6,2.4-.4,3.6s1.5,1.3,1.9,2.4l-2.3-.4c-1.3-1-.5-4-.7-5.5h1.5Z"/>
  <path d="M18.5,376.6c0,2.2-4.3.9-6.3,1s-2.1.5-3.2.5v-1.5c3.2.8,6.3.5,9.5,0Z"/>
  <path d="M59,376.1c-1.8.4-.6-1.7-1.2-3s-2.1-.5-1.8-2c3.2-.3,3.9,2.4,3,5Z"/>
  <polygon points="44 392.6 45 391.1 45 394.6 42.5 393.1 42 394.6 42 391.1 44 392.6"/>
  <path d="M57.5,395.1l-1-2-2,1.5v-3c1.6-.4.5,1.3,1.7,1l.7-1.3,1,.5-.5,3.3Z"/>
  <path d="M11,455.5c-.9-3.3,3.6-5.6,2.3-1.5s-1,1.7-2.3,1.5Z"/>
  <path d="M-15,391.1l1,4c-1.6.4-.5-1.5-2.3-1s0,1.2-.7,1c-.4-.7,1-5,2-4Z"/>
  <path d="M-28.5,371.2c.2,1.5-1.7,1.2-2.2,2.5s0,1.8-.5,2.5c-1.9-2,0-5.6,2.7-5Z"/>
  <path d="M-29.9,392.1c.9.5,1.7-1.2,2-.9.3.9-.8,1.2-.8,1.7s1.1,1.3.8,2.2l-1-1.5-2,1,.2-3c1.1-1.3.6.3.8.4Z"/>
  <path d="M46.5,435.6l1,3.5c-1.7-.3-1.4-1.5-3,0,0-1.4.2-3.5,2-3.5Z"/>
  <path d="M52,391.1c0,2-2.2,0-1.5,3,1.5.4.7-.9,1.3-1,1.4-.4,1,2.4-.9,1.9s-1.6-4.4,1.2-3.9Z"/>
  <path d="M40.5,435.6l.3,1.5,1.7-1.5v3.5s-1.7-1.5-1.7-1.5l-1.2,1.5c.3-1.1-.9-3.9,1-3.5Z"/>
  <path d="M-20,435.6l1,3.5c-1.6.4-.5-1.5-2.3-1s0,1.2-.7,1l.5-3.5h1.5Z"/>
  <path d="M-5.5,451.6c-.7,1.3,0,2.3.5,3.5h-2.5c.4-2.1-1.4-3,2-3.5Z"/>
  <path d="M-24,391.1l-1,1.5,1,.5c-.7,0-1.2-.2-1,.7s1.5-.2,1,1.2h-2s0-4,0-4h2Z"/>
  <path d="M33.5,392.1c.7.6,1.7-1.2,2-.9.3.9-.8,1.2-.8,1.7s1.2,1.3.8,2.3l-1-1.5h-1s-.5,1.5-.5,1.5c.4-1.4-.9-3.1.2-4l.3.9Z"/>
  <path d="M14.5,455.5l-.5-3.5c.8-.8,4.6,3.9.5,3.5Z"/>
  <path d="M39.5,391.1l-1,1.5,1,.5c-.7,0-1.2-.2-1,.7s1.5-.2,1,1.2h-2s0-4,0-4h2Z"/>
  <path class="st0" d="M-258.9,428.1v-33h18.2c1.1,0,3.9,2,4.5,3,2.2,3.9-.6,7.5-.1,9.1s1.6,1.6,2.1,2.4c4.4,7.2,1.6,14.8-6.1,17.8l-18.6.6ZM-242,400.7c-1.3-1.2-7.1-.4-9.1-.5-1.2.4-.8,2.4-.8,3.4,1.9-.5,9.3,1,10-.4s.4-2-.1-2.5ZM-253.9,411.1c.3,3.3-1.7,7.5.2,10.5h10c1.4,0,3.7-3.7,3.8-5.2s-2.3-5.3-4.3-5.3h-9.7Z"/>
  <path class="st0" d="M-194.2,395.1l14,21c1-6.9-.1-13.9.2-21l5,.3-.5,32.2-6.2-.5-12.2-19v20h-7.5v-33h7.2Z"/>
  <path class="st0" d="M-205.9,395.1c-.3,2.4.8,5.6-.7,7.5h-15.2v5.5h15.5v5h-17v8.5h17v6s-21.3,0-21.3,0l-.2-32.5h22Z"/>
  <path class="st0" d="M-208.9,385.1l-2.5-1.3c-2.2,1,.9,4.6-1.8,4.8s-1.5-3-2.7-3.8l-6.7-.7-.8,3.5h-1.5c.3-3.1.4-16.5,2-18.2s10.7-1.9,12,0,2.4,15.1,1.9,15.8ZM-215.9,379.6c-.3-2.5,1-5.8-1.3-7.5-1.1,0-.8,6.3-1.3,7.5h2.5ZM-222.4,380.1l1.5-1.2v-6.2c-.7-.1-.8.9-.9,1.4-.3,2-.4,4.1-.6,6.1Z"/>
  <path class="st0" d="M-197.9,374.6l.5,1.3,1.5-.3c-.8,1.7,1,2.1,1,2.3s-1,2.6-1.1,2.7c-.4.3-1.2,0-1.5.1-.5.3-.4,1-.6,1-.6,0-1-.6-1.6-.9s-1.5,0-1.6-.1.4-.8.3-1.2c-.2-.9-1.8-1.7,0-2v-1.6c2.4.6,1.3-1.2,3.1-1.2Z"/>
  <path class="st0" d="M-234.9,374.6l.5,1.3,1.5-.3c-.8,1.7,1,2.1,1,2.3,0,1.5-2.3,3.7-3.8,3.8s-.1-.7-.6-1-1.2.2-1.5-.1-1.1-2.5-1.1-2.7,1.8-.5,1-2.3l1.5.3.5-1.3h1Z"/>
  <path class="st0" d="M-216.3,453.5c.6.4,1.8-.6,1.9-.4-.8,1.7,1,2.1,1,2.3s-1,2.6-1.1,2.7c-.4.3-1.2,0-1.5.1-.5.3-.4,1-.6,1-1.5,0-3.7-2.3-3.8-3.8s1.8-.5,1-2.3l1.5.3.5-1.3c.8,0,.8,1.3,1.1,1.4Z"/>
  <path class="st0" d="M-202.5,442.1v4.4c-1,.4-1.9-1.5-2.2-1.5-.6,0-.4,2-1.7,1.5l.2-4.5c.7-1,2.8-.3,3.7,0Z"/>
  <path class="st0" d="M-221.4,436.1h.7c.8-1,.6-1.8,2.3-1.5v4.5s-1-2-1-2l-1,1-1.7-1-.3,2.5c-1.7-.8-.8-3.4-1-5,1.3-.2,1.8.2,2,1.5Z"/>
  <path class="st0" d="M-221.9,443.6c-.1-.5,1.1-2.7,1.8-1.5l.2,4.5c-1.9.5-.6-1.9-1-2.5l-1.7,1-1.3-1c-.4.5.9,3-1,2.5l.2-4.5c.7-1.3,2.3,1.8,2.7,1.5Z"/>
  <path class="st0" d="M-207.6,434.7c3.6-1.3,5.6,2.6,2.9,4.4s-5.7-3.4-2.9-4.4ZM-205,435.6h-2.4c0,0,.8,2.9.8,2.9,1.6.5,2.5-1.7,1.7-2.9Z"/>
  <path class="st0" d="M-229.5,441.6c3.2-.6,4.1,4.1,1.8,4.8-3.9,1.3-5.7-4.1-1.8-4.8ZM-227.9,445.5c1-.7.1-3.4-1.7-2.9s-.2,4.3,1.7,2.9Z"/>
  <path class="st0" d="M-211,441.6c3.1-.6,4.4,4,1.8,4.8-4.2,1.3-5.1-4.2-1.8-4.8ZM-209.4,445.5c1.7-1.2-1.2-4.1-2.4-2.4s1.1,3.3,2.4,2.4Z"/>
  <path class="st0" d="M-228.5,434.7c5.2-1.6,4.4,6.1.1,4.7s-2-4.1-.1-4.7ZM-228.1,435.6c-1.7.5-.3,3.1.9,2.9s1.9-3.8-.9-2.9Z"/>
  <polygon class="st0" points="-212.9 434.6 -215.4 435.6 -213.4 437.6 -215.4 437.6 -212.9 439.6 -216.4 439.6 -216.4 434.6 -212.9 434.6"/>
  <path class="st0" d="M-234.9,434.6c0,1.2.2,2.3,1.8,2s-.6-2.5,1.2-2v5s-1.3-2-1.3-2h-1.7s-1,2-1,2c0-.4-.5-6.5,1-5Z"/>
  <path class="st0" d="M-232.9,442.1c-.4,1.4-1.6.3-2.5.7s-1,1.7-.4,2.7h2.9c-2.2,3.1-6.6-.6-3.5-3.2s2-.6,3.5-.2Z"/>
  <path class="st0" d="M-197.9,434.6l-3,1,2.5,2h-2.5c-.3.3.8,2.5-1,2v-5s4,0,4,0Z"/>
  <path class="st0" d="M-214.4,442.6h-2.5s2,2,2,2c-2.5-.5-1.2,2.1-3,2v-5c1.2,0,3-.4,3.5,1Z"/>
  <path class="st0" d="M-196.9,441.6c.4,1.4-1.1.9-1.4,1.8s.7,3.6-1.1,3.2v-3.7s-1.5-1.3-1.5-1.3h4Z"/>
  <path d="M-253.9,411.1h9.7c2,0,4.3,3.3,4.3,5.3s-2.3,5.2-3.8,5.2h-10c-1.9-3,0-7.2-.2-10.5Z"/>
  <path d="M-242,400.7c.5.5.4,2,.1,2.5-.7,1.4-8.1-.1-10,.4,0-1.1-.4-3,.8-3.4,2,.1,7.8-.7,9.1.5Z"/>
  <path d="M-215.9,379.6h-2.5c.5-1.2.2-7.5,1.3-7.5,2.2,1.7.9,5,1.3,7.5Z"/>
  <path d="M-222.4,380.1c.2-2,.3-4.2.6-6.1s.2-1.5.9-1.4v6.2s-1.5,1.2-1.5,1.2Z"/>
  <path d="M-205,435.6c.8,1.2-.1,3.4-1.7,2.9l-.8-3h2.4Z"/>
  <path d="M-227.9,445.5c-1.9,1.4-3.6-2.4-1.7-2.9s2.7,2.2,1.7,2.9Z"/>
  <path d="M-209.4,445.5c-1.3.9-3.3-1.1-2.4-2.4s4.1,1.2,2.4,2.4Z"/>
  <path d="M-228.1,435.6c2.8-.9,2.6,2.6.9,2.9s-2.6-2.4-.9-2.9Z"/>
  <path d="M37.5,426.3c.2,1.3,1.8.9,1.5,2.2h-4.5s0-27.5,0-27.5h5.5c-.5,1-.5,1.5-.3,2.5s3.3,8.9,4.1,10.5.5,1.4,1.2,1.5v-13.2c0-.2-1.1-.7-1-1.2h4.5c-.7,1.1-.9,1.9-1,3.2-.5,5.5-.4,15,0,20.5s.4,3.8,2.5,2.5,2.6-7.7,2.5-9-1.6-2.8-1.4-3.5,1.1-.7,1.5-1.2c2.1-2.8,3.5-9.2,2.5-12.6h7c-.2.9-.5,1.6-.4,2.6.4,4.5,2.8,15.6,4.1,20s1.5,3,2.4,4.9h-7.5c-.3-.9.7-1.2.9-1.9.6-2.5-.4-5.7-1.1-8.1-2,1.1-2.9,2-5.2,1-.1,1.7-1.3,4.2-1.3,5.8s1.2,2,1.3,3.2h-12c-.2-1,.9-1.2.8-2-.3-3.4-4.7-9.2-5.3-13-.2-.1-1,.7-1,.7,0,3.4-.5,9,0,12ZM57.5,405.6c.7,2.3-4,11.5.7,11s.6-7.2.3-9.3,0-1.5-1-1.8Z"/>
  <path d="M-34.5,401.1c-.4,4.9.9,10.5,1.8,15.5,1.2.4.6-1.2.7-1.8.7-4.4,2-9.4,1.5-13.7h6s-1,1.7-1,1.7l2,14.3c.9-.2.9-1,1.1-1.7.8-2.4,2.1-8.7,2.3-11.2s-.1-1.9-.4-3.1h4.5c-1,3-2.4,7.6-2.5,10.8s.9,2.5.7,3.2-1.4,2.5-1.8,3.7c-1,3.1-2.1,6.5-1,9.8h-6.5c-.2-.9.7-1.2.9-1.9.8-2.9-2.2-11.1-2.1-14.6-1.5,5.3-3.5,11-2.3,16.5h-5.5c0-1.2,1-1.3,1-2.7,0-3.1-3.5-9.9-3.5-11.1s.9-1.2,1-2c.5-3.3-.7-8.6-2-11.7h5Z"/>
  <path d="M26.5,428.6c1.1-3.5-.2-6.5-.5-10-2.3.9-3.3,2.2-6,1-.4,1.9-1.2,3.7-1.1,5.8s.8,1.9,1,3.2c-1.6,0-3.2.1-4.8,0-2.7-.2-.2-1.3.5-3s1.8-6.6,1.3-8.3-1.1-1.9-1-2.4,1.7-1.6,2.2-2.4c1.7-2.5,2.7-8.5,1.8-11.4h7.2c.5.4-.6.8-.6,1.6s2.6,10.6,3.2,11.3,1.6,1.1,2.2,1.8c.2.3-1.9.4-2,2s1.3,7.3,1.6,7.9c.5,1.2,1.9,1.5,1.9,2.9h-7ZM23,405.1c.4,2.7-4.6,12.4.7,11.5s1.3-1,1.3-2.2l-2-9.3Z"/>
  <path d="M-4.5,401.1l-.9,1.6c2.9,8.4,2.4,17.9,6.4,25.8-1.1-.1-7,.5-7-.7,1.6-.5.2-9.3-.3-9.2-2.4,1.7-3.1,1.4-5.7.5.1,2.1-1.4,4.2-1.3,6.3s1.2,1.9,1.3,3.2h-6c-.1-1.4,1-1,1.8-2.5,1.8-3.7,2.2-8.3.3-12,1.9-.5,3.4-3,3.9-4.9s1.1-6.1,1.1-6.4c0-.8-.8-1.1-1-1.7h7.5ZM-9,405.6c-.2,3.3-4.8,13,1.8,10.5l-1.8-10.5Z"/>
  <path d="M16,402.1c.4,1.8-1.2,1.6-2.2,3s-1.2,3.9-2.5,5.5c-2.1-2.1,1.8-5-1.1-6.9s-5.9,3.2-5.7,6.2,1.5,3.3,1.4,3.9-1,1.9-1.2,2.8c-.7,3.3.7,10.3,5.3,8.3s0-5.7.5-8.2h1.5c-.6,3.2.9,4.4,2.5,6.7-5.4,10.1-13.7,2.2-14.9-6.1-.7-5.3.4-14.1,6.3-16,5-1.6,5.7,2.1,10.1.9Z"/>
  <path d="M-402.6,418.3c-22.9,18.7-58.3,2.6-60.7-26.4-1.6-19.7,13.2-39,33.2-40.7,38.6-3.2,57.4,42.7,27.4,67.1ZM-432,353.2l-.8,1.1c2.6,7,11.9,7,14.5,0,0-.9-.5-1.1-1.3-1.2-1.2-.2-11.5-.2-12.4,0ZM-436.8,354.7c-14.2,4.3-24.7,18.6-24.5,33.5l24.5-33.5ZM-389.8,388.1c0-14.9-10.5-29.6-25-33.5l25,33.5ZM-459.8,390.1h9.2c1.3-1.1.5-3.1.8-4.7.8-4.7,3.6-10.7,7-14s6.7-4.1,7.6-5.4,2.7-6.7,2.7-7.1c0-.6-1.8-2.3-2.1-3.2l-25.2,34.5ZM-391.3,390.1l-25.2-34.4c-.2,0-2,2.7-2.1,3.2s2.1,6.1,2.5,6.8c1.1,1.9,3.9,2.7,5.8,4.2,5.7,4.6,9.3,12.1,9.1,19.4l.7.8h9.2ZM-426.4,361.7l-4.4-1.3-2,5.3,6-1.2.4-2.7ZM-418.3,365.7l-2.3-5.5c-2.4,1.1-5.7.8-3.7,4.3l6,1.2ZM-429.4,366.8c-28.1,3.8-22.4,49.8,8.2,44.2,27.1-5,22.3-48.3-8.2-44.2ZM-449.8,392.1h-11.5l1,5h11.5l-1-5ZM-390.8,397.1l.9-4.3-.6-.7h-10.7c0,.8-1.8,5-.2,5h10.7ZM-448.5,398.6h-11.2l1.5,5h13c-.6-1.3-1.9-4.8-3.2-5ZM-405.8,403.6h12.2l2.2-4.2-.7-.7h-10c-1.8,0-4,4.7-3.7,5ZM-443.5,405.6h-13.2c.6,2.2,2.4,4.8,4.2,6h16.7c.3-1.3-.3-.8-.7-1-1.4-.9-6.6-4.8-7-4.9ZM-394.3,405.6h-13.2c-.4,0-5.6,4.1-7,4.9s-1-.3-.7,1h16.7l4.2-6ZM-400.3,413.1h-51l7.3,6c11.5-.9,24.7,1.2,36,0,.6,0,1,0,1.7-.3s6.8-5,6-5.7ZM-411.3,421.1h-28.5c.4.9,2.3,1.2,3.2,1.5,6.6,2.1,14.5,2.2,21.2.2s3.3-.8,4-1.7Z"/>
  <path d="M-428.4,369.8c19.2-2.3,31.4,20.2,16.3,33.3-14.7,12.7-38.1-.3-32.9-19.4,2-7.2,9.1-13.1,16.5-14ZM-416.8,381.6c.7-2.1.1-3.4,0-5.3s1-1.9-.5-2.9c-3.3-2.5-10.1-1.9-14-1.3-.3,1.2.2.8.6,1.1,3.9,3.1,9.7,5.5,13.9,8.3ZM-427.3,378.1c.3-.4-5.8-4.8-7.5-4.3-3.4,1.1-8.3,8.1-8.5,11.8l16-7.5ZM-414.8,392.6c1.6-.4,7.4-3.9,7.5-5.2.2-3.6-3.5-9-6-11.5s-.7-.9-1.5-.8v17.5ZM-416.9,383.7c-3.1-1.1-6.5-5.3-9.7-4.2s-8,4-8.1,5.3l.7,9.3,8.4,4.9c1.8-1.7,8.4-3.4,8.8-5.7s.1-9.2,0-9.6ZM-436.3,402.1v-17.5c-1.8,1.3-7.5,2.8-7.5,5.2,0,3.8,3.4,11.3,7.5,12.3ZM-407.3,391.1l-15.4,8.4-.6,1.1c2.5.7,5.2,3.8,7.9,2.6,4.1-1.8,7.2-7.9,8.1-12.1ZM-419.8,405.6c.9-.8-4.2-3.5-4.8-3.9-1.3-.8-9.4-5.6-10.1-5.1l.2,6.8c3.9,3.6,9.9,2.9,14.8,2.2Z"/>
</svg>