<?xml version="1.0" encoding="UTF-8"?>
<svg id="Layer_1" xmlns="http://www.w3.org/2000/svg" version="1.1" viewBox="0 0 100 100">
  <!-- Generator: Adobe Illustrator 29.1.0, SVG Export Plug-In . SVG Version: 2.1.0 Build 142)  -->
  <defs>
    <style>
      .st0 {
        fill: #fff;
      }
    </style>
  </defs>
  <path d="M206.4,414.1h7.5v-7.2c0-2.3,6-4.3,6.5,1s-.4,13.6-.1,19.9c-.9,3.1-6.4,2.1-6.4-.4v-8.2c-2.4-.7-5.1-.7-7.5,0v8.2c0,2.3-6,4.3-6.5-1-1-9.9.8-21.4,0-31.5.7-3.7,6.5-2.1,6.5-.5v19.7Z"/>
  <path d="M281.9,417.6v-11.2c0-.1.8-1.4,1-1.5l3.7.2.7,1.4c-.3,6.1.8,13.4.1,19.4s-1.1,4.2-3.7,4.1c-4.6-.2-8.3-11-11.8-13.8v7.2c0,.1-.4.9-.5,1.5-.1,1.1.3,2.3,0,3.4-.6,1.8-3.3,2.1-4.5.6s-1.2-16.6-.9-19.5,1.1-5.5,4.1-5.2,7.9,9.6,10.5,12.6.5,1,1.4.8Z"/>
  <path d="M224.1,427.4c-1.3-1.5-1.8-4.6.4-5.6,3.5-1.6,6,5.2,10.4,2.1,2.8-5.2-4.2-6.6-7.3-9.2-8.7-6.9-2.6-17.2,7.6-16.1,2.9.3,7.8,2.5,6.7,6.1-3.2,4.7-5.2-1-8.2-1.1s-3.5,1.2-3.7,2.7c0,3.4,11.3,6.1,12.4,12.6,1.7,10.1-12.6,14.7-18.2,8.5Z"/>
  <path d="M324.5,429c-.6-.6-.6-1.6-.4-2.4.6-2.6,6.9-17.8,8.4-20.2,2.1-3.4,5.1-2.7,6.9.5s7.1,15.6,7.8,18.7-1.2,4.5-4,4-2.2-3.9-3.6-4.4c-2,.2-8.2-.7-9.4.4s-1,3.2-2.2,3.8-2.7.3-3.4-.4ZM334.4,414.1l-2,5.7c.3,1.2,5.6,1.4,5.4-.4s-2.4-6.3-3.4-5.3Z"/>
  <path d="M256.3,405.2c2.2,6.2,6.3,12.9,8.2,19.1s-5.3,6.8-6.9.8h-9.3c-1.4,1.6-1.1,4.4-3.6,4.5s-3-1.2-2.5-3.5,7-18.1,8.2-19.8,3.8-2.6,6-1ZM253.4,414.1c-1.2-.9-3.3,5.5-3,6.5h5s-2-6.5-2-6.5Z"/>
  <path d="M162.1,403.5c-1.4-1.4-.3-4,1.6-4.4s14.8-.4,17.5,0,2.5,1.3,2.2,3.2c-.5,3-4.3,1.2-6.2,1.8l-.7.7c-.4,7.3.4,14.7-.5,21.9s-6.1,4-6.9-.1.6-20.8-.3-22.1l-6.7-1.1Z"/>
  <path d="M314.6,409.1c-.2,0-1.7.6-1.8.8.2,1.6-.5,3.6.8,4.7h7.5c1.6,0,1.6,4.5,0,4.5h-8.2v5.2c0,.3,1.1.8,1.2.8h7.5c1.9,0,1.8,3.8-.1,4.4s-8.3.3-9.9.1c-2.3-.3-4.8-1.2-5.2-3.8s-.8-11.3-.5-14.5,1.2-6.1,5.3-6.7,15.1-1.3,11,4.5c-2.4.2-5.2-.3-7.5,0Z"/>
  <path d="M188.4,414.6h8.2c1.6,0,1.6,4.5,0,4.5h-8.2c-3.5,9.6,7.5,4.1,9.5,6.7,4,5-9.4,4-11.7,3.7-3.4-.5-4.6-2.3-4.9-5.6s-.4-13.7.8-16.3c1.7-3.8,10.3-3.5,14-3s3.2,3.3,1.3,4.2c-3.4,1.7-11.9-2.8-9,5.7Z"/>
  <path d="M307.8,399.7c.8.8.8,3,0,3.8-1.1,1.1-4.5.4-6.1.7l-.7.7c-.9,6.6,1,15.4-.2,21.8s-5,3.9-6.4,1.7.6-18.3-.7-22.8c-.9-2.9-4.8-.5-6.6-1.9s-1-3.6.3-4.3,15.6-.5,17.8-.3,2,0,2.6.6Z"/>
  <g>
    <path d="M-244.1,158c4.5.8,6.4,10,1.8,11.9v.8c4.4,2,5.2,9,2.5,12.7-4.6,6.4-17.5,4.5-16.4-4.5.4-3.2,3.4-4.4,3.5-4.9.4-1.6-.4-4-2-4.7-.2-1.1,1.9-1.1,2-1.6.3-1.4.6-8.7-2-8.1-.3-.3.8-1.6,1-1.6,2.6,0,7.2-.4,9.5,0ZM-248.6,165.5c-.4,1.9.2,4.1,2.5,3.9s2.9-4.4,2.5-6.4c-.8-4.2-5.3-1.9-3.9-.2l1.6.9c-.6,1.3-1.4,1.7-2.7,1.8ZM-244.5,183.2c3.3-3.3,1.4-11.9-2.7-10.8s0,3.2.3,4.6-.2,3-1.2,2.8-3.3-3.5-3.7.2,4.4,6.2,7.4,3.2Z"/>
    <path d="M-181.7,163.7c-.1-.4-1.1-1-1.6-1,0-2,2-1.4,3.2-1.8s3.2-3.4,5.1-1.2c.1,1-.9.3-1.6,1.2s-.8,2.2-.8,3.1c-.2,2.5-.4,11.2,0,13.5s2.3,1.7,2,2.4c-.6,1.3-4.9,1.2-6.1,1-2-.3-2.4-1.2-.6-2.3-2.6.4-4-.9-3.6-3.6l1.8.8c1.9-1.8-1.7-3.9-3-5.2v6.9c0,.4,1.3,1.9,2,1.8,0,1.9-2.3,1.3-3.5,1.8s-3.8,3.2-4.8,1.2,1.1-.9,1.5-1.6c1.1-1.7,1.2-13.4.8-15.8s-.3-1-.6-1.4c-.5-.7-1.5-.5-1.4-1.4.8-1.8,9.2-1.2,7.9.6-2.8.9-2.2,3-.8,5s3.9,4.2,4.4,3.8c.2-.5-.4-.9-.4-1,0-1.5.3-5.6,0-6.7Z"/>
    <path d="M-158.9,169.4c1.9.5-1.2,3.4-1.3,3.8-.3.9,0,2.1-.1,3.1-1.2,6.7-10.9,7.1-13.2,1s-.9-10.5-.6-13.3,1.6-4.2,3.5-5.2c4.1-2.3,6.3.8,10-.9.2,1-.4,2-.4,2.9s.8,1.7.7,2.8c-.2,3.6-4.6,5.1-5.9,1.4,4.3-1.6,0-7.3-2.2-2.4s-1.1,12.2,0,14.4c1.9,4.3,5.9-1.4,3.9-4.3l-2.8,1c-.4-1,.9-4.4,1.8-4.4h6.7Z"/>
    <path d="M-203.1,179.3c1.1-3.9,7.1-3,8.1.4,1.7,5.5-4.5,8.1-9.1,7.5s-9-6-12-6.3-1.6.7-2.1-.2c-.1-1.4,1.8-2,2.2-2.6s.3-13.3-.3-14.4-2-1-1.3-1.9,7.4-1.1,7.7.2c0,.9-1.1,1-1.5,1.6-.6,1-.7,12-.4,13.8s.2,1.2.6,1.8c.8,1.2,6.8,4.5,8.3,4.4,3.3-.2,3.8-5.8-.2-4.3Z"/>
    <path d="M-222.9,161.9c.4,1.2-1,.6-1.4,1.2s.8,5.6,1.1,6.9,1.9,8.4,2.8,9.1,2.2.1,1.8,1c-.7,1.4-5.4,1.1-6.7.8s-1.8-.5-1.6-1.2c0-.2,1.9-.8,1.6-2.4s-1.8.5-2.3.2-1.8-3.9-2.4.2c-.5,1.2,1.7,1.9,1,2.6s-2.7.6-3.8,1-4.2,3.7-5.2.6c1.9,0,2.7-1.2,3.4-2.8,1-2.6,2.9-10.6,3.3-13.4s.3-1.7,0-2.5l-1.4-.6c1-2.2,9-1.6,9.9-.6ZM-226.5,173.4c.1-.2-.7-3.9-.9-4.4s-.1-1.2-.7-1.1l-.8,5.2c.9-.4,1.6,0,2.4.4Z"/>
    <path d="M-202.4,161.2c2.5-.4,6.6.7,7.5,3.4s.4,5.8,0,6.9c-1.2,4.7-11.3,4.9-12.5-.8s.2-8.7,5-9.5ZM-199.2,164.4c-1.3-1.3-4.6-.3-4.3,1.9,1.7-.8,3.3-.8,4.8.4,0-.7,0-1.8-.5-2.3ZM-198.7,169.8l-1.8.8c-.6-.1-.3-2.6-1.6-2.4s-1.2,1.1-1.3,1.5c-1.3,4.5,5.7,5.1,4.7.1Z"/>
  </g>
  <g>
    <path d="M379.7,210.8c1.5,1.8-1.1,3-1.4,4.7s-.4,6.9,2.7,4.3c.6-.6-.7-1-.9-1.6-.6-2.2,4.5-2.4,5.9-2.2s1.7.6,2.6.9c.3,1.4.1,2.7-1.2,3.4s-2,.3-2.4,1.1c3,0,6.9,2.9,5.8,6.2s-9.7,1.9-10.3,0,1.3-2.7,1.1-3.8-1.5-2-2.5-2c-2.5,1.8,1.9,3.6.9,5.7s-9.4,2.1-10.4,0,1.1-2.4,1.4-3.8.2-7.7,0-8.8c-.5-2.7-6.3-1.8-6.1,1.2s5.6-.9,5.8,3.1-5.2,5.9-7.5,2.4-.7-8.6,2.9-10.4,12.2-2.2,13.8-.3Z"/>
    <path d="M373,241.2c-.4,1,.9,1.9,1.7,2.1,2.3.5,5.4-2.5,5.9,1.8.8,7.1-7.5,7.5-9.8.3s-.6-4.1-1-4.2c-1-.2-.8,2.9-.8,3.5.2,1.9,2.6,2.6,1.3,4.9-1,1.3-8.6,1.2-9.9.1s.8-3.3,1-4.5.1-8.1-.2-9-3.2-3.3.2-4.5,11.6-.6,14.3.1c7,1.9,3.7,9.8-2.6,9.2ZM369.6,234.2c-.6.2-1.2,4.6.5,4.5,2.7-.2,2.1-5.4-.5-4.5Z"/>
    <path d="M448.9,216.7c-.9-.9-1.4-3-2.8-3.4-6.1-1.9-4.8,12.4.4,14.2,2.3.8,3.4-2.5,2.2-4s-4.1-2-2.2-3.9,9.7-1.4,10.5.2c1.1,1.9-1,3-1.3,3.9-.5,1.7.7,3.1-1.3,4.8s-9.7,2.4-12.8,1.6c-8.4-2.3-9.3-14.2-1.5-18s9.4-1.8,12.2,0c3.3,2.1.1,7.9-3.2,4.6Z"/>
    <path d="M420.4,218.6c.9.6,2.1-1.3,2.9-1.7,2.8-1.6,7.8-1.5,8.9,2s.1,3.6.4,5.1,3.1,3.6,0,4.7-8.8.9-9.2-1.6,2-2.7,1.9-5.5c-.2-6.5-5.4-1.8-4.2,2.4s2.6,2.4,1.2,4-9.3,1.5-10.2-.5c-1-2.1,2.7-3.2,1.4-6.3s-2.5-2.4-1.1-4,6-1.2,7.3,0,.7,1.4.8,1.5Z"/>
    <path d="M389.8,237.7c4.2-.5,10.8.5,11.3,5.6s-.3,4.6-2.4,6.1c-3.9,2.7-15.2,2.5-16.2-3.4s2.3-7.7,7.2-8.3ZM393.4,248.2c1.7-1.8-.4-8.8-2.8-8.1s.5,10.5,2.8,8.1Z"/>
    <path d="M393.6,217.8c1.8-2.3,11-2.5,13.5-1s1.4,4.3,1.7,6.5,2.3,2.5,1.4,4.4-4.9,1.3-6.3.8-1.1-1-1.7-1.1c-1,0-1.5,1.3-2.8,1.5-2.2.4-6.7.3-7.1-2.7-.6-5.2,10.9-2.1,8.8-7.9-2.4-1-2.7,2.7-4.3,3.4-2.7,1.2-4.7-2.3-3.3-4ZM401.5,222.9c-.7-.2-.5.2-.7.4-2,2.3-.1,5.2.6,2.4s.1-1.8.1-2.8Z"/>
    <path d="M410.9,245.4c.7,4.2,5.7.4,6.1.8-1.4,4.7-7.1,6.3-11,3.5s-2.4-5.5-2.5-8.8c-.3-.9-1.9.1-1.8-1.9s1.5-.9,2.5-1.8,1-2.3,1.3-2.5,4.3-.8,4.9-.6l.5.5c-1.2,6,6,1.2,6.1,5.8,0,3.4-4,2.1-5.4.2l-.6.3c.2,1.4-.2,3.3,0,4.6Z"/>
    <path d="M422.5,238c1.3-.1,6-.1,6.6,1.1,1,2.1-1.2,3-1.4,4.4-.4,3,2.2,3.3,1.5,5.8s-9.4,1.8-10.2.2,1-2.9,1.3-3.9c1-3.2-2.2-3.8-1.4-6.3s2.6-1.2,3.5-1.3Z"/>
    <path d="M419.3,235.7c-1.4-1.7.4-3.8,2.3-4.1s8.2-.6,7.7,3.1c-.4,3.1-8.4,3-10,1Z"/>
  </g>
  <g>
    <path d="M174.5,201.5c1.2-11,9.7-21.7,19.8-25.9,21.9-9,44.4,6.1,45.8,29.4.6,10.5-.3,21.6-.2,32.1,0,.2-.8.9-.9.9h-63.8l-.7-.7v-35.9ZM206,175.5c-1.1-.3-7.8.5-7.9,1.5l2.6,9.5,5.3-1.1v-10ZM208.2,175.5v10l5.3,1.1,2.6-9.5c-.2-1.3-6.6-1.6-7.8-1.5ZM196.2,177.8c-.9-.9-6.6,2.9-7.5,3.8l6,9,4.2-2.7-2.7-10.2ZM220.1,190.1l5.3-8.6c-.2-.9-5.5-3.8-6.8-3.8-.6.2-3.1,8.5-3,9.5s4,3.1,4.4,2.9ZM180.7,191l9.1,4.8,2.8-3.3-5.9-9.5c-1.1.8-6.6,7-6,7.9ZM223.7,195.4l9.7-5.1c-1.4-2.8-3.7-5.1-6-7.3l-5.8,8.8,2.1,3.5ZM212.8,209.5l7.2,6.8c1.3.2,3.2-4.1,3.6-5.2,5.2-15.5-11.8-28.8-25.6-20.2s-10.9,18-3.8,25.9l11.3-11.3c-.9-1.4-7.4-6.2-6.2-7.7s1.1-.3,1.3-.2c1.3.6,5.1,6,6.4,6,2.1-.5,5.6-7,7.8-5.6s.3,1.1,0,1.7c-.9,1.5-5.3,4.7-5.7,5.9l3.7,4ZM237,200.3c.6-.6-1.7-7.3-2.5-7.5l-9.1,4.7,1.2,3.7,10.3-.9ZM188.6,197.7l-9-4.5c-1,.3-2.4,6.2-2.5,7.5l10.4.8,1.1-3.9ZM237.4,202.6l-10.2,1.1-.4,3.5,10.4,3.8c1.4-.1.3-7.1.2-8.4ZM176.7,203.7v7.1l.9.5,10-3.6-.6-3.4c-.4-.3-8.4-1.1-9.5-1.1s-.6,0-.9.5ZM200.6,235.8v-11.3c0-.1,1.1-1.9,1.3-2.2,2.6-3.5,8-3.4,10.4.3s.4,8.8,1.3,12.8c.6.9,4.7.5,5.7,0s7.7-7.5,7.8-8.2l-19.3-19.3-1.1-.2-19.9,19.5c4.4,3.6,7.1,10.1,13.7,8.6ZM237.9,222.1v-8.2c-2.2-1.1-8.7-3.8-10.9-3.7s-.7,0-.8.4l-1.1,3.3,11.3,7.8,1.6.4ZM176.7,214.3v7.8c.7.2,1-.3,1.5-.5,1.7-.9,8.8-5.6,10-6.8s.4-2.2,0-4.1c-.5-.4-11.2,2.9-11.5,3.7ZM176.7,225.4v8.2l15.5-15.3-2-2.4-13.6,9.5ZM237.9,233.6v-7.8c0-1-12.1-8.4-13.7-9.8l-2.2,2.3,15.9,15.3ZM203.3,235.8h7.3l.7-.7v-9.7c0-2.8-5.2-4.8-7.3-2s0,8.7-.7,12.4ZM178.9,235.8h12.4c.2-.7,0-.8-.3-1.3s-5.7-5.4-6-5.3c-1.6,1.7-4,3.5-5.4,5.3s-.9.6-.7,1.3ZM235.7,235.8c.2-.8-.3-.9-.7-1.3-.6-.8-5.2-5.3-5.8-5.3l-6.2,5.8.4.9h12.2Z"/>
    <g>
      <path d="M209.8,266.1c0,.3.7.9.4,1.5h-3.1s0-19,0-19h3.1c-.8,1.9.3,4.1,1.8,5.3l-.4-5.3h3.5c-.5.7-.8,1-.9,2-.5,3.6-.1,10.3,0,14.2s.5,1.9.5,2.9h-3.1s.5-6.8.5-6.8l-1.8-1c1.8-2.1,2-5.2-.4-6.9.3,4.2-.4,8.9,0,13.1Z"/>
      <path d="M216.8,248.3c2.4-.7,5.9,0,6.3,2.8s.3,11.8,0,13.6c-.8,3.4-5.9,4.3-7,.5,1.8-5,.2-10.8.2-16.1l.5-.8ZM220.4,249.6l-1.3.2c.6,2.3-.7,11.4,0,12.7s1.4.4.9,2.1l-2.2-.3-.4,2c2.7.2,3,0,3.4-2.6s.3-13.8-.4-14.2Z"/>
      <path d="M230.1,249.2c.5.5.9,2,1,2.7.3,2.5.3,9.9,0,12.4-.7,4.3-5.7,4.3-6.5.8-.5-2.1-.3-13.4.6-15.2s3.5-2.2,5-.8ZM228.9,253.1c.2-1.5-.7-4.7-2.7-3.3s2.4,3.6,2.7,3.3ZM227.7,254.3c-.3-.2.1-.9-.6-.7.6,4.3-1.8,9,.7,12.8,1.3,0,1.1-10.5,1.1-11.7-.1-.4-.8-.1-1.2-.4Z"/>
      <path d="M235.5,266.6c0,.1.5.3.3.7-.5.7-3.1.7-3.2-.2v-18.2s.6-.6.6-.6h2.8c0,0-.4,9.2-.4,9.2l-1.5-.4-.5.9c2.4,2.7,4.5-1.5,4.6-3.8s-1.3-4.1,1.1-5.9c1.7,0-.3,1.8-.2,2.8s.9,2.1.9,3.6c0,2.6-2,3.3-2.3,5.5l1.7.6c-.8,2.4-.4,4.6.6,6.9l-2.5-.4-.6-6.9-1.4-.3c0,2.1,0,4.3,0,6.4Z"/>
      <path d="M202.2,248.3c1.4-.3,3,.7,3.5,2.1s.4,12.6,0,14.3c-.8,3.8-5.4,4.1-6.3.3s-.4-12,.4-14.3,1.2-2.3,2.4-2.5ZM201.9,254.4c-.3.5,0,9.7,0,11.3s1.6.3,1.8-1.7.4-10.6,0-12.9-4.6-1.6-2.7,1.4l2.2.8c-.2,1.1-1.3,1-1.3,1.1Z"/>
      <path d="M184.2,249.2c1.6-1.6,3.8-1.1,4.8.9,1.5,2.9.4,6,.3,9s.8,3.5,0,6.1-5.5,3.2-6.1.1-.3-10.9,0-13.3.5-2.3,1-2.7ZM187.2,253.5c.2-2.3.2-4.3-2.7-4l.2,1.8,2.4,2.2ZM187.2,254.4l-1.8-.9v11.7c0,0,1.2,1.2,1.3,1.1-.1-.5.4-1,.4-1.1v-10.9Z"/>
      <path d="M194.3,267.7h-3.1s0-18.8,0-18.8c.3-1.4,4.4-.6,5.5.2,2.3,1.7,2,8.4-.2,10s-2.3.6-2.6,1.4l.4,7.2ZM195.6,250c-1-.2-1.6-.8-1.8.7s1.4,6.3.9,6.9c-1.3.4-.5-1.1-1.5-.9-2.4.4-.8,3.4,1.7,1.8s.7-1,.7-1.1v-7.3Z"/>
      <path d="M180.9,249.2c1.3,1.2,1.2,6.5.7,8.2-.8,2.6-4,2.3-4.2,3,.2,2.2-.6,4.7.9,6.6-.8,1.1-2.3.6-3.5.7.7-2,1-3.4.9-5.6s-.9-3.4-.9-4.9.9-5,.9-6.7-1-1.1-.8-2c1.7-.3,4.7-.8,6.1.6ZM179.2,253.5c.5,2.6-2.1,2.5-3.5,3.8,3.8,5.8,6-6.9,2.2-7.8v4.9s1.3-.9,1.3-.9Z"/>
    </g>
  </g>
  <g>
    <path d="M-9.5,243.1c-5.1,5.4-13.5,5.1-20.3,6.5.5-.9.8-1.5.9-2.5.2-2.1.3-11.8-.4-13.3s-1.6-1.8-1.5-1.9c1.1,0,1.6,0,1.8-1.1.3-1.7.2-8.5,0-10.5s-.3-1.6-.9-2.3l.4-.5c5.1-.3,10.8-3.3,15.6-1.1,3.8,1.7,4.1,5.9,2.1,9.3,7.1,3.7,7.3,11.8,2.1,17.3ZM-22.9,226c7.9.7,9.8-7.2.4-4.8l-.4,4.8ZM-22.9,243.3c4.4.7,11.1-2.6,11.3-7.5s-7.7-6.7-11.3-4v11.6Z"/>
    <path d="M17,207l-5.9.9c.4-3.4,1-8.6.5-12-.2-1.1-.9-1.6-1-2.2s.8,0,1-.9c.4-3,0-7.7-.5-10.7,5.3-.4,13.2-4,17.3,1.1,3.9,5,0,11.1-4.5,14.2-.3,1,3.7,7.2,4.7,8.3,2.6,2.9,5.1,3.7,9.1,3.2s4.7-2.7,4.2.1c-.8,4.8-8.2,4.6-11.7,3.3-5.8-2.2-8.2-8-11.1-12.9-3.7-3.3-3.7,5.9-2,7.7ZM16.1,185.9v8.6c0,1.2,5.3-.3,6.1-.7,2.5-1.3,3.8-4.5,2.7-7.1s-6.7-2.5-8.7-.8Z"/>
    <path d="M5.2,231.5c4.4-1,9.4-.7,13.2-3.6,0,1.2-.2,2.6,0,3.8s1.3,1.5,1.3,2.6l-21.3,3.2c1.5-4,1.6-10.2-.5-14.1H-.7c.1-3.4,1.1-7.8-1.3-10.4l21.8-3.6c-1.9,2-1.4,3.9-.9,6.3-4.6-1.1-8.8,0-13.3.9l-.3,5.9c5-4.6,10.1,2.3,14.3-2.3.5,1.8-3.4,5.4-5.1,5.8-3.4.8-6-1.1-9.2-.8v6.4Z"/>
    <path d="M-15.2,196.5c0,.1,1.1.2,1.5.5,4.4,3.2,3.5,8.7.3,12.4s-10.7,4.7-16.3,5.7c.4-2.5,1.1-10.7.2-12.7s-1-.8-1.1-1.4l1.4-.3-.3-11.1c4.1-.5,10.1-3.5,13.7-.4,2.5,2.2.3,6.7.7,7.2ZM-24.7,196.1c2.7.3,6.4-.1,5.3-3.7-.7-1-3.6,0-4.7.1l-.6,3.5ZM-24.3,200.2c.2,1.3-.4,2.6-.5,3.8s0,2.6,0,4.1c-.2,4.3,7.6.7,8.8-2.2,2.4-5.9-3.8-7.2-8.3-5.8Z"/>
    <path d="M-29.7,277.3c.4-3.4,1-8.6.5-12s-.9-1.6-1-2.2.8,0,1-.9c.4-3,0-7.7-.5-10.7,4.2-.6,10.2-2.1,14,.3,7.1,4.4,6.1,14,1.2,19.7-4.1,4.8-9.3,5.4-15.2,5.9ZM-24.3,254.6v17.7c5,.4,11.1-6.6,7.7-11.1,2.9-1.1-1.7-6.1-3.5-6.5-1.3-.3-2.9,0-4.2,0Z"/>
    <path d="M17,253.7c1.1.3.8-.3,1-.6,1.3-1.5,4.9-5.9,5.7-7.4s0-1.7.5-2.7l6.4-.9-8.9,13.2,8.7,12.5c.3,1.3-5,1.1-6.2,1.4v-2.1c.1,0-5.7-7.4-5.7-7.4-2.7,1-1.8,8.6-.7,10.9l-5.9.5c1.5-2.1.5-3.7.4-5.6,0-2.9.6-6.2-.9-8.6,2.4-.9.9-2.5.9-4.5s.8-4.7-.4-7l5.9-.9c.3.8-.9,1.7-.9,2v7.5Z"/>
    <path d="M8.9,250.5c-4-1-8.2.2-12.2,1,0,.8-.3,4.4.6,4.5,3-2.9,5.8,0,8.2,0s2-1.2,3-.6c-1.5,2.5-3.1,4-6.1,3.9s-4.3-1.5-5.3-.3l-.4,10.5,12.3-2.5.5,5-17.7,2.3c.7-3.7.8-7.8.4-11.5s-.8-1.9-.7-2.3,1.1-.8,1.1-1.7c0-1.6,0-6.8-.4-8.3s-1-1.2-.9-2.1l18.2-2.7c-.4,1.8-1.1,3.1-.5,5Z"/>
    <path d="M3,183.8l-1.3,3.3,4,13.9,1.8-.9c-1.7,3.2-.4,5.6.9,8.6l-5.9.9v-4.5c-1.7.2-5.3-2-6.6-.5s-1.6,5.2-.7,6.4l-6.4.9c.6-1,1.2-2,1.6-3.2.5-1.7,1.8-6.4,2-8s-.6-3.7-.4-3.8,1.1.3,1.4-.3,2.1-7.5,2.2-8.2c.1-1.5-.6-1.9-.8-3.3l8.2-1.4ZM.7,200.6c.3-.2-1.3-4.7-1.6-5.4s0-1-.7-.9l-1.4,6.8,3.6-.5Z"/>
    <path d="M19.8,237.4c-3.9,8.8-14.6,3.5-21.8,6.8,3.5-6.2,10.4-4.1,16.1-5,2.2-.4,3.7-1,5.7-1.8Z"/>
  </g>
  <g>
    <path d="M-392.1,193c8.6.7,12.2,6.3,11.3,14.7s-6.7,10.3-13,10c6.1,3.5,7.7,10.8,11.2,16.2,1.1,1.7,3.3,4.9,5.5,3.1s2.4-3.1,1.8-1.1c-1.5,5.2-8.4,2.2-10.9-.9-3-3.9-7.2-14.2-11-16.5s-3-.5-3.7-1.7h7.2c2.9,0,6.9-3.5,8-6.1,4.2-9.1-2.5-18-12.3-16.9.9,2.1,5.6,11.4,7.3,11.8s1.1-.8,2-.7c.1.7-.5,1.1-1.1,1.3-6.2,2-8.2-11.7-13.4-12.8l.2-.7c.3,0,.6.4.7.4,3.2,0,6.9-.3,10,0Z"/>
    <path d="M-396.3,214.5h-5.8c-4.7,0-9.4,4.6-10.1,9.2-1.3,9.2,4.4,14.3,13.3,14.2.2-.2-.8-2.1-1-2.5-.8-1.5-4.2-7.8-5.1-8.6-2.1-1.9-3.3.5-3.5.3.3-1.9,1.8-2.1,3.4-1.8,4.8.9,6.4,11.4,11.4,13.1-2,.3-4.1.3-6.1.2s-7.6-.3-9.9-1.2c-8.5-3.3-8.4-18.6-.2-22.3s4.4-1,6.6-1.5c-5.6-3.4-7.2-10-10.4-15.2s-5.1-7-7.6-1.7c-.2-4.8,5.2-4.5,8.3-2.4,5.1,3.5,8.5,15.9,13.3,18.7s2.7.5,3.5,1.5Z"/>
    <path d="M-385,251.6c2.5.5,2.7,4.8.2,5.6v.5c1,1.2,3.2,5,4.9,4.7l4.9-11.1c.6,0,3.6,9.6,4.6,10.9s1,.2,1.5.2l-3.5.4-1.6-3.7h-3.4s-.8,2.7-.8,2.7l.8.9c-2-.2-4.5.6-6.1-.7s-1.8-2.8-2.6-3.4c-2.5-1.9-1.5,2.2-1.7,3.5l1.1.6h-4.1c-.1-.6.7-.4.9-.7.4-.6.5-9.3-.6-10.4,1.6.2,3.9-.3,5.4,0ZM-387.8,257.6c4.1.6,4.2-5.8,0-5.2v5.2ZM-374.1,258.3l-1.3-3.7-1.3,3.7h2.6Z"/>
    <path d="M-399.8,251.4c9.1-.1,7.5,12.6-.8,11.7s-7.2-11.6.8-11.7ZM-397.2,253.2c-1.2-1.1-3.8-1.3-5.1-.3-3.5,2.6-.7,11.3,4.4,9.2,2.7-1.1,2.6-7.1.7-8.9Z"/>
    <path d="M-442.2,251.6c1,.2,2,1.7,2,2.8,0,1.8-2,2.6-1.8,3.6,1.6,1.5,2.7,4.5,5.2,4.3,0,.6-1.7.4-2.1.4-3.7-.5-2.9-4.9-6.5-4.5.1.9-.3,3.1.2,3.7s1.4,0,1.3.7h-4.1c-.2-.6.7-.2.8-.6s.4-3.2.4-4c0-2.2-.2-4.4-.8-6.5,1.6.2,3.9-.3,5.4,0ZM-445.3,252.4v4.6c0,0,.6.6.6.6,4.2.4,3.5-5.9-.6-5.2Z"/>
    <path d="M-348.5,262.4c0,.6-.5.3-.9.4-.9,0-1.9,0-2.8,0-.3-2.7-.5-4.1-3.6-3.7s-2.1,2-2,3.2.9,0,.8.6h-3.3s1.5-.9,1.5-.9l4.3-10.5c.7,0,3.5,8.9,4.3,10.1s.9,1,1.8,1ZM-353.7,258.3c.1-.1-.8-3.6-1.5-3.7l-1.1,3.7h2.6Z"/>
    <path d="M-429.4,251.6v1.5c-1.3-.5-2.2-1-3.7-.7v4.1s3.3,0,3.3,0v1.5c-1-.9-2-.8-3.3-.7v4.2c.4,1.1,3.3.8,4.1-.1v1.4c0,0-7,0-7,0,0-.6.6-.2.9-.8.4-.9.4-7.8.2-9s-.6-.8-.7-1.3h6.3Z"/>
    <path d="M-361.8,251.6v2.2c-.6,0-.4-.7-.9-1.1-1.1-.9-3.2-.7-3.2.9,0,2,4.6,3,4.5,6.3-.1,3.2-3.8,3.7-6.2,2.8v-2.9c.6.1.3,1.2.9,1.8,1.1,1.4,3.5.9,3.9-.9-.6-2.7-4.5-3.4-4.5-6.3,0-3.3,3.2-3.1,5.6-2.8Z"/>
    <path d="M-407.5,251.6v1.9c-1.2-.9-2.9-1.8-4.1-.6v8.5c0,1.1,1.3.6,1.5,1.3h-4.5c-.1-.7,1.1-.3,1.1-.4v-10c-1,0-2-.1-3,.2s-.4.9-1.1,1l.6-1.9h9.5Z"/>
    <path d="M-420.1,251.6v1.8c-1-1.7-3.8-2.1-4,.2.2,1.9,5.6,3.4,4.4,7.3s-7.1,3.4-6.2-.5c1.1-.2.9,1.2,1.9,1.7s3-.3,3-1.8c-.1-2.3-5.4-3.4-4.3-6.9s3.5-2.2,5.4-1.8Z"/>
  </g>
  <g>
    <path d="M-235,376.8c0-.1.6-.7.8-.8,1.6-.8,10.9.2,11.3-.2-.2-5.8,3.9-9.8,9.6-10.2s17.4-.6,22.2.1,8.5,5.3,8.1,10.1c.4.4,9.7-.6,11.3.2s.8.7.8.8v6.8c8.9-1.4,5.7,4.6,6.2,10.5,4-.5,9.7,2.2,10.8,6.2.7,2.7.5,16,.2,19.4-.5,5.5-6.1,7.6-10.9,8-.4,1.9.6,8.5-.5,9.6l-5.8.5v6.8c0,0-.6.7-.8.8-1.6.7-10.9-.2-11.3.2.4,4.3-2.9,8.9-7.1,9.9s-22.1.7-25.3,0-7.9-5.6-7.4-10h-11.5l-.6-.6v-7.2c-1.5-.2-4.8.5-5.9-.6s0-7.8-.4-9.5c-4.4-.2-10.4-2.6-10.9-7.6s-.4-13.8,0-18.4,6.2-8,11-7.6c.3-1.8-.6-9.2.5-10.1l5.8-.5v-6.8ZM-196.7,390.3c.4-.5-1.1-11.7-1.5-12.3-1.1-1.4-8.1-1.3-9.4,0s-1.3,11.8-1.6,14.2h1.2s.6-2.8.6-2.8l5.3.6c.9.6-.7,3.2,2.1,3s-.3-3,1.4-3.7l1.9,1ZM-217.1,382.1h-.8s-.4,1-.4,1l-1.2-.2c.6,1.4-.8,1.7-.8,1.8s.8,2,.9,2.1c.3.2.9,0,1.2,0,.4.2.3.8.5.8,1.2,0,2.9-1.8,2.9-2.9s-1.4-.4-.8-1.8l-1.2.2-.4-1ZM-188.1,382.1c-1.4,0-.6,1.5-2.3,1v1.3c-1.6.2-.3.8-.1,1.5s-.3.9-.3.9c0,0,.8,0,1.3.1s.8.7,1.3.7,0-.6.5-.8.9.1,1.2,0,.9-2,.9-2.1-1.4-.4-.8-1.8l-1.2.2-.4-1ZM-235.8,423.9l14.6-.5c6-2.4,8.2-8.3,4.8-13.9s-1.5-1.2-1.7-1.9c-.3-1.3,1.8-4.1.1-7.1s-2.7-2.4-3.5-2.4h-14.3v25.8ZM-194.4,398.1h-17.2l.2,25.4h16.6s0-4.7,0-4.7h-13.3v-6.6h13.3v-3.9h-12.1v-4.3h11.9c1.2-1.5.3-4,.6-5.9ZM-185.2,398.1h-5.7v25.8h5.9v-15.6l9.6,14.8,4.9.4.4-25.2-3.9-.2c-.3,5.5.6,11-.2,16.4l-10.9-16.4ZM-217,429c-1.2-1.2-.7,3.6-.8,3.9l.8-1.6h1.3s1,1.6,1,1.6v-3.9c-1.4-.4-.4,1.5-1,1.6-1.2.2-1.4-.7-1.4-1.6ZM-212.1,429c-1.4.4-1.6,3.1.1,3.7,3.4,1.1,4-4.9-.1-3.7ZM-206.5,430.1c-.1-1-.5-1.3-1.6-1.2.1,1.3-.6,3.3.8,3.9l.2-2,1.4.8.8-.8.8,1.6v-3.5c-1.3-.3-1.1.4-1.8,1.2h-.6ZM-199.9,429h-2.7s0,3.9,0,3.9h2.7s-2-1.6-2-1.6h1.6s-1.6-1.6-1.6-1.6l2-.8ZM-195.7,429c-2.2.8-.4,5.1,2.2,3.4,2.1-1.4.6-4.4-2.2-3.4ZM-188.1,429h-3.1s0,3.9,0,3.9c1.4.4.5-1.3.8-1.6h2s-2-1.6-2-1.6l2.3-.8ZM-215.5,434.8c-1.2-.3-1.7-.7-2.8.2-2.4,2.1,1,4.9,2.8,2.6h-2.3c-.4-.8-.6-1.7.3-2.2s1.6.5,1.9-.6ZM-212.8,434.5c-3,.6-1.6,4.8,1.4,3.8s1.1-4.3-1.4-3.8ZM-206.9,436c-.4.3-1.6-2.2-2.1-1.2l-.2,3.5c1.5.4.5-1.5.8-1.9l1,.7,1.3-.7c.3.4-.7,2.3.8,1.9l-.2-3.5c-.5-.9-1.5.8-1.4,1.2ZM-201,435.2c-.4-1.1-1.8-.7-2.7-.8v3.9c1.4,0,.4-2,2.3-1.6l-1.6-1.6h2ZM-198.4,434.5c-2.6.5-1.9,4.8,1.4,3.8s1-4.2-1.4-3.8ZM-191.7,434.9c-.7-.3-2.4-.8-2.9,0l-.2,3.5c1,.4.9-1.2,1.4-1.2s1,1.5,1.8,1.2v-3.5ZM-187.4,434.4h-3.1s1.2,1,1.2,1v2.9c1.4.3.5-1.6.8-2.5s1.5-.3,1.1-1.4ZM-202.5,443.8c-.2-.1-.2-1.1-.8-1.1l-.4,1-1.2-.2c.6,1.4-.8,1.7-.8,1.8,0,1.2,1.8,2.9,2.9,2.9s.1-.6.5-.8.9.1,1.2,0,.9-2,.9-2.1-1.4-.4-.8-1.8c0-.1-1,.6-1.5.4Z"/>
    <path class="st0" d="M-235.8,423.9v-25.8h14.3c.8,0,3,1.6,3.5,2.4,1.7,3.1-.4,5.8-.1,7.1s1.3,1.2,1.7,1.9c3.5,5.6,1.2,11.5-4.8,13.9l-14.6.5ZM-222.6,402.5c-1-1-5.5-.3-7.1-.4-1,.3-.6,1.8-.6,2.7,1.5-.4,7.2.8,7.8-.3s.3-1.6,0-1.9ZM-231.9,410.6c.2,2.6-1.3,5.9.2,8.2h7.8c1.1,0,2.9-2.9,2.9-4.1s-1.8-4.1-3.3-4.1h-7.6Z"/>
    <path class="st0" d="M-185.2,398.1l10.9,16.4c.8-5.4,0-10.9.2-16.4l3.9.2-.4,25.2-4.9-.4-9.6-14.8v15.6h-5.9v-25.8h5.7Z"/>
    <path class="st0" d="M-194.4,398.1c-.3,1.9.6,4.4-.6,5.9h-11.9v4.3h12.1v3.9h-13.3v6.6h13.3v4.7s-16.6,0-16.6,0l-.2-25.4h17.2Z"/>
    <path class="st0" d="M-196.7,390.3l-1.9-1c-1.7.8.7,3.6-1.4,3.7s-1.2-2.3-2.1-3l-5.3-.6-.6,2.8h-1.2c.3-2.4.3-12.9,1.6-14.2s8.4-1.5,9.4,0,1.9,11.8,1.5,12.3ZM-202.2,386c-.3-1.9.8-4.5-1-5.8-.8,0-.6,4.9-1,5.8h2ZM-207.3,386.4l1.2-1v-4.9c-.5-.1-.6.7-.7,1.1-.2,1.5-.3,3.2-.5,4.8Z"/>
    <path class="st0" d="M-188.1,382.1l.4,1,1.2-.2c-.6,1.4.8,1.7.8,1.8s-.8,2-.9,2.1c-.3.2-.9,0-1.2,0-.4.2-.3.8-.5.8-.5,0-.8-.5-1.3-.7s-1.2,0-1.3-.1.3-.6.3-.9c-.2-.7-1.4-1.3,0-1.5v-1.3c1.8.5,1-.9,2.4-1Z"/>
    <path class="st0" d="M-217.1,382.1l.4,1,1.2-.2c-.6,1.4.8,1.7.8,1.8,0,1.2-1.8,2.9-2.9,2.9s-.1-.6-.5-.8-.9.1-1.2,0-.9-2-.9-2.1,1.4-.4.8-1.8l1.2.2.4-1h.8Z"/>
    <path class="st0" d="M-202.5,443.8c.5.3,1.4-.5,1.5-.4-.6,1.4.8,1.7.8,1.8s-.8,2-.9,2.1c-.3.2-.9,0-1.2,0-.4.2-.3.8-.5.8-1.2,0-2.9-1.8-2.9-2.9s1.4-.4.8-1.8l1.2.2.4-1c.6,0,.6,1,.8,1.1Z"/>
    <path class="st0" d="M-191.7,434.9v3.5c-.7.3-1.5-1.2-1.7-1.2-.4,0-.3,1.6-1.4,1.2l.2-3.5c.5-.8,2.2-.2,2.9,0Z"/>
    <path class="st0" d="M-206.5,430.1h.6c.6-.8.5-1.4,1.8-1.2v3.5s-.8-1.6-.8-1.6l-.8.8-1.4-.8-.2,2c-1.3-.6-.6-2.6-.8-3.9,1-.2,1.4.2,1.6,1.2Z"/>
    <path class="st0" d="M-206.9,436c-.1-.4.9-2.1,1.4-1.2l.2,3.5c-1.5.4-.5-1.5-.8-1.9l-1.3.7-1-.7c-.3.4.7,2.3-.8,1.9l.2-3.5c.5-1,1.8,1.4,2.1,1.2Z"/>
    <path class="st0" d="M-195.7,429c2.8-1,4.4,2,2.2,3.4-2.6,1.7-4.4-2.6-2.2-3.4ZM-193.6,429.8h-1.9s.6,2.3.6,2.3c1.2.4,2-1.4,1.3-2.3Z"/>
    <path class="st0" d="M-212.8,434.5c2.5-.5,3.2,3.2,1.4,3.8-3,1-4.4-3.2-1.4-3.8ZM-211.6,437.5c.8-.6,0-2.7-1.3-2.3s-.2,3.4,1.3,2.3Z"/>
    <path class="st0" d="M-198.4,434.5c2.4-.4,3.4,3.2,1.4,3.8-3.3,1-4-3.3-1.4-3.8ZM-197.2,437.5c1.4-1-.9-3.2-1.9-1.9s.9,2.6,1.9,1.9Z"/>
    <path class="st0" d="M-212.1,429c4.1-1.2,3.5,4.7.1,3.7-1.7-.6-1.5-3.2-.1-3.7ZM-211.7,429.8c-1.3.4-.3,2.4.7,2.3s1.5-3-.7-2.3Z"/>
    <polygon class="st0" points="-199.9 429 -201.8 429.7 -200.2 431.3 -201.8 431.3 -199.9 432.9 -202.6 432.9 -202.6 429 -199.9 429"/>
    <path class="st0" d="M-217,429c0,.9.2,1.8,1.4,1.6s-.5-1.9,1-1.6v3.9s-1-1.6-1-1.6h-1.3s-.8,1.6-.8,1.6c0-.3-.4-5.1.8-3.9Z"/>
    <path class="st0" d="M-215.5,434.8c-.3,1.1-1.2.2-1.9.6s-.8,1.3-.3,2.1h2.3c-1.8,2.4-5.2-.4-2.8-2.5s1.6-.5,2.8-.2Z"/>
    <path class="st0" d="M-188.1,429l-2.3.8,2,1.6h-2c-.2.2.6,1.9-.8,1.6v-3.9s3.1,0,3.1,0Z"/>
    <path class="st0" d="M-201,435.2h-2s1.6,1.6,1.6,1.6c-1.9-.4-.9,1.7-2.3,1.6v-3.9c.9,0,2.3-.3,2.7.8Z"/>
    <path class="st0" d="M-187.4,434.4c.3,1.1-.9.7-1.1,1.4s.6,2.8-.8,2.5v-2.9s-1.2-1-1.2-1h3.1Z"/>
    <path d="M-231.9,410.6h7.6c1.6,0,3.4,2.6,3.3,4.1s-1.8,4.1-2.9,4.1h-7.8c-1.5-2.3,0-5.6-.2-8.2Z"/>
    <path d="M-222.6,402.5c.4.4.3,1.5,0,1.9-.6,1.1-6.3-.1-7.8.3,0-.8-.3-2.4.6-2.7,1.5,0,6.1-.5,7.1.4Z"/>
    <path d="M-202.2,386h-2c.4-.9.2-5.9,1-5.8,1.8,1.3.7,3.9,1,5.8Z"/>
    <path d="M-207.3,386.4c.2-1.6.2-3.3.5-4.8s.2-1.2.7-1.1v4.9s-1.2,1-1.2,1Z"/>
    <path d="M-193.6,429.8c.7.9,0,2.7-1.3,2.3l-.6-2.3h1.9Z"/>
    <path d="M-211.6,437.5c-1.5,1.1-2.8-1.9-1.3-2.3s2.1,1.7,1.3,2.3Z"/>
    <path d="M-197.2,437.5c-1,.7-2.6-.8-1.9-1.9s3.2.9,1.9,1.9Z"/>
    <path d="M-211.7,429.8c2.2-.7,2,2.1.7,2.3s-2-1.9-.7-2.3Z"/>
  </g>
  <g>
    <path d="M8.2,72.7c-3.8-.6-5.2-6.1-2.4-8.6-2.2-.9.6-1,.7-1.5v-.9s-1.1.2-1.1.2c.4-1.1,1.6-.8,1.1-2.4l-1.5-.2,1.5-.2v-1.5s-1.1.2-1.1.2c.2-1.1,1.5-.6,1.1-2-1.8.9-1.8-1.3,0-.4v-6.6c-2,1-1.8-2.1,0-.4v-3.4s-1.5-1.1-1.5-1.1l1.5.2v-.9s-1.5-.7-1.5-.7l.7-.7c-2.4-1.6-1.8-7.8,1.3-7.5s1.8,5.7-2,3.7c.5,3.2,1.1,4.2,3.6,1.5,27-.9,54.4-.5,81.4-.2,2.2,2.3,3.4,2,3.4-1.4-6.7,1.9-3.1-6.8.2-2.6s.8,3.8.4,4.9-2.1,1.4-2.2,2.3v20.5c.2.9,1.8,1.4,2.1,2.7s.2,3.4-.2,4.4-2.7,2.7-3.6,2.7h-28.8l.6-1h28.5c2.4-.7,2.3-3.7.8-3s-.4,1.5-1.7,1.1c-.2-2.6,1.9-2.7,3.7-1.5.2-3.5-1.1-4.6-4-2.4l-79.1.2c-1.7.1-2.4-1-3.7-1.8-.9.1-1.8,3.1-1.6,4,.8,0,1.1-.8,2-.8s1.8,1,1.7,2.2c-1.4-.2-1.6-2.1-2.8-.2-.2,1.7,4.3,2,5.6,2,8.8.6,18.1-.5,27,0v1.1H8.2ZM9,40.2c-.9.4-1.3,1.3-1.4,2.3-.5,4.5-.4,15.2,0,19.8s3.2,2.8,6.1,2.7c15.2-.5,30.6-.5,45.8-.4s19.1,1.3,28.2.4c1.1-.1,2.3-.4,3-1.4l-.3-22.7-1-.8H9Z"/>
    <path d="M37,32.4c-1.6-1.7-2.6-3-2.2-5.5,1.4,1.2,1.7,5.4,3.8,5.5s1.1.2.9-.6c-1.7-1.2-3.3-3.1-3.3-5.3,1.3,1.2,1.8,3.1,3.2,4.3,2.4,2.1,4.8,2,7.5,2.8s.9,0,.7.9c-2.1.1-4-.9-6-1.1-11.1-1-23.6.8-34.9,0-.8,0-1.8.8-2.1,1.5-1.4,2.6-.1,11-.6,14.5s-.3,2.6,0,5.8c.4,4.4-.5,9.7,0,13.9s2.1,4.2,4.4,4.2l-.5,1c-7-1.5-4.6-10-4.6-15.1s-.3-5.2-1.1-5.9-1.8-.2-1.5-1.2c1.3-.2,2-.8,2.2-2,.6-4.1-1-12.2.8-15.7s5.7-2.1,8-2.1c-1.9-2.3,1.4-4.2,2.6-1.3,0,.3-1.8.2-1.5,1.3h9.4c.2,0,1.2-2.9,4.1-1.6s1,.5.8,1.2c-1-.7-3.2-1.5-3.3.4h13.2Z"/>
    <path d="M76.6,32.4c-.8-1.8-2.2-.9-3.7-.7.5-1.4,2.4-1.4,3.6-.8s.8,1.4,1.7,1.6c4.1.8,10.6-.7,15,0s3.3,2.2,3.5,4.5-.7,12.6.7,14.3,2.1.5,1.8,1.6c-1.7,0-2.3.8-2.5,2.4-.6,4,1.2,14.8-1.3,17.4-.5.5-3,1.9-3.7,1.8-2.1-.3,1.6-1.4,1.7-1.5,4.1-2.2,2-10.3,2.1-14s1.1-5.1,1.1-6.6-.7-2.1-.7-3.3c-.2-3.8.5-8.5,0-12.1s-1.1-3.3-2.7-3.5c-4.7-.6-11.9,0-16.9,0s-11.1-.5-16.9,0-5.8,1.3-6.9,1-.6-.3-.6-.7c2.8-.3,5.8-.9,8-2.8s2.3-3.1,3.7-4.5c.1,1.6-1.2,3.3-2.2,4.5s-2.3,1.8-.2,1.3,2.7-3.1,3.1-4.6-.3-1,.8-.9l-.2,2.6-2,2.9h13.6Z"/>
    <path d="M50.2,9.3c.4,2.5,1.1,1.4,2.3,1.6s.6.6,1.1.6.7-.7.8-.7c.3,0,.6,1.1.9,1.3s.9-.3,1.2-.2,1.9,1.6,2.1,1.7c.3.2,1-.3,1.1-.2-.3,1.5.7.9,1,1.2s-.3,1.3,1.1,1c-.2,2,.6,1.2,1,1.5,1,.9,1.6,3.8,2.7,5.2,1.6,2,5.1,4.1,7.7,2.9s2.2-2.7.2-2.4-.3,1.4-1.3,1.1l.2-1.9,2.7-.3c2.2,4.6-3.4,5.7-6.7,4.3s-4.6-5.7-6.7-8.3c-5.1-6.6-14.9-7.8-21.4-2.4s-4.3,8.8-9.1,10.7-5.8.9-6.8-1.5c-1.6-3.8,5.2-3.9,2.8-.6l-1.1-1.5-.9,1c0,2.1,2.9,2.2,4.5,1.9,2.9-.5,6.4-4.3,6.1-7.3h1.1s-.4-1.5-.4-1.5l1.5.4-.4-1.5c1.1.2,1.1-.6,1.6-1,.8-.6,1.9-1.6,2.8-2.1s.8.2,1.1,0c.5-.4,0-1.4,1.6-.6l.6-1.1h.7s.2.7.2.7c.5,0,.7-.5,1.2-.6,1.6-.4.8.8,2-1.3s.3-.3.7-.3Z"/>
    <path d="M56.4,30.5v-1c4.7-.4,6.2-5.6,4.4-9.4-3.3-6.9-14.6-8-19.7-2.6-4.2,4.4-3.5,11.7,3.3,12.3l-.3.7,1,1.2c-3,.8-6.9-2.8-7.5-5.5-2.3-8.9,8.6-15.3,16.2-12.9s9.9,6.1,8.9,11.9-4.7,8.1-8,5.9l1.8-.6Z"/>
    <path d="M64,10.5c.2.2,2.2,2.1,2.3,2.3,1.2,1.5,2.1,3.7,2.9,5.4,2.2.4,4.1-.2,6.3.7s.9,0,.7.9l-7.3-.5c-2.4-5.2-5.5-9.2-10.9-11.5s-6.6-2.3-8-2.3-6.8,1.8-8.2,2.4c-5.4,2.3-8.3,6.2-10.6,11.4l-7.3.5c-.2-1,.2-.6.7-.9,2.1-1,4.1-.3,6.3-.7,2.3-6.2,7-10.1,13.2-12.1,2.4-.8,4.7-.1,6.1-3.1.8,2.9,3.2,2.2,5.5,3s6.3,2.6,8.5,4.5Z"/>
    <path d="M34,84.8c2.8,6.4,9.4,8.3,15.6,9.9,4.9-1.2,9.9-2.1,13.6-5.8,1.1-1.1,1.7-2.5,2.6-3.6s.3-1,.8-.3c-1.1,4-5.6,7.3-9.3,8.6s-5.9.5-7.3,3.3c-2.1-2.9-5.9-2.5-9-3.8s-6.8-4.6-7.7-8.1l.7-.2Z"/>
    <path d="M18.3,28l-3.9-3.6c-1.8-1.8-6.6-1.4-5.4,1.7s4.6.7,6.3,3c-.5-2.4-2.8-3.6-5.1-2.9-.3-2.9,2-1.7,3.6-.8s3.2,3.8,4.1,5.9c-.7,0-1.7.2-2.3,0-1-.3-.3-2.9-3.7-2.5s-1.2,2.5-3.1,3c-.5-1,1.2-3.1,1.1-3.5s-3.8-2.6-.9-5,9.2,1,9.4,4.8Z"/>
    <path d="M91.3,31.7h-1.1c.5-2.5-1.9-3.7-4-2.7s-.9,3.4-4,2.4c.9-2.3,2.5-5.3,4.8-6.4,3.4-1.6,3.2,1.5,2,1.5-1.3-2.2-5.1,2.5-4.6,3,1.6-2.6,7.3-.8,6.9-4.5-.3-3.1-5.1-1.1-6.7.2s-2.1,2.8-2.3,2.9c-2.1.7.3-2.5.7-3,1.8-1.9,6.5-4,8.5-1.5s-1.1,3.8-1.3,4.7,1.6,2.4,1.1,3.4Z"/>
    <path d="M63.4,77.5c-2.3,14.2-23.6,14.5-26.8.6l1.1-.2c1.9,10.3,16.2,12.9,22.5,4.7s1.4-2.9,2.2-4.4,0-.9.9-.7Z"/>
    <path d="M39.5,78.6c2.7,7.5,13.5,9.4,18.7,3.5s2.4-4,2.9-3.5c-2.5,8.6-14.7,10.4-20.4,3.9-.4-.5-3.1-4.2-1.2-3.9Z"/>
    <path d="M73.6,73.9l.3.7,1.6-.7c0,1-.7,1.8-1.7,1.8s-.5-.7-.7-.8-3.8.4-4.3.5c-2.1.4-3.9,2.4-6.5,1,.5-3.5,5.5-1.7,7.9-1.8s2.2-.6,3.4-.7Z"/>
    <path d="M76.2,27.6h1.5c1.4,1.2-4.2,1.4-4.5,1.5s-.1.7-.8.8c-1.4,0-1.9-.8-2.8-1.7l3-.3c3.6-1,4.6-2.9,3.6-6.5,1.7.1,1.7,2.8,1.3,4.1s-1.3,1.2-1.3,2.2Z"/>
    <path d="M23.8,21.8c-2.2,3.2,1.5,6,4.6,6.3s1.9-.9,1.8.3c-.9,1.1-1.7,1.8-3.2,1.5s-.2-.6-.5-.7c-1.2-.3-3.1.2-4.1-.9l1.5-.5c.4-.3-2.7-2.8-1.4-5.2s.6-.7,1.4-.6Z"/>
    <path d="M80.6,73.8c-2.7,4.3-3.8,11.4-10.3,6.4,1-.4,2,.3,3.1.2,3.6-.2,3.7-4,5.8-6s.5-.8,1.4-.6Z"/>
    <path d="M37.7,76.4c-2.7,1.4-4.5-.6-6.5-1s-4.6-.7-4.7.3c-1.2.2-2.2-.6-2-1.8.3-.3,5.2.8,6.1.8,2.2,0,6.7-1.7,7.1,1.8ZM37,76c-.8-1.5-2.7-1.1-4-1.1.8,1.5,2.7,1.1,4,1.1Z"/>
    <path d="M29.7,80.1c-5.7,5.4-8.1-1.9-10.3-6.2,2.6.7,3,4.7,5.2,6s3.3.4,5.1.2Z"/>
    <path d="M43.2,66.9c0,1.5-.4,2.8.7,4l-1.5-.4c-.2,2.8,3.7,1.2,2.2-.9s-1.2-.4-1.1-.9l.8-.2-.4-1.6,1.1.2c.2,2.1,1.8,5.9-1.5,5.6v4s-1.1,0-1.1,0c.2-1.1.6-2.3.4-3.5s-1.6-.8-1.3-2.4.9-.5.9-1.2-.2-1.8-.4-2.8h1.1Z"/>
    <path d="M59.4,78.6c.1,2.1-1.7,2.1-3,2.6s-.2.7-.8.7c-1.6,0-3.3-1.3-3.5-2.8s0-.6.6-.5l1.3,1.5.4-1.8c1.2.9,1.7,1.9,3.4,1.4s.9-1.2,1.7-1Z"/>
    <path d="M45.8,78.6l.6,1.1,1.3-1.1c.3,2.4-1.9,3.5-4,3.3l.4-.7c-1.4.2-3.7-1-3.1-2.6,1.7,1.9,3.1.9,4.9,0Z"/>
    <path d="M20.1,22.2c-1.8,3.7,0,5.5,2.9,7.5-.9,1.2-1.2-.8-2.2-.5v2.6c-1.1.2-.6-.3-.7-.9-.6-2.4-1.4-4.6-2.1-7,.1-1.3.9-1.8,2.1-1.6Z"/>
    <path d="M79.9,31.7c-1.3.2-1-1.8-1.1-2.6-.7.1-1.1,1.7-1.8.5,2.7-1.8,4.6-3.9,2.9-7.3,0-.4,1.5-.4,1.8.4.9,2.8-2.7,5.8-1.8,8.9Z"/>
    <path d="M10.6,73.8c.6.5,1,2.3,2.6,2.8s2.2-.6,3.1-.6c2,0,.7,3.4,2,4.4-1.7.2-2.1-1.5-1.5-2.7l-.5-.5c-2,1.9-6.1-.5-6.4-2.8s.4-.8.7-.5Z"/>
    <path d="M66.3,25.8c.4,1,.7,2.4,1.3,3.3.9,1.3.8.1,2,0l1.1,2.6c-1.1.7-2.9-1-3.1-1-.3,0-1.1,1.5-2,1,.8-1.9.7-3.8,0-5.7l.7-.2Z"/>
    <path d="M34.4,25.8c-.6,2.1-1.2,3.8,0,5.9-1.3.2-1.4,0-2-1.1-.8,1-1.9,1.2-3.1,1.1l1.1-2.6,1.3.7c1.1-.8,1.2-2.2,1.8-3.3s0-.9.9-.7Z"/>
    <path d="M90.2,73.8c-.4,3.3-4.1,4.8-7,3.3.4,1.5.6,3.4-1.5,3.3,1.3-1.1.2-3.2,1.3-4.1s1.7.3,2.6.4,2.6-.8,3.3-1.6,0-1.6,1.2-1.4Z"/>
    <path d="M69.3,80.4c-.4,2,1.4,5.3,3.2,6.2s3.4.5,2.7,1.5c-1.3,1.7-6.1-2.9-6.5-5s-.6-3.1.6-2.7Z"/>
    <path d="M24.9,88.1c0-1.4,1.7-1,2.7-1.5,2.4-1.2,2.8-3.9,3.3-6.2,3,2.7-4.6,9.6-6,7.7Z"/>
    <path d="M53.9,82.6c-.9,2.4-6.8,2.2-7.7.5s3.3.2,3.5.2c1.5,0,2.6-1.5,4.2-.7Z"/>
    <path d="M49.5,74.6c1.5-.2,1.8-1.1.7-2.2l1.1.2c1.1.9-.4,2-.3,2.5s1,1,.7,1.7l-2.2-1.8v1.8s-1.1,0-1.1,0c0-1.5.7-2.7,0-4.2,2.1-1.8.8,1.7,1.1,2Z"/>
    <path d="M43.1,19.7c1.4,1.2.7,3.7.8,5.4-1-.3-1-1.5-1.6-2.2s-3-1.7-1.1-2.2l1.7,1.1-1.1-2.6c.5,0,1,.2,1.3.5Z"/>
    <path d="M58.3,19.2l-1.5,2.9c.3-.9,3.8-2.3,2.5-.4s-1,.2-1.4.6c-.7.6-.9,1.9-1.9,2.4-.5-2.3-.8-5.2,2.2-5.5Z"/>
    <path d="M83.6,73.8c-.5,2.3-2.8,2.7-2.4,5.5-2.8-1.6-.3-5.3,2.4-5.5Z"/>
    <path d="M29.7,82.3c-.6,2.9-4.8,5.1-7.3,3.1.8-1.1,1.9-.1,3-.2s2.2-.8,2.7-1.4.1-1.8,1.6-1.5Z"/>
    <path d="M51.3,66.9v1.5s.7-.4.7-.4l1.5,3.3c-1.5.4-1.3-1.3-2.4-1.5l.2,1.5h-1.1s0-4.4,0-4.4h1.1Z"/>
    <path d="M77.3,84.8c-.8,4-8-1.5-7-2.6,1.6.5,1.8,2.1,3.7,2.7s2,0,3.2-.1Z"/>
    <path d="M49.5,31.7l1.1-4.8-1.8-.2c5.3-2.5,2.6,3.2.7,4.9Z"/>
    <path d="M18.7,79c.7-2.6-1.8-3.1-2.2-5.1,2.3,0,5.4,4.1,2.2,5.1Z"/>
    <path d="M21.2,79.3c.9,2.8,3.2,3.8,5.9,3.8-1.8,2.5-6.8-1.6-6.6-3.7l.7-.2Z"/>
    <path d="M72.9,83c2.7.4,5.1-1.1,5.9-3.7l.7.6c.3,1.5-5.3,6.1-6.6,3.1Z"/>
    <path d="M23.3,74.3l3.8,3.9c-1.7.8-4.7-2.6-5.1-3.9s1-.4,1.3,0Z"/>
    <path d="M78.1,73.8c-1.2,1.8-2.8,5.8-5.5,3.8,2.7-.3,3.2-3.5,5.5-3.8Z"/>
    <path d="M42.9,26.5c-1.9.6-4.6-1.7-1.5-1.7l-1.5-2c.8-.8,3.6,2.5,2.9,3.7Z"/>
    <path d="M24.4,35c2.2-.7,2.9,2.9.3,2.9s-1.2-2.6-.3-2.9Z"/>
    <path d="M60.1,22.9l-1.8,2c0,1.3.9,0,1.5-.2.2,1.7-1.1,2-2.6,1.8-.2-1.9.8-3.9,2.9-3.7Z"/>
    <path d="M58.3,77.9l.2-2.2-2.4-1.7.5-1.6c0,1.9,2.3,1.7,2.7,2.8s0,2.3-1,2.7Z"/>
    <path d="M52,19.6c-.3,1.4,1.1,3-.2,4l-2-1.6,2.2-2.4Z"/>
    <path d="M46.6,73.7c.1.2.8-.1.6.6-1.2.3-.7,1.3-.7,2.4h-1.1c.2-1.3-.3-3,0-4.2.5-1.9,1.1.9,1.2,1.1Z"/>
    <path d="M57.9,71.3c-1.3,1-2.4-3.3-2.6-4l-.9.7-.2-1.1c2.9-.6,2.4,2.7,3.7,4.4Z"/>
    <path d="M75.9,70.2v-2.6l1.9.2c1,1.8.1,2.7-1.9,2.4Z"/>
    <path d="M87.3,31.9c-.1,0-.3-1-1.6-.8,1.7-3.6,5.1,1,2,.9-.2,0-.3,0-.4-.1Z"/>
    <path d="M53.1,72c.2.2-.2,3,0,3.8s1.1.3,1.1,1c-3.4.9-2.2-6-1.1-4.8Z"/>
    <path d="M48.4,22.5l1.1.7h-2.2s1.1-2.4,1.1-2.4l-1.1-.2c-1.1-1.4,4.3-1.6,1.1,1.8Z"/>
    <path d="M88,73.8c.2,2.8-5.1,2.2-3.1-.4,1,1.3,1.8,1.5,3.1.4Z"/>
    <polygon points="83.9 70.2 82.5 69.4 81.7 70.2 81.7 67.6 83.8 67.9 83.9 70.2"/>
    <path d="M15.7,73.8c.2,2.6-3.7,2.4-3.7,0,1.6,1.3,2.1.3,3.7,0Z"/>
    <path d="M47.3,66.9c.1.9-.5,1.7-.3,2.7s1.1,1,1.4,1.7l-1.7-.3c-.9-.7-.4-2.9-.5-4.1h1.1Z"/>
    <path d="M53.5,24.4c0,1.6-3.2.6-4.6.7s-1.5.4-2.4.4v-1.1c2.4.6,4.6.4,7,0Z"/>
    <path d="M83.2,24c-1.3.3-.5-1.3-.9-2.2s-1.6-.4-1.3-1.5c2.4-.2,2.8,1.8,2.2,3.7Z"/>
    <polygon points="72.2 36.1 72.9 35 72.9 37.5 71.1 36.4 70.7 37.5 70.7 35 72.2 36.1"/>
    <path d="M82.1,37.9l-.7-1.5-1.5,1.1v-2.2c1.2-.3.3.9,1.3.7l.5-.9.7.4-.4,2.4Z"/>
    <path d="M48,82.3c-.7-2.4,2.7-4.1,1.7-1.1s-.7,1.2-1.7,1.1Z"/>
    <path d="M28.9,35l.7,2.9c-1.2.3-.4-1.1-1.7-.7s0,.9-.5.7c-.3-.5.7-3.7,1.5-2.9Z"/>
    <path d="M19,20.3c.2,1.1-1.2.9-1.6,1.8s0,1.3-.4,1.8c-1.4-1.5,0-4.1,2-3.7Z"/>
    <path d="M17.9,35.7c.6.3,1.2-.9,1.4-.7.2.7-.6.9-.6,1.3s.8,1,.6,1.6l-.7-1.1-1.5.7.2-2.2c.8-.9.5.2.6.3Z"/>
    <path d="M74,67.6l.7,2.6c-1.2-.2-1-1.1-2.2,0,0-1,.2-2.6,1.5-2.6Z"/>
    <path d="M78.1,35c0,1.5-1.6,0-1.1,2.2,1.1.3.5-.6.9-.7,1.1-.3.7,1.8-.7,1.4s-1.2-3.2.9-2.9Z"/>
    <path d="M69.6,67.6l.2,1.1,1.3-1.1v2.6s-1.3-1.1-1.3-1.1l-.9,1.1c.2-.8-.6-2.9.7-2.6Z"/>
    <path d="M25.2,67.6l.8,2.5c-1.2.3-.4-1.1-1.7-.7s0,.9-.5.7l.4-2.6h1.1Z"/>
    <path d="M35.9,79.3c-.5.9,0,1.7.4,2.6h-1.8c.3-1.5-1-2.2,1.5-2.6Z"/>
    <path d="M22.3,35l-.7,1.1.7.4c-.5,0-.9-.2-.7.6s1.1-.1.7.9h-1.5s0-2.9,0-2.9h1.5Z"/>
    <path d="M64.5,35.7c.5.4,1.3-.9,1.4-.7.2.7-.6.9-.6,1.3s.9,1,.6,1.7l-.7-1.1h-.7s-.4,1.1-.4,1.1c.3-1.1-.7-2.3.2-2.9l.2.7Z"/>
    <path d="M50.6,82.3l-.4-2.6c.6-.6,3.4,2.9.4,2.6Z"/>
    <path d="M68.9,35l-.7,1.1.7.4c-.5,0-.9-.2-.7.6s1.1-.1.7.9h-1.5s0-2.9,0-2.9h1.5Z"/>
    <path d="M67.4,60.8c.2,1,1.3.6,1.1,1.6h-3.3s0-20.2,0-20.2h4c-.4.7-.4,1.1-.2,1.8s2.4,6.5,3,7.7.3,1,.9,1.1v-9.7c0-.2-.8-.5-.7-.9h3.3c-.5.8-.7,1.4-.8,2.4-.3,4-.3,11,0,15.1s.3,2.8,1.9,1.8,1.9-5.6,1.8-6.6-1.2-2-1.1-2.6.8-.5,1.1-.9c1.6-2.1,2.6-6.7,1.8-9.2h5.1c-.1.7-.4,1.2-.3,1.9.3,3.3,2,11.4,3,14.7s1.1,2.2,1.7,3.6h-5.5c-.2-.7.5-.9.6-1.4.4-1.8-.3-4.2-.8-6-1.4.8-2.1,1.5-3.8.7,0,1.2-1,3.1-.9,4.2s.9,1.4.9,2.4h-8.8c-.2-.7.6-.8.6-1.5-.2-2.5-3.5-6.7-3.9-9.5-.1-.1-.7.5-.7.5,0,2.5-.4,6.6,0,8.8ZM82.1,45.6c.5,1.7-2.9,8.4.5,8.1s.5-5.3.2-6.8,0-1.1-.7-1.3Z"/>
    <path d="M14.6,42.3c-.3,3.6.7,7.7,1.3,11.4.9.3.5-.8.5-1.3.5-3.3,1.4-6.9,1.1-10.1h4.4s-.7,1.3-.7,1.3l1.4,10.5c.7-.1.6-.7.8-1.2.6-1.8,1.5-6.4,1.7-8.2s0-1.4-.3-2.3h3.3c-.8,2.2-1.8,5.6-1.8,7.9s.6,1.8.5,2.3-1,1.8-1.3,2.7c-.7,2.3-1.5,4.8-.7,7.2h-4.8c-.2-.7.5-.9.7-1.4.6-2.2-1.6-8.1-1.6-10.7-1.1,3.9-2.6,8.1-1.7,12.1h-4c0-.9.7-1,.7-2,0-2.3-2.6-7.3-2.5-8.1s.6-.9.7-1.5c.4-2.4-.5-6.3-1.5-8.6h3.7Z"/>
    <path d="M59.4,62.5c.8-2.5-.2-4.8-.4-7.3-1.7.7-2.4,1.6-4.4.7-.3,1.4-.9,2.7-.8,4.2s.6,1.4.8,2.4c-1.2,0-2.3,0-3.5,0-2-.1-.1-1,.4-2.2s1.3-4.8,1-6.1-.8-1.4-.8-1.7,1.2-1.2,1.6-1.7c1.2-1.9,2-6.2,1.3-8.4h5.3c.4.3-.5.6-.5,1.2s1.9,7.8,2.3,8.3,1.2.8,1.6,1.3c.1.2-1.4.3-1.4,1.4s1,5.4,1.2,5.8c.4.9,1.4,1.1,1.4,2.1h-5.1ZM56.8,45.2c.3,1.9-3.4,9.1.5,8.4s1-.7.9-1.6l-1.5-6.8Z"/>
    <path d="M36.6,42.3l-.7,1.2c2.1,6.2,1.7,13.1,4.7,19-.8,0-5.2.4-5.1-.5,1.2-.4.2-6.8-.2-6.8-1.8,1.2-2.3,1.1-4.2.4.1,1.5-1,3.1-.9,4.6s.9,1.4.9,2.4h-4.4c0-1,.8-.7,1.3-1.8,1.3-2.7,1.6-6.1.2-8.8,1.4-.4,2.5-2.2,2.8-3.6s.8-4.5.8-4.7c0-.6-.6-.8-.7-1.3h5.5ZM33.3,45.6c-.1,2.4-3.5,9.5,1.3,7.7l-1.3-7.7Z"/>
    <path d="M51.7,43c.3,1.3-.9,1.2-1.6,2.2s-.9,2.8-1.9,4c-1.6-1.5,1.4-3.7-.8-5.1s-4.3,2.4-4.2,4.5,1.1,2.4,1,2.9-.7,1.4-.9,2.1c-.5,2.4.5,7.6,3.9,6.1,2.3-1,0-4.2.4-6h1.1c-.4,2.4.7,3.2,1.8,4.9-4,7.4-10.1,1.6-10.9-4.5s.3-10.3,4.6-11.7,4.2,1.6,7.4.6Z"/>
  </g>
  <g>
    <path d="M-421.1,357.5c26.3-2.6,45.2,25,32.1,48.3-11.9,21.1-42.1,22-55.5,1.9-13.3-19.9-.3-47.9,23.4-50.2ZM-437.9,413.2c16.3,14.7,43.6,6.8,50.1-13.9,7.5-24.1-14.6-46.2-38.7-39-23.4,7-29.5,36.7-11.5,52.9Z"/>
    <path d="M-465.5,440.2c.3-1.8,2.7-4.4,4.5-4.7,10.2-2.1,10.5,13.3.3,11.8-1.2-.2-1.8-.9-2.9-1.1v4.6s-1.9,0-1.9,0c.4-3.2-.5-7.5,0-10.6ZM-460.6,437.4c-5.7,1.3-2,10.8,3.3,7.6,4.2-2.5,2.1-8.8-3.3-7.6Z"/>
    <path d="M-439.2,439.8c.7-3.9,6.1-5.6,9.4-3.6,5.9,3.7,2.2,12.8-5.3,11.1s-1.3-1.1-2.2-1.1v4.6s-1.9,0-1.9,0c.4-3.3-.6-7.9,0-11ZM-434.7,437.4c-4.6,1.2-2.5,9,2.1,8.2,5.8-1,4.6-9.9-2.1-8.2Z"/>
    <path d="M-381.3,448.1h-1.9s0-1.2,0-1.2c-3,1.5-7,2-9.2-1-4.7-6.4,3.8-13.4,9.2-8.4.4.4,2,2.8,2,3.1v7.5ZM-384.5,439c-3.5-3.4-9.4.9-6.6,5.3,3.4,5.4,11.1-1,6.6-5.3Z"/>
    <path d="M-402.2,436.2c10.4-1.9,10.3,12.7,1.1,11.9-6.9-.6-7-10.8-1.1-11.9ZM-400.7,437.8c-6.9.6-3.5,11.5,2.4,7.8,3.8-2.4,1.8-8.2-2.4-7.8Z"/>
    <path d="M-421.9,436.2c10.1-2.1,10.5,12.7,1.1,11.9-6.8-.6-7.1-10.6-1.1-11.9ZM-417.3,445.3c3.6-3.4-.4-9.5-5-6.8-5.1,3,.8,10.8,5,6.8Z"/>
    <path d="M-448.2,436.2c9.8-2,10.7,11.5,2.2,11.9-7.9.3-8.4-10.6-2.2-11.9ZM-446.7,437.8c-5.9.5-4.6,9.8,1.8,8.3s3.5-8.8-1.8-8.3Z"/>
    <path d="M-368.5,448.1h-1.5v-6.8c0-1.6-2.5-3.6-4.1-3.6s-4.4,1.7-4.4,3.3v7.1h-1.9v-7.5c0-.6,1.6-2.8,2.1-3.3,2.4-2,6.6-1.8,8.7.6s1.2,1.8,1.2,1.9v8.3Z"/>
    <path d="M-413.3,436.3c.4-1.6,2.7,0,1.9,1.7h3.1s0,1.9,0,1.9h-3.1c-.3,3.1.9,6,4.3,6.4v1.7c-2.5.8-6.2-3.1-6.2-5.2s-.3-5.5,0-6.6Z"/>
    <path d="M-399.6,412.7c-17.7,14.4-45.1,2-46.9-20.4-1.2-15.2,10.2-30.1,25.7-31.5,29.8-2.5,44.4,33,21.2,51.9ZM-422.3,362.4l-.6.9c2,5.4,9.2,5.4,11.2,0,0-.7-.4-.8-1-.9-.9-.2-8.9-.2-9.6,0ZM-426.1,363.5c-11,3.3-19.1,14.3-18.9,25.9l18.9-25.9ZM-389.8,389.4c0-11.5-8.1-22.9-19.3-25.9l19.3,25.9ZM-443.8,391h7.1c1-.9.4-2.4.6-3.6.6-3.6,2.8-8.3,5.4-10.8s5.2-3.2,5.8-4.2,2.1-5.2,2.1-5.5c0-.5-1.4-1.8-1.6-2.5l-19.5,26.6ZM-390.9,391l-19.5-26.6c-.2,0-1.6,2.1-1.6,2.5s1.7,4.7,2,5.2c.9,1.5,3,2.1,4.5,3.3,4.4,3.5,7.2,9.3,7,15l.5.6h7.1ZM-418,369l-3.4-1-1.5,4.1,4.7-.9.3-2.1ZM-411.8,372l-1.8-4.2c-1.8.8-4.4.7-2.9,3.3l4.6.9ZM-420.4,372.9c-21.7,2.9-17.3,38.5,6.4,34.2,21-3.9,17.3-37.4-6.4-34.2ZM-436.1,392.5h-8.9l.8,3.9h8.9l-.8-3.9ZM-390.5,396.4l.7-3.3-.5-.6h-8.3c0,.6-1.4,3.9-.2,3.9h8.3ZM-435.2,397.5h-8.7l1.2,3.9h10c-.4-1-1.5-3.7-2.5-3.9ZM-402.1,401.4h9.5l1.7-3.3-.6-.6h-7.7c-1.4,0-3.1,3.7-2.9,3.9ZM-431.3,402.9h-10.2c.5,1.7,1.9,3.7,3.3,4.6h12.9c.2-1-.2-.6-.6-.8-1.1-.7-5.1-3.7-5.4-3.8ZM-393.2,402.9h-10.2c-.3,0-4.3,3.2-5.4,3.8s-.8-.2-.6.8h12.9l3.3-4.6ZM-397.9,408.7h-39.4l5.6,4.6c8.9-.7,19.1.9,27.8,0,.5,0,.8,0,1.3-.2s5.3-3.9,4.7-4.4ZM-406.4,414.9h-22c.3.7,1.8.9,2.5,1.2,5.1,1.6,11.2,1.7,16.4.2s2.6-.6,3.1-1.4Z"/>
    <path d="M-419.6,375.2c14.8-1.8,24.3,15.6,12.6,25.7-11.4,9.8-29.4-.2-25.4-15s7-10.1,12.8-10.8ZM-410.6,384.4c.5-1.6,0-2.7,0-4.1s.7-1.4-.4-2.3c-2.6-1.9-7.8-1.5-10.8-1-.2.9.2.6.5.9,3,2.4,7.5,4.2,10.7,6.5ZM-418.7,381.7c.2-.3-4.5-3.7-5.8-3.3-2.6.8-6.4,6.3-6.6,9.1l12.4-5.8ZM-409.1,392.9c1.2-.3,5.7-3,5.8-4,.2-2.8-2.7-6.9-4.6-8.9s-.5-.7-1.2-.6v13.5ZM-410.7,386c-2.4-.9-5-4.1-7.5-3.3s-6.2,3.1-6.3,4.1l.5,7.2,6.5,3.8c1.4-1.3,6.5-2.7,6.8-4.4s.1-7.1,0-7.4ZM-425.7,400.2v-13.5c-1.4,1-5.8,2.2-5.8,4,0,2.9,2.6,8.8,5.8,9.5ZM-403.3,391.7l-11.9,6.5-.5.9c2,.6,4,2.9,6.1,2,3.2-1.4,5.6-6.1,6.3-9.4ZM-412.9,402.9c.7-.6-3.3-2.7-3.7-3-1-.6-7.3-4.3-7.8-3.9v5.2c3.2,2.8,7.8,2.3,11.6,1.7Z"/>
  </g>
</svg>